<svg width="37" height="49" viewBox="0 0 37 49" fill="none" xmlns="http://www.w3.org/2000/svg">
<path d="M24.7866 11.0045C24.7195 11.0258 24.7109 9.21626 23.892 6.61586C23.4804 5.33041 22.8372 3.85633 21.8384 2.58442C20.8551 1.3116 19.4136 0.362791 17.8275 0.355718C16.2406 0.347433 14.794 1.28199 13.8055 2.54926C12.8015 3.8141 12.1531 5.28383 11.7381 6.56726C10.9123 9.16453 10.8994 10.9733 10.8314 10.952C10.8228 10.9512 10.8228 10.8407 10.8314 10.6319C10.8374 10.4216 10.8564 10.1145 10.9003 9.72022C10.989 8.93529 11.1569 7.79158 11.5659 6.46906C11.9663 5.15087 12.6104 3.63224 13.6385 2.31052C14.6511 0.985968 16.1657 -0.0101262 17.8284 7.81679e-05C19.4902 0.00603915 20.9997 1.01638 22.0054 2.34719C23.0292 3.67558 23.6673 5.19825 24.0651 6.51755C24.4698 7.84321 24.6351 8.98701 24.7212 9.77194C24.7643 10.167 24.7823 10.4752 24.7884 10.6844C24.7961 10.8936 24.7961 11.0037 24.7866 11.0045" fill="#17282F"/>
<path d="M27.1966 11.0045C27.1294 11.0258 27.12 9.21626 26.302 6.61586C25.8904 5.33041 25.2472 3.85633 24.2475 2.58442C23.265 1.3116 21.8227 0.362791 20.2366 0.355718C18.6506 0.347433 17.2031 1.28199 16.2154 2.54926C15.2106 3.8141 14.5631 5.28383 14.1481 6.56726C13.3214 9.16453 13.3085 10.9733 13.2413 10.952C13.2319 10.9512 13.2319 10.8407 13.2405 10.6319C13.2474 10.4216 13.2663 10.1145 13.3102 9.72022C13.3989 8.93529 13.566 7.79158 13.975 6.46906C14.3762 5.15087 15.0194 3.63224 16.0484 2.31052C17.0602 0.985968 18.5748 -0.0101262 20.2384 7.81679e-05C21.9002 0.00603915 23.4088 1.01638 24.4153 2.34719C25.4383 3.67558 26.0772 5.19825 26.4742 6.51755C26.8797 7.84321 27.0442 8.98701 27.1311 9.77194C27.1742 10.167 27.1923 10.4752 27.1974 10.6844C27.2061 10.8936 27.2061 11.0037 27.1966 11.0045" fill="#17282F"/>
<path d="M2.73127 9.10016L29.9452 8.8787L30.5384 48.5H0L2.73127 9.10016" fill="#33535F"/>
<path d="M29.9453 8.8787H33.3611L36.3025 48.5H30.5386L29.9453 8.8787Z" fill="#33535F"/>
<path d="M36.3025 48.5H30.5386L29.9453 8.8787H33.3611L36.3025 48.5" fill="#20353D"/>
<path d="M25.3041 26.3401H7.48779V22.3374H25.3041V26.3401Z" fill="white"/>
</svg>
