<svg width="74" height="84" viewBox="0 0 74 84" fill="none" xmlns="http://www.w3.org/2000/svg">
<path d="M53.9629 14.8816C53.9268 14.8855 53.8906 14.2903 53.7158 13.2398C53.5393 12.1928 53.2465 10.6713 52.5973 8.91938C51.961 7.17342 50.9647 5.17012 49.4131 3.43952C47.8873 1.70578 45.6442 0.413362 43.1764 0.403259C40.7077 0.392145 38.4561 1.66709 36.9217 3.39092C35.3623 5.11243 34.3583 7.11108 33.7168 8.85391C33.0615 10.6026 32.7653 12.1233 32.5853 13.1687C32.4071 14.2197 32.3701 14.8137 32.3331 14.8097C32.3219 14.8085 32.3244 14.6601 32.3399 14.3764C32.3511 14.0934 32.383 13.6758 32.4527 13.1427C32.594 12.0798 32.8574 10.532 33.4929 8.74257C34.1163 6.95953 35.1134 4.90532 36.7055 3.11904C38.2709 1.33085 40.6096 -0.0140085 43.1773 0.000136191C45.7441 0.00821888 48.0741 1.37025 49.6309 3.16956C51.2144 4.96412 52.2038 7.02308 52.8212 8.80925C53.4515 10.6015 53.7098 12.1505 53.8476 13.2133C53.9164 13.7469 53.9466 14.164 53.9578 14.4478C53.9724 14.7308 53.9741 14.8804 53.9629 14.8816" fill="#33535F"/>
<path d="M57.6974 14.8816C57.6612 14.8855 57.6251 14.2903 57.4511 13.2398C57.2737 12.1928 56.981 10.6713 56.3326 8.91938C55.6963 7.17342 54.7 5.17012 53.1484 3.43952C51.6217 1.70578 49.3787 0.413362 46.9109 0.403259C44.4422 0.392145 42.1914 1.66709 40.657 3.39092C39.0967 5.11243 38.0936 7.11108 37.4521 8.85391C36.7968 10.6026 36.4998 12.1233 36.3198 13.1687C36.1424 14.2197 36.1045 14.8137 36.0684 14.8097C36.0563 14.8085 36.0589 14.6601 36.0744 14.3764C36.0864 14.0934 36.1174 13.6758 36.1881 13.1427C36.3284 12.0798 36.5919 10.532 37.2282 8.74257C37.8508 6.95953 38.8487 4.90532 40.44 3.11904C42.0054 1.33085 44.3449 -0.0140085 46.9126 0.000136191C49.4794 0.00821888 51.8094 1.37025 53.3662 3.16956C54.9489 4.96412 55.9391 7.02308 56.5565 8.80925C57.1859 10.6015 57.4451 12.1505 57.5829 13.2133C57.6518 13.7469 57.6819 14.164 57.6922 14.4478C57.7077 14.7308 57.7094 14.8804 57.6974 14.8816" fill="#33535F"/>
<path d="M21.6463 13.3163L63.8237 12.9385L64.7442 80.4006H17.4133L21.6463 13.3163" fill="#88B9D5"/>
<path d="M63.8247 12.9385H69.1194L73.6778 80.4006H64.7443L63.8247 12.9385Z" fill="#88B9D5"/>
<path d="M27.2725 44.9268H54.886V39.4982H27.2725V44.9268Z" fill="white"/>
<path d="M34.731 30.7246C34.6363 30.7539 34.6234 28.219 33.4765 24.5739C32.9004 22.7742 31.9989 20.7094 30.5988 18.927C29.2219 17.1416 27.201 15.8132 24.9795 15.8029C22.7562 15.7918 20.7284 17.102 19.3438 18.8773C17.9368 20.6497 17.0284 22.7094 16.4472 24.5071C15.2899 28.1463 15.271 30.68 15.1763 30.6496C15.1642 30.6488 15.1642 30.4941 15.1763 30.2014C15.1849 29.9081 15.2116 29.4767 15.2736 28.9242C15.3976 27.825 15.6326 26.2228 16.2052 24.3694C16.7675 22.5228 17.6682 20.3939 19.1105 18.5418C20.5278 16.6869 22.6503 15.2906 24.9803 15.3048C27.3095 15.3139 29.4243 16.7283 30.8338 18.5935C32.2675 20.4556 33.1622 22.5883 33.7184 24.4385C34.2867 26.2942 34.5175 27.8977 34.6389 28.998C34.6992 29.5505 34.7241 29.9819 34.7327 30.2759C34.7439 30.5691 34.7439 30.7227 34.731 30.7246" fill="#17282F"/>
<path d="M38.1074 30.7246C38.0127 30.7539 38.0006 28.219 36.8537 24.5739C36.2768 22.7742 35.3752 20.7094 33.9751 18.927C32.5983 17.1416 30.5782 15.8132 28.3558 15.8029C26.1326 15.7918 24.1048 17.102 22.7202 18.8773C21.3132 20.6497 20.4056 22.7094 19.8236 24.5071C18.6663 28.1463 18.6482 30.68 18.5535 30.6496C18.5406 30.6488 18.5406 30.4941 18.5526 30.2014C18.5612 29.9081 18.5879 29.4767 18.6499 28.9242C18.7739 27.825 19.009 26.2228 19.5825 24.3694C20.1439 22.5228 21.0454 20.3939 22.4868 18.5418C23.905 16.6869 26.0275 15.2906 28.3567 15.3048C30.6859 15.3139 32.8007 16.7283 34.2102 18.5935C35.6447 20.4556 36.5385 22.5883 37.0956 24.4385C37.6631 26.2942 37.8938 27.8977 38.0152 28.998C38.0755 29.5505 38.1013 29.9819 38.1091 30.2759C38.1203 30.5691 38.1203 30.7227 38.1074 30.7246" fill="#17282F"/>
<path d="M3.82656 28.0562L41.9579 27.746L42.7896 83.262H0L3.82656 28.0562Z" fill="#33535F"/>
<path d="M41.958 27.746H46.7447L50.8666 83.262H42.7898L41.958 27.746Z" fill="#33535F"/>
<path d="M50.8666 83.262H42.7898L41.958 27.746H46.7447L50.8666 83.262" fill="#20353D"/>
<path d="M35.4551 52.2124H10.4912V46.6031H35.4551V52.2124Z" fill="white"/>
</svg>
