<svg xmlns="http://www.w3.org/2000/svg" width="58" height="55" viewBox="0 0 58 55" fill="none">
<path d="M7.20821 40.5313H19.6664V44.627L41.3327 45.1146C46.966 45.2414 46.2077 41.7299 45.1243 39.9583L26.1653 40.3943C29.632 36.9691 27.6098 34.0932 26.1653 33.0833H4.50076C-1.56514 33.5417 3.77827 38.2396 7.20821 40.5313Z" fill="#FFA2A5"/>
<path d="M5.58408 51.2758C5.95991 51.0704 6.4899 50.9198 7.20865 50.8438H15.8748V49.6979V44.5417H7.74894H4.50076C-0.265836 45.9167 3.23689 49.604 5.58408 51.2758Z" fill="#FFA2A5"/>
<path d="M15.8748 44.5417V49.6979V50.8438H18.5839L41.3327 50.3318V45.1146L19.6664 44.627L15.8748 44.5417Z" fill="#FFA2A5"/>
<path d="M18.5839 50.8438V56H44.0419C45.3418 53.7083 44.5835 51.2257 44.0419 50.2708L41.3327 50.3318L18.5839 50.8438Z" fill="#FFA2A5"/>
<path d="M7.20865 56H18.5839V50.8438H15.8748H7.20865C6.4899 50.9198 5.95991 51.0704 5.58408 51.2758C3.69405 52.3085 5.7026 54.7256 7.20865 56Z" fill="#FFA2A5"/>
<path d="M7.20821 40.5313C4.60825 40.9896 6.12489 43.0139 7.20821 43.9688L7.74894 44.5417H15.8748L19.6664 44.627V40.5313H7.20821Z" fill="#FFA2A5"/>
<path d="M43.4984 23.9167L39.1652 22.1979L45.1243 18.1875L47.8317 25.0625L43.4984 23.9167Z" fill="#FFA2A5"/>
<path d="M17.5002 1H49.9997V56H44.0419M18.5839 50.8438V56M18.5839 50.8438H15.8748M18.5839 50.8438L41.3327 50.3318M18.5839 56H7.20865C5.7026 54.7256 3.69405 52.3085 5.58408 51.2758M18.5839 56H44.0419M44.0419 56C45.3418 53.7083 44.5835 51.2257 44.0419 50.2708L41.3327 50.3318M5.58408 51.2758C5.95991 51.0704 6.4899 50.9198 7.20865 50.8438H15.8748M5.58408 51.2758C3.23689 49.604 -0.265836 45.9167 4.50076 44.5417H7.74894M15.8748 44.5417V49.6979V50.8438M15.8748 44.5417L19.6664 44.627M15.8748 44.5417H7.74894M41.3327 45.1146V50.3318M41.3327 45.1146L19.6664 44.627M41.3327 45.1146C46.966 45.2414 46.2077 41.7299 45.1243 39.9583L26.1653 40.3943M7.20821 40.5313C4.60825 40.9896 6.12489 43.0139 7.20821 43.9688L7.74894 44.5417M7.20821 40.5313H19.6664M7.20821 40.5313C3.77827 38.2396 -1.56514 33.5417 4.50076 33.0833H26.1653C27.6098 34.0932 29.632 36.9691 26.1653 40.3943M19.6664 40.5313V44.627M19.6664 40.5313H20.208L26.1653 40.3943M30.4986 30.7917L33.7486 27.3542L40.2485 31.9375L43.4984 23.9167M43.4984 23.9167L39.1652 22.1979L45.1243 18.1875L47.8317 25.0625L43.4984 23.9167ZM30.4986 7.875C31.7986 7.875 41.5123 7.875 46.2067 7.875M32.6652 14.75H46.7484" stroke="#333333" stroke-width="2"/>
<path d="M29.7324 16.9884C29.7324 25.5692 23.1624 32.4767 15.1162 32.4767C7.06995 32.4767 0.5 25.5692 0.5 16.9884C0.5 8.40758 7.06995 1.5 15.1162 1.5C23.1624 1.5 29.7324 8.40758 29.7324 16.9884Z" fill="#8AD4FF" stroke="black"/>
</svg>