<svg width="124" height="68" viewBox="0 0 124 68" fill="none" xmlns="http://www.w3.org/2000/svg">
<path d="M25.5645 16.678L24.7949 16.687L25.2847 55.5926L26.0543 55.5835L25.5645 16.678Z" fill="#CACACA"/>
<path d="M3.72427 17.5059L3.41992 18.189L13.6171 22.4318L13.9215 21.7487L3.72427 17.5059Z" fill="#CACACA"/>
<path d="M2.86928 27.4424L2.56494 28.1255L12.7622 32.3683L13.0665 31.6852L2.86928 27.4424Z" fill="#6C63FF"/>
<path d="M0.759521 6.18152L1.53463 42.3172L25.3781 54.6798L68.8 47.0721L69.8665 9.5098L42.3398 0L0.759521 6.18152Z" fill="#398AB9"/>
<path d="M25.2095 55.4609L0.795537 42.9341L0 6.24518L42.4516 0L42.542 0.0308447L70.6258 9.63225L69.5318 47.7762L25.2095 55.4609ZM1.55539 42.4787L25.335 54.6801L68.7798 47.1475L69.8408 10.1562L42.3771 0.766577L0.783701 6.88554L1.55539 42.4787Z" fill="#CACACA"/>
<path d="M24.6908 16.4038L24.5957 16.3675L0 6.94372L0.286327 6.24902L24.7874 15.6361L70.5196 9.55781L70.6258 10.2986L24.6908 16.4038Z" fill="#CACACA"/>
<path d="M19.5202 13.2793L12.9102 10.8305L54.9033 4.68677L61.5128 7.13556L19.5202 13.2793Z" fill="#CACACA"/>
<path d="M42.5273 11.751L43.4307 53.0495L71.2042 67.178L121.784 58.4836L123.026 15.555L90.9618 4.68677L42.5273 11.751Z" fill="#F2575D"/>
<path d="M71.0436 67.9592L42.6919 53.4916L41.7681 11.1185L91.0667 3.90576L91.1718 3.94139L123.785 15.0303L122.515 59.0839L71.0436 67.9592ZM43.5743 52.9657L71.1893 67.0575L121.641 58.3578L122.873 15.6355L90.9801 4.79113L42.6781 11.8581L43.5743 52.9657Z" fill="#3F3D56"/>
<path d="M70.1761 22.6529L70.067 22.6108L41.7681 11.7377L42.0978 10.9358L70.2871 21.7668L122.904 14.7536L123.026 15.6083L70.1761 22.6529Z" fill="#3F3D56"/>
<path d="M71.0152 22.3398L70.1218 22.3503L70.6903 67.5134L71.5837 67.5029L71.0152 22.3398Z" fill="#3F3D56"/>
<path d="M65.0912 19.5284L56.9563 16.6211L105.777 9.37354L113.913 12.2808L65.0912 19.5284Z" fill="#3F3D56"/>
<path d="M42.4314 23.5796L42.0781 24.3726L53.9155 29.2978L54.2688 28.5048L42.4314 23.5796Z" fill="#3F3D56"/>
</svg>
