<svg width="796" height="521" viewBox="0 0 796 521" fill="none" xmlns="http://www.w3.org/2000/svg">
<path d="M692.749 371.533C690.285 358.84 666.693 356.728 666.693 356.728C666.693 356.728 680.477 333.74 670.701 323.328C660.927 312.918 638.461 337.368 638.461 337.368C638.461 337.368 631.045 321.92 620.013 337.368C620.013 337.368 601.631 323.329 585.732 330.545C574.379 335.7 576.052 349.312 577.936 356.676H265.728C265.464 356.129 265.136 355.601 264.723 355.101C254.177 342.373 223.591 348.926 223.591 348.926C223.591 348.926 236.365 317.38 215.301 307.818C194.236 298.26 169.88 316.86 169.88 316.86C155.264 296.388 145.436 316.86 145.436 316.86C145.436 316.86 115.672 284.464 102.719 298.256C89.7665 312.05 108.029 342.509 108.029 342.509C108.029 342.509 76.7706 345.309 73.5052 362.126C70.2426 378.942 127.588 396.402 127.588 396.402L651.933 397.402C651.933 397.402 695.213 384.225 692.749 371.533" fill="#70C794"/>
<path d="M157.06 391.231C147.612 364.449 133.248 339.411 114.899 317.735C114.661 317.455 114.242 317.421 113.962 317.658C113.682 317.895 113.647 318.314 113.884 318.594C132.128 340.146 146.412 365.045 155.807 391.674C155.928 392.019 156.308 392.202 156.655 392.079C157 391.958 157.183 391.578 157.06 391.231Z" fill="#E56A46"/>
<path d="M157.085 392.434C157.815 371.384 160.005 350.384 163.639 329.637C163.701 329.276 163.46 328.93 163.099 328.868C162.737 328.804 162.392 329.046 162.329 329.408C158.685 350.214 156.488 371.277 155.757 392.388C155.744 392.756 156.032 393.062 156.399 393.076C156.765 393.089 157.073 392.801 157.085 392.434" fill="#E56A46"/>
<path d="M151.056 377.182C137.4 370.408 122.736 365.672 107.697 363.176C107.335 363.116 106.992 363.361 106.932 363.724C106.872 364.085 107.117 364.428 107.479 364.488C122.388 366.961 136.927 371.657 150.465 378.373C150.795 378.536 151.193 378.401 151.356 378.073C151.52 377.744 151.385 377.345 151.056 377.182" fill="#E56A46"/>
<path d="M137.491 349.424C140.256 342.994 142.147 336.192 143.096 329.257C143.145 328.893 142.892 328.558 142.528 328.508C142.164 328.458 141.829 328.713 141.779 329.077C140.845 335.892 138.987 342.58 136.269 348.898C136.124 349.236 136.28 349.626 136.617 349.772C136.955 349.917 137.345 349.761 137.491 349.424" fill="#E56A46"/>
<path d="M628.741 393.973C636.262 372.653 647.697 352.718 662.305 335.463C662.494 335.239 662.466 334.903 662.242 334.713C662.018 334.523 661.682 334.551 661.493 334.775C646.801 352.13 635.301 372.175 627.737 393.618C627.638 393.895 627.784 394.199 628.061 394.297C628.338 394.395 628.642 394.25 628.741 393.973" fill="#E56A46"/>
<path d="M628.78 394.544C628.196 377.641 626.436 360.78 623.518 344.12C623.468 343.83 623.192 343.637 622.902 343.688C622.613 343.738 622.418 344.014 622.469 344.304C625.378 360.914 627.133 377.728 627.716 394.581C627.726 394.874 627.972 395.105 628.266 395.094C628.56 395.084 628.79 394.838 628.78 394.544" fill="#E56A46"/>
<path d="M633.016 383.322C643.855 377.945 655.496 374.186 667.432 372.208C667.721 372.16 667.917 371.885 667.869 371.596C667.821 371.305 667.548 371.109 667.257 371.157C655.217 373.154 643.477 376.945 632.543 382.369C632.28 382.5 632.172 382.82 632.303 383.082C632.433 383.346 632.752 383.453 633.016 383.322Z" fill="#E56A46"/>
<path d="M644.383 359.726C642.207 354.668 640.719 349.312 639.971 343.856C639.931 343.565 639.663 343.361 639.371 343.401C639.08 343.441 638.876 343.709 638.916 344.001C639.676 349.552 641.191 355 643.405 360.146C643.521 360.416 643.835 360.541 644.104 360.425C644.375 360.309 644.499 359.996 644.383 359.726" fill="#E56A46"/>
<path d="M129.726 305.705C129.99 305.758 130.185 305.902 130.385 306.038C130.564 306.202 130.75 306.355 130.858 306.603C130.986 306.89 130.856 307.232 130.569 307.368L130.208 307.41C129.948 307.353 129.754 307.213 129.558 307.079C129.382 306.918 129.201 306.764 129.088 306.522C128.958 306.24 129.081 305.894 129.364 305.754L129.726 305.705Z" fill="white"/>
<path d="M131.864 307.425C132.126 307.485 132.315 307.636 132.511 307.777C132.684 307.945 132.864 308.105 132.97 308.354C133.091 308.644 132.95 308.981 132.66 309.109L132.298 309.144C132.036 309.082 131.85 308.934 131.656 308.794C131.486 308.629 131.308 308.469 131.203 308.222C131.079 307.938 131.21 307.598 131.499 307.465L131.864 307.425Z" fill="white"/>
<path d="M133.95 309.202C134.213 309.265 134.397 309.422 134.589 309.568C134.758 309.74 134.934 309.905 135.033 310.156C135.149 310.446 134.999 310.782 134.706 310.902C134.586 310.952 134.458 310.96 134.342 310.928C134.083 310.862 133.899 310.709 133.71 310.565C133.543 310.393 133.371 310.229 133.27 309.982C133.153 309.696 133.293 309.358 133.585 309.232C133.705 309.18 133.834 309.172 133.95 309.202" fill="white"/>
<path d="M137.554 312.469C137.811 312.545 137.991 312.705 138.178 312.858C138.341 313.037 138.509 313.209 138.598 313.464C138.701 313.758 138.542 314.088 138.243 314.198C138.121 314.244 137.993 314.245 137.879 314.209C137.622 314.133 137.446 313.973 137.262 313.82C137.101 313.645 136.933 313.476 136.842 313.224C136.738 312.93 136.891 312.598 137.186 312.484C137.309 312.437 137.438 312.434 137.554 312.469" fill="white"/>
<path d="M140.042 314.873C140.231 314.889 140.339 314.986 140.455 315.077C140.546 315.192 140.643 315.301 140.659 315.489C140.69 315.853 140.416 316.178 140.054 316.218L139.923 316.22C139.735 316.204 139.63 316.106 139.515 316.017C139.426 315.904 139.33 315.797 139.312 315.609C139.28 315.249 139.546 314.918 139.908 314.876L140.042 314.873" fill="white"/>
<path d="M142.075 316.981C142.263 317.002 142.37 317.101 142.482 317.196C142.57 317.314 142.666 317.425 142.677 317.614C142.698 317.981 142.413 318.294 142.049 318.324L141.919 318.322C141.733 318.301 141.629 318.204 141.518 318.11C141.433 317.994 141.338 317.885 141.327 317.698C141.305 317.336 141.577 317.013 141.942 316.98L142.075 316.981" fill="white"/>
<path d="M105.872 298.592C107.671 297.444 109.821 297.029 111.901 297.013C114.024 297.068 116.056 297.634 117.959 298.4C119.858 299.196 121.651 300.18 123.378 301.253C125.099 302.334 126.743 303.526 128.328 304.784C128.546 304.96 128.577 305.282 128.397 305.506C128.225 305.721 127.92 305.765 127.704 305.612C126.076 304.457 124.417 303.35 122.717 302.326C121.021 301.3 119.271 300.368 117.456 299.63C115.655 298.878 113.761 298.342 111.879 298.273C109.973 298.256 108.044 298.554 106.407 299.48C106.18 299.6 105.867 299.505 105.708 299.266C105.557 299.037 105.631 298.74 105.872 298.592" fill="white"/>
<path d="M105.27 300.148C105.207 300.368 105.046 300.465 104.94 300.628C104.803 300.757 104.672 300.89 104.452 300.95C104.152 301.034 103.799 300.876 103.694 300.566L103.678 300.262C103.731 300.022 103.874 299.854 104.008 299.681C104.158 299.524 104.356 299.412 104.596 299.36C104.938 299.297 105.231 299.533 105.287 299.854L105.27 300.148" fill="white"/>
<path d="M103.812 301.762C103.804 301.991 103.704 302.151 103.612 302.318C103.481 302.461 103.4 302.634 103.203 302.747C102.935 302.903 102.56 302.827 102.383 302.546L102.291 302.254C102.283 302.007 102.364 301.807 102.479 301.623C102.615 301.453 102.743 301.275 102.963 301.167C103.265 301.018 103.608 301.167 103.749 301.469L103.812 301.762" fill="white"/>
<path d="M102.741 303.688C102.657 304.083 102.542 304.457 102.425 304.832L102.134 305.981C101.942 306.752 101.781 307.528 101.568 308.311C101.488 308.575 101.201 308.736 100.922 308.667C100.689 308.608 100.542 308.408 100.54 308.183C100.514 307.332 100.672 306.495 100.844 305.663L101.226 304.44C101.392 304.042 101.581 303.653 101.788 303.279C101.928 303.021 102.281 302.965 102.513 303.123C102.718 303.256 102.777 303.475 102.741 303.688" fill="white"/>
<path d="M101.396 310.349C101.513 310.474 101.516 310.593 101.529 310.713C101.508 310.833 101.496 310.952 101.369 311.069C101.083 311.336 100.624 311.342 100.348 311.061L100.335 311.045C100.216 310.918 100.213 310.793 100.201 310.668C100.223 310.544 100.235 310.42 100.361 310.301C100.647 310.03 101.103 310.053 101.38 310.33L101.396 310.349Z" fill="white"/>
<path d="M101.403 312.773C101.529 312.89 101.54 313.01 101.563 313.13C101.549 313.25 101.547 313.37 101.429 313.496C101.161 313.784 100.705 313.817 100.409 313.557L100.393 313.542C100.268 313.425 100.255 313.301 100.233 313.178C100.247 313.053 100.251 312.928 100.367 312.802C100.633 312.512 101.089 312.5 101.385 312.758L101.403 312.773" fill="white"/>
<path d="M669.984 338.818C670.047 339.096 670 339.353 669.96 339.609C669.891 339.861 669.816 340.108 669.638 340.332C669.43 340.592 669.063 340.625 668.822 340.414C668.722 340.326 668.658 340.21 668.631 340.089C668.57 339.813 668.63 339.566 668.666 339.314C668.735 339.07 668.796 338.824 668.97 338.601C669.171 338.344 669.536 338.293 669.784 338.494C669.888 338.58 669.955 338.694 669.984 338.818" fill="white"/>
<path d="M669.296 341.682C669.346 341.962 669.288 342.214 669.238 342.47C669.156 342.714 669.073 342.961 668.886 343.176C668.668 343.425 668.3 343.445 668.065 343.224C667.969 343.133 667.91 343.014 667.89 342.89C667.841 342.612 667.908 342.368 667.956 342.117C668.038 341.876 668.112 341.633 668.294 341.418C668.506 341.168 668.874 341.136 669.113 341.35C669.213 341.438 669.274 341.557 669.296 341.682" fill="white"/>
<path d="M668.493 344.509C668.533 344.792 668.465 345.04 668.406 345.293C668.313 345.534 668.225 345.777 668.03 345.985C667.804 346.228 667.438 346.236 667.21 346.006C667.116 345.913 667.061 345.793 667.045 345.668C667.005 345.388 667.078 345.145 667.138 344.896C667.229 344.657 667.31 344.417 667.501 344.208C667.724 343.966 668.09 343.948 668.322 344.17C668.417 344.262 668.474 344.382 668.493 344.509" fill="white"/>
<path d="M666.846 349.454C666.873 349.737 666.791 349.981 666.721 350.23C666.617 350.466 666.517 350.704 666.314 350.902C666.075 351.134 665.709 351.124 665.493 350.885C665.403 350.786 665.354 350.664 665.343 350.538C665.318 350.257 665.402 350.017 665.473 349.77C665.577 349.537 665.67 349.301 665.873 349.102C666.107 348.872 666.473 348.87 666.694 349.106C666.783 349.204 666.837 349.326 666.846 349.454" fill="white"/>
<path d="M665.537 352.92C665.593 353.108 665.543 353.256 665.503 353.406C665.429 353.545 665.363 353.686 665.192 353.785C664.861 353.974 664.453 353.854 664.281 353.521L664.231 353.396C664.175 353.206 664.227 353.062 664.268 352.913C664.34 352.776 664.404 352.637 664.573 352.537C664.9 352.348 665.309 352.46 665.485 352.792L665.537 352.92" fill="white"/>
<path d="M664.32 355.808C664.37 355.998 664.316 356.145 664.27 356.296C664.19 356.43 664.122 356.572 663.948 356.665C663.61 356.846 663.209 356.708 663.046 356.37L663 356.245C662.949 356.056 663.004 355.913 663.05 355.765C663.126 355.632 663.194 355.493 663.368 355.4C663.698 355.22 664.104 355.341 664.272 355.678L664.32 355.808" fill="white"/>
<path d="M655.171 326.63C657.037 325.516 658.999 324.492 661.16 323.912C663.271 323.318 665.775 323.172 667.88 324.409C668.931 325.042 669.692 326.08 670.111 327.16C670.529 328.25 670.709 329.374 670.8 330.488C670.911 332.716 670.639 334.901 670.212 337.033C670.148 337.326 669.871 337.517 669.591 337.456C669.32 337.396 669.147 337.129 669.191 336.853C669.504 334.754 669.681 332.636 669.543 330.578C669.377 328.568 668.789 326.453 667.185 325.542C665.585 324.568 663.445 324.592 661.479 325.132C659.481 325.626 657.555 326.536 655.688 327.529C655.433 327.672 655.112 327.585 654.971 327.336C654.836 327.093 654.927 326.784 655.171 326.63" fill="white"/>
<path d="M654.356 328.19C654.239 328.408 654.063 328.528 653.892 328.656C653.7 328.754 653.521 328.869 653.276 328.885C652.937 328.909 652.648 328.66 652.635 328.324L652.703 328.021C652.819 327.8 652.995 327.668 653.172 327.537C653.367 327.436 653.557 327.324 653.807 327.312C654.151 327.292 654.427 327.552 654.431 327.888L654.356 328.19" fill="white"/>
<path d="M652.319 329.534C652.212 329.757 652.041 329.885 651.876 330.022C651.689 330.13 651.513 330.252 651.269 330.28C650.932 330.317 650.632 330.082 650.605 329.746L650.66 329.441C650.764 329.213 650.936 329.077 651.107 328.938C651.295 328.828 651.479 328.708 651.727 328.682C652.069 328.648 652.357 328.893 652.379 329.228L652.319 329.534" fill="white"/>
<path d="M650.337 330.969C649.717 331.59 649.036 332.129 648.373 332.693C647.684 333.225 647.016 333.782 646.276 334.258C646.024 334.421 645.696 334.357 645.54 334.112C645.411 333.913 645.441 333.65 645.597 333.474C646.187 332.806 646.857 332.228 647.534 331.66C648.23 331.114 648.936 330.577 649.715 330.141C649.977 329.99 650.303 330.081 650.44 330.336C650.551 330.545 650.503 330.802 650.337 330.969" fill="white"/>
<path d="M644.615 335.729C644.602 335.907 644.511 335.999 644.427 336.099C644.319 336.175 644.219 336.257 644.042 336.256C643.635 336.253 643.318 335.925 643.337 335.517V335.495C643.35 335.315 643.443 335.221 643.529 335.12C643.638 335.044 643.739 334.961 643.919 334.963C644.327 334.965 644.637 335.3 644.617 335.704L644.615 335.729" fill="white"/>
<path d="M642.725 337.539C642.718 337.717 642.63 337.814 642.552 337.915C642.448 337.994 642.349 338.079 642.172 338.085C641.77 338.094 641.434 337.783 641.44 337.371L641.441 337.351C641.448 337.17 641.537 337.073 641.618 336.967C641.725 336.887 641.826 336.801 642.004 336.797C642.413 336.786 642.733 337.11 642.726 337.515L642.725 337.539Z" fill="white"/>
<path d="M389.711 257.394C362.588 256.968 320.04 264.313 274.653 271.657C186.42 285.936 87.4587 300.216 70.2547 257.394C48.7854 203.954 129.063 208.052 133.731 163.804C138.397 119.556 117.497 100.709 150.817 80.2249C166.224 70.7516 186.117 71.7409 206.599 72.7303C230.411 73.8796 255.019 75.0289 274.296 59.7396C310.155 31.2982 328.871 10.5756 409.592 0.742238C490.313 -9.08976 550.056 81.8636 584.593 90.8769C597.929 94.3569 613.493 93.0729 628.972 91.7889C653.58 89.7462 677.976 87.7049 692.875 104.806C717.144 132.666 638.733 194.32 655.536 220.032C672.337 245.744 713.481 259.673 697.577 295.726C681.672 331.781 467.436 258.617 389.711 257.394" fill="#B0D0E3"/>
<path d="M71.0211 232.647C71.0118 232.286 71.1078 231.955 71.2251 231.635C71.3651 231.323 71.4985 231.009 71.7358 230.738C72.0078 230.423 72.4051 230.426 72.5838 230.711C72.6571 230.829 72.6971 230.982 72.6931 231.138C72.6851 231.49 72.5718 231.794 72.4691 232.105C72.3238 232.399 72.2198 232.706 72.0038 232.979C71.7518 233.295 71.3705 233.345 71.1585 233.074C71.0705 232.962 71.0251 232.81 71.0211 232.647" fill="white"/>
<path d="M72.4892 229.069C72.5252 228.709 72.6879 228.407 72.8292 228.097C73.0079 227.807 73.1599 227.499 73.4452 227.271C73.7705 227.002 74.1479 227.045 74.2972 227.354C74.3599 227.481 74.3719 227.634 74.3439 227.786C74.2772 228.125 74.1452 228.425 74.0039 228.719C73.8386 229.002 73.6692 229.282 73.4199 229.526C73.1346 229.809 72.7532 229.809 72.5746 229.511C72.5012 229.389 72.4746 229.231 72.4892 229.069" fill="white"/>
<path d="M74.3974 225.712C74.4828 225.364 74.6641 225.074 74.8374 224.781C75.0428 224.509 75.2548 224.242 75.5508 224.038C75.8974 223.802 76.2668 223.885 76.3828 224.21C76.4308 224.345 76.4294 224.5 76.3881 224.65C76.2948 224.989 76.1028 225.255 75.9321 225.535C75.7374 225.799 75.5508 226.066 75.2681 226.274C74.9401 226.516 74.5574 226.468 74.4201 226.154C74.3641 226.024 74.3601 225.868 74.3974 225.712" fill="white"/>
<path d="M78.6269 220.339C78.7682 220.007 79.0055 219.765 79.2295 219.509C79.4762 219.277 79.7242 219.043 80.0549 218.901C80.4375 218.73 80.7882 218.874 80.8468 219.215C80.8708 219.355 80.8415 219.507 80.7735 219.647C80.6175 219.961 80.3895 220.195 80.1735 220.445C79.9335 220.669 79.6922 220.891 79.3815 221.05C79.0202 221.235 78.6562 221.119 78.5762 220.785C78.5429 220.645 78.5642 220.489 78.6269 220.339" fill="white"/>
<path d="M82.1595 217.001C82.2342 216.774 82.3889 216.639 82.5369 216.497C82.7062 216.381 82.8702 216.258 83.1049 216.225C83.5582 216.165 83.8622 216.467 83.7889 216.885L83.7502 217.035C83.6715 217.257 83.5222 217.387 83.3795 217.525C83.2142 217.637 83.0555 217.755 82.8275 217.793C82.3862 217.863 82.0635 217.585 82.1209 217.159L82.1595 217.001Z" fill="white"/>
<path d="M85.4477 214.529C85.5477 214.313 85.7131 214.19 85.8771 214.063C86.0584 213.965 86.2384 213.861 86.4771 213.854C86.9464 213.842 87.1944 214.189 87.0784 214.591L87.0224 214.735C86.9197 214.943 86.7597 215.054 86.6051 215.177C86.4291 215.269 86.2624 215.373 86.0304 215.385C85.5837 215.406 85.2917 215.099 85.3917 214.681L85.4477 214.529Z" fill="white"/>
<path d="M79.7083 266.449C78.735 265.418 77.9243 264.248 77.0297 263.146C76.2643 261.953 75.4763 260.769 74.7603 259.546C74.131 258.277 73.4577 257.026 72.8657 255.74L71.303 251.788C70.3963 249.09 69.7977 246.276 69.6203 243.424C69.4403 240.573 69.7283 237.692 70.4777 234.944C70.5857 234.564 70.8923 234.325 71.1657 234.412C71.4297 234.496 71.5683 234.841 71.4843 235.193C70.8657 237.864 70.6697 240.618 70.879 243.342C71.071 246.068 71.667 248.762 72.559 251.357L74.0523 255.22C74.6177 256.476 75.263 257.696 75.8643 258.936C76.543 260.133 77.283 261.296 77.995 262.477C78.835 263.564 79.583 264.732 80.491 265.768C80.7417 266.053 80.7697 266.434 80.551 266.62C80.339 266.8 79.9683 266.72 79.7083 266.449" fill="white"/>
<path d="M81.702 267.268C81.9807 267.385 82.162 267.593 82.3767 267.77C82.5687 267.969 82.7687 268.16 82.89 268.434C83.058 268.814 82.9073 269.176 82.5433 269.232C82.4273 269.25 82.3006 269.233 82.1793 269.19C81.8846 269.088 81.6673 268.898 81.4433 268.717C81.246 268.509 81.0673 268.281 80.958 267.989C80.81 267.584 80.9913 267.237 81.3513 267.204L81.702 267.268Z" fill="white"/>
<path d="M83.998 269.442C84.286 269.533 84.4793 269.732 84.718 269.876C84.9273 270.057 85.142 270.23 85.286 270.494C85.486 270.86 85.37 271.233 85.014 271.321C84.8993 271.349 84.7727 271.344 84.6487 271.313C84.346 271.234 84.1127 271.065 83.874 270.904C83.6487 270.725 83.458 270.506 83.3207 270.228C83.138 269.836 83.286 269.476 83.642 269.412L83.998 269.442" fill="white"/>
<path d="M86.4758 271.405C87.4652 271.978 88.4225 272.534 89.3905 273.094C90.3652 273.642 91.3318 274.182 92.3278 274.741C92.6585 274.936 92.7985 275.292 92.6372 275.533C92.5038 275.73 92.2025 275.786 91.9092 275.689C90.7878 275.348 89.7585 274.797 88.7305 274.249C87.7318 273.653 86.7585 273.004 85.8745 272.249C85.5852 271.976 85.5265 271.596 85.7425 271.401C85.9185 271.24 86.2212 271.249 86.4758 271.405" fill="white"/>
<path d="M94.9835 275.792C95.1822 275.726 95.3422 275.768 95.5062 275.802C95.6608 275.868 95.8168 275.925 95.9408 276.092C96.2248 276.472 96.1155 276.917 95.6675 277.076L95.6435 277.084C95.4435 277.148 95.2742 277.104 95.1035 277.068C94.9422 277 94.7782 276.94 94.6515 276.773C94.3648 276.385 94.5155 275.952 94.9555 275.801L94.9835 275.792Z" fill="white"/>
<path d="M98.2366 276.648C98.4219 276.561 98.5859 276.59 98.7499 276.601C98.9073 276.644 99.0659 276.676 99.2113 276.822C99.5286 277.146 99.5313 277.606 99.0886 277.838L99.0659 277.849C98.8753 277.942 98.6966 277.922 98.5193 277.91C98.3486 277.862 98.1793 277.816 98.0313 277.664C97.6966 277.313 97.7953 276.868 98.21 276.66L98.2366 276.648" fill="white"/>
<path d="M392.499 42.1437C355.094 48.225 326 65.2503 305.219 93.221C285.824 118.76 289.98 151.593 306.604 177.132C321.844 201.454 350.937 209.966 378.644 216.048C456.227 234.288 526.881 257.394 600.307 280.501C632.171 290.229 669.576 304.822 697.283 282.933L697.327 282.9C700.04 280.749 701.204 277.472 700.557 274.313C696.147 252.789 668.547 239.942 655.536 220.032C638.734 194.32 717.144 132.666 692.875 104.806C677.976 87.705 653.58 89.7463 628.972 91.789C613.494 93.073 597.929 94.357 584.593 90.877C580.499 89.809 576.046 87.577 571.25 84.5103C509.455 70.7983 460.64 31.589 392.499 42.1437" fill="#B0D0E3"/>
<path d="M667.56 299.624V298.974C635.064 298.981 579 286.466 524.807 274.352C471.452 262.432 421.069 251.162 389.845 250.666C389.051 250.654 388.229 250.648 387.411 250.648C361.744 250.65 324.084 256.781 284.213 263.264C238.244 270.742 186.152 279.209 145.803 279.209C125.936 279.21 110.399 277.206 99.0628 273.182C87.7174 269.152 80.6161 263.152 77.3894 255.13C75.1548 249.566 74.1548 244.825 74.1548 240.692C74.1641 233.409 77.2254 227.958 82.3654 223.009C87.5054 218.07 94.7281 213.71 102.864 208.814C111.24 203.768 120.217 198.369 127.427 191.382C134.636 184.401 140.079 175.793 141.273 164.432C141.809 159.345 142.021 154.568 142.021 150.084C142.021 140.566 141.069 132.373 140.256 125.374C139.604 119.762 139.051 114.986 139.051 110.781C139.053 105.682 139.853 101.452 142.233 97.4796C144.616 93.509 148.621 89.7596 155.131 85.7583C162.972 80.9383 172.753 78.853 187.989 78.8516C193.795 78.8516 199.727 79.137 206.017 79.441C212.385 79.749 218.98 80.0677 225.544 80.0677C241.541 80.0663 262.204 78.349 279.344 64.7596C282.644 62.1423 285.8 59.589 288.871 57.105C303.647 45.153 316.315 34.9117 334.163 26.561C352.012 18.2117 375.071 11.741 410.624 7.41034C414.327 6.95834 418.091 6.72896 421.815 6.72896C444.263 6.72896 465.06 14.8583 484.12 26.2956C503.177 37.7316 520.48 52.469 535.919 65.6236C554.36 81.321 568.92 93.781 582.455 97.333C588.961 99.0303 596.377 99.8516 605.117 99.8516C613.263 99.8516 621.651 99.1543 629.748 98.4836C637.811 97.813 645.408 97.1836 652.689 97.1836C661.147 97.1836 667.921 98.0756 673.456 99.9863C678.993 101.898 683.299 104.814 686.883 108.926C689.017 111.381 689.944 114.384 689.948 117.889C689.956 123.937 687.104 131.417 682.904 139.353C678.708 147.292 673.185 155.696 667.924 163.698C662.24 172.346 656.665 180.824 652.499 188.87C648.337 196.918 645.567 204.54 645.563 211.518C645.56 215.762 646.601 219.772 648.984 223.412C654.767 232.26 662.879 239.549 670.679 246.57C676.967 252.228 682.721 257.413 686.875 262.8C691.031 268.192 693.581 273.745 693.584 280.238C693.584 284.161 692.649 288.448 690.523 293.269C690.161 294.092 689.424 294.877 688.26 295.586C684.772 297.733 677.595 298.985 667.56 298.974V299.624V300.273C674.324 300.272 679.823 299.732 683.897 298.678C685.936 298.152 687.62 297.496 688.936 296.694C690.248 295.894 691.205 294.934 691.711 293.793C693.895 288.842 694.883 284.37 694.881 280.238C694.884 273.388 692.163 267.525 687.903 262.006C683.64 256.484 677.833 251.265 671.547 245.605C663.745 238.588 655.724 231.358 650.069 222.702C647.836 219.28 646.863 215.554 646.861 211.518C646.856 204.889 649.529 197.426 653.652 189.468C657.772 181.509 663.324 173.058 669.009 164.41C674.269 156.408 679.812 147.977 684.052 139.96C688.285 131.937 691.239 124.337 691.247 117.889C691.251 114.158 690.232 110.792 687.861 108.073C684.14 103.798 679.607 100.733 673.88 98.7583C668.151 96.7836 661.236 95.8863 652.689 95.8863C645.333 95.8863 637.704 96.5196 629.641 97.1903C621.544 97.861 613.189 98.553 605.117 98.553C596.457 98.553 589.155 97.7396 582.781 96.077C569.741 92.6916 555.183 80.3463 536.76 64.6357C521.32 51.481 503.968 36.6943 484.787 25.1836C465.608 13.673 444.583 5.43163 421.815 5.43163C418.037 5.43163 414.221 5.66362 410.467 6.12095C374.831 10.4623 351.623 16.9597 333.613 25.385C315.604 33.8103 302.824 44.1503 288.055 56.0957C284.984 58.5797 281.832 61.1303 278.537 63.7423C261.776 77.041 241.46 78.7717 225.544 78.769C219.023 78.769 212.447 78.453 206.08 78.145C199.789 77.841 193.837 77.5543 187.989 77.5543C172.652 77.553 162.579 79.6556 154.451 84.653C147.843 88.7156 143.653 92.593 141.121 96.8116C138.587 101.032 137.751 105.556 137.753 110.781C137.753 115.1 138.315 119.913 138.967 125.525C139.78 132.522 140.724 140.653 140.724 150.084C140.724 154.526 140.513 159.258 139.983 164.296C138.817 175.305 133.587 183.598 126.524 190.45C119.463 197.297 110.571 202.658 102.195 207.702C94.0601 212.602 86.7708 216.984 81.4668 222.073C76.1628 227.152 72.8494 233.02 72.8574 240.692C72.8574 245.036 73.9054 249.938 76.1854 255.614C79.5801 264.069 87.0761 270.313 98.6281 274.405C110.188 278.505 125.848 280.505 145.803 280.506C186.324 280.504 238.445 272.022 284.421 264.545C324.284 258.06 361.936 251.942 387.411 251.945C388.223 251.945 389.037 251.952 389.824 251.964C420.789 252.446 471.185 263.696 524.523 275.618C578.737 287.729 634.776 300.266 667.56 300.273V299.624" fill="white"/>
<path d="M616.39 365.581H199.365C196.526 365.581 194.225 363.28 194.225 360.441V134.768C194.225 131.929 196.526 129.628 199.365 129.628H616.39C619.229 129.628 621.529 131.929 621.529 134.768V360.441C621.529 363.28 619.229 365.581 616.39 365.581" fill="#F2575D"/>
<path d="M608.917 356.676H191.892C189.054 356.676 186.753 354.373 186.753 351.536V125.862C186.753 123.024 189.054 120.722 191.892 120.722H608.917C611.756 120.722 614.056 123.024 614.056 125.862V351.536C614.056 354.373 611.756 356.676 608.917 356.676" fill="#398AB9"/>
<path d="M603.753 347.769H182.112C180.548 347.769 179.281 346.501 179.281 344.937V114.648C179.281 113.084 180.548 111.817 182.112 111.817H603.753C605.317 111.817 606.584 113.084 606.584 114.648V344.937C606.584 346.501 605.317 347.769 603.753 347.769" fill="white"/>
<path d="M603.753 347.769V347.12H182.112C180.906 347.118 179.932 346.142 179.929 344.937V114.648C179.932 113.442 180.906 112.468 182.112 112.465H603.753C604.958 112.468 605.932 113.442 605.934 114.648V344.937C605.932 346.142 604.958 347.118 603.753 347.12V347.769V348.418C605.676 348.418 607.232 346.86 607.233 344.937V114.648C607.232 112.725 605.676 111.168 603.753 111.168H182.112C180.189 111.168 178.632 112.725 178.632 114.648V344.937C178.632 346.86 180.189 348.418 182.112 348.418H603.753V347.769" fill="#6F3885"/>
<path fill-rule="evenodd" clip-rule="evenodd" d="M196.668 150.526H199.883V147.31H196.668V150.526ZM203.099 149.722H230.427V148.114H203.099V149.722ZM196.668 141.684H199.883V138.469H196.668V141.684ZM203.099 140.88H230.427V139.273H203.099V140.88ZM196.668 132.842H199.883V129.628H196.668V132.842ZM203.099 132.038H230.427V130.43H203.099V132.038Z" fill="#6F3885"/>
<path d="M485.206 282.317V281.635H279.791C266.161 281.635 253.841 279.456 244.908 275.933C235.978 272.408 230.46 267.547 230.46 262.17V184.83C230.46 179.453 235.978 174.591 244.908 171.067C253.841 167.544 266.161 165.367 279.791 165.365H485.206C498.833 165.367 511.155 167.544 520.089 171.067C529.019 174.591 534.537 179.453 534.537 184.83V262.17C534.537 267.547 529.019 272.408 520.089 275.933C511.155 279.456 498.833 281.635 485.206 281.635V282.317V283C514.362 283 537.997 273.673 538 262.17V184.83C537.997 173.326 514.362 164 485.206 164H279.791C250.632 164 227 173.326 227 184.83V262.17C227 273.673 250.632 283 279.791 283H485.206V282.317" fill="#6F3885"/>
<path d="M561.074 131.018L562.401 139.866L580.127 138.601L581.775 131.149L561.074 131.018ZM560.965 141.658L558.926 128.069C558.87 127.696 558.555 127.422 558.175 127.42L554.521 127.397L554.532 125.709L558.187 125.733C559.4 125.741 560.413 126.618 560.593 127.818L560.82 129.33L583.871 129.476L581.504 140.194L560.965 141.658Z" fill="#6F3885"/>
<path d="M581.816 144.857L561.893 144.741C561.466 144.738 561.061 144.55 560.785 144.224C560.509 143.897 560.392 143.466 560.46 143.045L560.85 140.628L562.516 140.897L562.166 143.057L581.825 143.17L581.816 144.857" fill="#6F3885"/>
<path d="M566.98 148.19L566.136 148.185C566.132 148.972 565.489 149.608 564.705 149.608H564.692H564.696C563.908 149.602 563.273 148.962 563.273 148.177V148.173L562.672 148.17L563.273 148.19V148.173L562.672 148.17L563.273 148.19V148.178V148.168C563.278 147.38 563.918 146.745 564.705 146.745H564.709H564.714C565.501 146.749 566.137 147.39 566.136 148.176V148.198L566.98 148.19L566.136 148.185L566.98 148.19L567.822 148.184V148.176C567.822 146.462 566.441 145.069 564.725 145.058H564.729H564.705C562.992 145.058 561.598 146.441 561.586 148.157L562.43 148.162L561.588 148.133L561.586 148.177C561.588 149.889 562.969 151.282 564.685 151.294H564.689H564.705C566.417 151.293 567.809 149.912 567.822 148.197V148.189V148.184L566.98 148.19" fill="#6F3885"/>
<path d="M578.912 148.265L578.069 148.26C578.064 149.048 577.424 149.684 576.638 149.682H576.626H576.629C575.842 149.678 575.206 149.037 575.206 148.252V148.248L574.606 148.245L575.206 148.265V148.248L574.606 148.245L575.206 148.265V148.254V148.242C575.212 147.456 575.852 146.82 576.638 146.82H576.642L576.645 146.821H576.648C577.433 146.825 578.069 147.465 578.069 148.249V148.272L578.912 148.265L578.069 148.26L578.912 148.265L579.756 148.26V148.249C579.754 146.536 578.372 145.145 576.658 145.134H576.664H576.638C574.925 145.134 573.531 146.516 573.521 148.232L574.364 148.237L573.521 148.208L573.52 148.252C573.521 149.965 574.902 151.358 576.618 151.369H576.622H576.638C578.352 151.369 579.744 149.986 579.756 148.27V148.261V148.26L578.912 148.265" fill="#6F3885"/>
<path d="M332.402 291.221H454.345C454.722 291.221 455.029 290.914 455.029 290.537C455.029 290.161 454.722 289.854 454.345 289.854H332.402C332.025 289.854 331.72 290.161 331.72 290.537C331.72 290.914 332.025 291.221 332.402 291.221" fill="#6F3885"/>
<path d="M253.086 210.901C253.154 209.262 255.801 209.372 255.733 211.01L254.682 220.966C254.684 222.404 253.173 222.404 253.173 220.966L253.086 210.901" fill="#E4E4E3"/>
<path d="M546.85 213.764L543.16 219.737C542.766 220.58 540.477 219.513 540.87 218.67L544.517 211.96C545.21 211.064 547.544 212.868 546.85 213.764" fill="#E4E4E3"/>
<path d="M329.995 145.985V146.124C329.995 146.814 329.824 147.11 329.427 147.11H325.567C325.169 147.11 325 146.814 325 146.124V145.985C325 145.296 325.169 145 325.567 145H329.427C329.824 145 329.995 145.296 329.995 145.985Z" fill="#6F3885"/>
<path d="M348.253 147.813C348.253 148.583 348.423 149.511 349.161 149.511C349.899 149.511 350.051 148.583 350.051 147.813C350.051 147.044 349.899 146.195 349.161 146.195C348.423 146.195 348.253 147.044 348.253 147.813ZM351.999 147.813C351.999 150.556 350.485 151.128 349.161 151.128C347.836 151.128 346.323 150.556 346.323 147.813C346.323 145.071 347.836 144.497 349.161 144.497C350.485 144.497 351.999 145.071 351.999 147.813ZM349.956 137.395L349.861 137.671L343.107 150.457C342.916 150.812 342.672 151.009 342.273 151.009H341.441C341.177 151.009 341.044 150.891 341.044 150.753L341.139 150.457L347.893 137.671C348.083 137.316 348.328 137.119 348.727 137.119H349.559C349.824 137.119 349.956 137.237 349.956 137.395V137.395ZM340.931 140.315C340.931 141.084 341.101 142.012 341.839 142.012C342.576 142.012 342.728 141.084 342.728 140.315C342.728 139.545 342.576 138.696 341.839 138.696C341.101 138.696 340.931 139.545 340.931 140.315ZM344.677 140.315C344.677 143.057 343.163 143.629 341.839 143.629C340.515 143.629 339 143.057 339 140.315C339 137.572 340.515 137 341.839 137C343.163 137 344.677 137.572 344.677 140.315Z" fill="#6F3885"/>
<path d="M792.391 520.87H3.11523C0.1751 520.87 -1.12224 517.167 1.17456 515.332L42.5746 482.261H752.932L794.332 515.332C796.628 517.167 795.332 520.87 792.391 520.87" fill="#E7D8EA"/>
<path d="M789.368 482.261H6.13867L127.588 385.249C130.049 383.282 133.184 382.201 136.427 382.201H659.08C662.323 382.201 665.457 383.282 667.919 385.249L789.368 482.261" fill="#398AB9"/>
<path d="M711.728 473.586H83.7783L172.188 390.877H623.32L711.728 473.586Z" fill="#9A54AF"/>
<path d="M704.026 473.586H91.4795L177.72 394.426H617.786L704.026 473.586Z" fill="white"/>
<path d="M770.28 508.288H25.2272C14.6849 508.288 6.13867 499.742 6.13867 489.201V482.261H789.368V489.201C789.368 499.742 780.821 508.288 770.28 508.288Z" fill="#F2575D"/>
<path d="M6.13867 493.032H789.368V491.734H6.13867V493.032Z" fill="white"/>
<path d="M269.335 499.992H162.197C158.68 499.992 155.828 497.141 155.828 493.624V492.68C155.828 489.161 158.68 486.31 162.197 486.31H269.335C272.852 486.31 275.704 489.161 275.704 492.68V493.624C275.704 497.141 272.852 499.992 269.335 499.992Z" fill="#6F3885"/>
<path d="M270.049 499.992H161.483C158.36 499.992 155.828 497.461 155.828 494.339V493.501C155.828 490.377 158.36 487.846 161.483 487.846H270.049C273.172 487.846 275.704 490.377 275.704 493.501V494.339C275.704 497.461 273.172 499.992 270.049 499.992Z" fill="#E2B1DD"/>
<path d="M653.782 406.073L698.294 445.428H722.126V442.296L653.782 402.938V406.073Z" fill="#9A54AF"/>
<path d="M653.782 402.938L698.294 442.295H722.126L672.657 402.938H653.782Z" fill="#FCEDF7"/>
<path d="M128.931 421.726C128.931 426.229 120.547 429.878 110.205 429.878C99.8635 429.878 91.4795 426.229 91.4795 421.726C91.4795 417.224 99.8635 413.574 110.205 413.574C120.547 413.574 128.931 417.224 128.931 421.726Z" fill="white"/>
<path d="M123.32 421.121C123.32 423.94 117.448 426.225 110.205 426.225C102.964 426.225 97.0918 423.94 97.0918 421.121C97.0918 418.304 102.964 416.018 110.205 416.018C117.448 416.018 123.32 418.304 123.32 421.121Z" fill="#6F3885"/>
<path d="M111.76 419.967C111.76 420.938 109.736 421.726 107.24 421.726C104.743 421.726 102.719 420.938 102.719 419.967C102.719 418.995 104.743 418.207 107.24 418.207C109.736 418.207 111.76 418.995 111.76 419.967Z" fill="white"/>
<path d="M634.281 91.1904H202.841C192.987 91.1904 184.999 83.2024 184.999 73.3478V70.7037C184.999 60.8491 192.987 52.8611 202.841 52.8611H634.281C644.134 52.8611 652.122 60.8491 652.122 70.7037V73.3478C652.122 83.2024 644.134 91.1904 634.281 91.1904Z" fill="#E2B1DD"/>
<path d="M133.979 72.0251C133.979 82.6091 125.399 91.1904 114.815 91.1904C104.231 91.1904 95.6494 82.6091 95.6494 72.0251C95.6494 61.4411 104.231 52.8611 114.815 52.8611C125.399 52.8611 133.979 61.4411 133.979 72.0251Z" fill="#E2B1DD"/>
<path d="M178.654 72.0251C178.654 82.6091 170.074 91.1904 159.49 91.1904C148.904 91.1904 140.324 82.6091 140.324 72.0251C140.324 61.4411 148.904 52.8611 159.49 52.8611C170.074 52.8611 178.654 61.4411 178.654 72.0251Z" fill="#E2B1DD"/>
<path d="M678.692 51.8968L685.025 65.4342L699.856 67.2728L688.939 77.4795L691.773 92.1528L678.692 84.9235L665.613 92.1528L668.447 77.4795L657.528 67.2728L672.36 65.4342L678.692 51.8968" fill="#E2B1DD"/>
<path d="M634.281 84.5596H202.841C192.987 84.5596 184.999 76.5716 184.999 66.7169V64.0729C184.999 54.2182 192.987 46.2302 202.841 46.2302H634.281C644.134 46.2302 652.122 54.2182 652.122 64.0729V66.7169C652.122 76.5716 644.134 84.5596 634.281 84.5596Z" fill="white"/>
<path d="M634.281 84.5597V83.9103H202.841C198.09 83.9103 193.797 81.9876 190.684 78.8743C187.57 75.761 185.648 71.4677 185.648 66.717V64.073C185.648 59.3223 187.57 55.029 190.684 51.9157C193.797 48.8023 198.09 46.8797 202.841 46.8797H634.281C639.03 46.8797 643.325 48.8023 646.438 51.9157C649.55 55.029 651.473 59.3223 651.474 64.073V66.717C651.473 71.4677 649.55 75.761 646.438 78.8743C643.325 81.9876 639.03 83.9103 634.281 83.9103V84.5597V85.209C644.493 85.209 652.772 76.9303 652.772 66.717V64.073C652.772 53.8597 644.493 45.581 634.281 45.581H202.841C192.628 45.581 184.35 53.8597 184.349 64.073V66.717C184.35 76.9303 192.628 85.209 202.841 85.209H634.281V84.5597Z" fill="#6F3885"/>
<path d="M297.747 71.5048C298.521 71.2741 299.087 70.6674 299.087 69.7461C299.087 68.8874 298.521 68.3634 297.747 67.9874V71.5048ZM295.277 62.9834C295.277 63.7994 295.863 64.2821 296.679 64.6794V61.4341C295.675 61.6648 295.277 62.2714 295.277 62.9834V62.9834ZM297.747 58.3368V59.0474C299.443 59.1101 301.076 59.7381 301.076 60.3874C301.076 60.8688 300.511 61.9581 300.113 61.9581C299.82 61.9581 299.149 61.3714 297.747 61.3301V65.1394C299.548 65.8728 301.725 66.7101 301.725 69.4941C301.725 72.3421 299.924 73.7021 297.747 73.9328V74.8954C297.747 75.2728 297.58 75.4194 297.245 75.4194C296.847 75.4194 296.679 75.2728 296.679 74.8954V73.9528C293.979 73.8701 292.325 72.8861 292.325 72.2368C292.325 71.6928 293.057 70.6248 293.413 70.6248C293.749 70.6248 294.9 71.6501 296.679 71.6714V67.5061C294.837 66.8141 292.617 66.0194 292.617 63.1301C292.617 60.6394 294.44 59.3195 296.679 59.0688V58.3368C296.679 57.9594 296.847 57.8128 297.203 57.8128C297.58 57.8128 297.747 57.9594 297.747 58.3368" fill="#9EAAAA"/>
<path d="M308.152 68.1755V68.3422C308.152 68.9715 307.984 69.2222 307.608 69.2222H303.441C303.065 69.2222 302.897 68.9715 302.897 68.3422V68.1755C302.897 67.5475 303.065 67.2755 303.441 67.2755H307.608C307.984 67.2755 308.152 67.5475 308.152 68.1755Z" fill="#9EAAAA"/>
<path d="M319.792 70.4785C319.792 71.3585 319.96 72.4465 320.965 72.4465C321.97 72.4465 322.158 71.3585 322.158 70.4785C322.158 69.6198 322.012 68.5531 320.965 68.5531C319.96 68.5531 319.792 69.6198 319.792 70.4785ZM324.021 70.4785C324.021 73.3678 322.368 73.9531 320.965 73.9531C319.562 73.9531 317.929 73.3678 317.929 70.4785C317.929 67.6105 319.541 67.0038 320.965 67.0038C322.368 67.0038 324.021 67.6105 324.021 70.4785ZM321.824 59.3411L321.718 59.5918L314.118 73.3678C313.952 73.7025 313.658 73.8918 313.24 73.8918H312.612C312.318 73.8918 312.15 73.7864 312.15 73.6398L312.256 73.3678L319.834 59.5918C320.022 59.2571 320.316 59.0905 320.734 59.0905H321.362C321.656 59.0905 321.824 59.1944 321.824 59.3411ZM311.796 62.4811C311.796 63.3611 311.962 64.4491 312.968 64.4491C313.973 64.4491 314.161 63.3611 314.161 62.4811C314.161 61.6025 314.014 60.5558 312.968 60.5558C311.962 60.5558 311.796 61.6025 311.796 62.4811ZM316.024 62.4811C316.024 65.3491 314.37 65.9558 312.968 65.9558C311.565 65.9558 309.932 65.3491 309.932 62.4811C309.932 59.6131 311.544 59.0064 312.968 59.0064C314.37 59.0064 316.024 59.6131 316.024 62.4811Z" fill="#9EAAAA"/>
<path d="M278.892 75.4194H241.299C236.436 75.4194 232.496 71.4781 232.496 66.6168V66.6154C232.496 61.7541 236.436 57.8128 241.299 57.8128H278.892C283.753 57.8128 287.696 61.7541 287.696 66.6154V66.6168C287.696 71.4781 283.753 75.4194 278.892 75.4194Z" fill="#E6F1F8"/>
<path d="M133.979 65.3956C133.979 75.9796 125.399 84.5596 114.815 84.5596C104.231 84.5596 95.6494 75.9796 95.6494 65.3956C95.6494 54.8102 104.231 46.2302 114.815 46.2302C125.399 46.2302 133.979 54.8102 133.979 65.3956" fill="white"/>
<path d="M133.978 65.3957H133.33C133.329 70.5103 131.258 75.1357 127.906 78.4877C124.554 81.8397 119.929 83.9103 114.814 83.9103C109.7 83.9103 105.074 81.8397 101.722 78.4877C98.3703 75.1343 96.2983 70.5103 96.2983 65.3957C96.2983 60.2797 98.3703 55.6557 101.722 52.3023C105.074 48.9503 109.7 46.8797 114.814 46.8797C119.929 46.8797 124.554 48.9503 127.906 52.3023C131.258 55.6557 133.329 60.2797 133.33 65.3957H133.978H134.628C134.628 54.4517 125.757 45.581 114.814 45.581C103.872 45.581 95.001 54.4517 95.001 65.3957C95.001 76.3383 103.872 85.209 114.814 85.209C125.757 85.209 134.628 76.3383 134.628 65.3957H133.978Z" fill="#6F3885"/>
<path d="M178.654 65.3956C178.654 75.9796 170.074 84.5596 159.49 84.5596C148.904 84.5596 140.324 75.9796 140.324 65.3956C140.324 54.8102 148.904 46.2302 159.49 46.2302C170.074 46.2302 178.654 54.8102 178.654 65.3956" fill="white"/>
<path d="M178.653 65.3957H178.004C178.004 70.5103 175.933 75.1357 172.581 78.4877C169.229 81.8397 164.604 83.9103 159.489 83.9103C154.373 83.9103 149.749 81.8397 146.396 78.4877C143.045 75.1343 140.973 70.5103 140.973 65.3957C140.973 60.2797 143.045 55.6557 146.396 52.3023C149.749 48.9503 154.373 46.8797 159.489 46.8797C164.604 46.8797 169.229 48.9503 172.581 52.3023C175.933 55.6557 178.004 60.2797 178.004 65.3957H178.653H179.303C179.303 54.4517 170.432 45.581 159.489 45.581C148.545 45.581 139.676 54.4517 139.675 65.3957C139.676 76.3383 148.545 85.209 159.489 85.209C170.432 85.209 179.303 76.3383 179.303 65.3957H178.653Z" fill="#6F3885"/>
<path d="M678.692 45.2675L685.025 58.8034L699.856 60.6434L688.939 70.8488L691.773 85.5234L678.692 78.2928L665.613 85.5234L668.447 70.8488L657.528 60.6434L672.36 58.8034L678.692 45.2675" fill="#FBC83F"/>
<path d="M678.692 45.2677L678.104 45.541L684.589 59.4036L698.398 61.117L688.233 70.6197L690.872 84.285L678.692 77.5517L666.513 84.285L669.15 70.6197L658.985 61.117L672.796 59.4036L679.28 45.541L678.692 45.2677L678.104 45.541L678.692 45.2677L678.104 44.9917L671.924 58.2036L656.07 60.1703L667.741 71.0783L664.712 86.7637L678.692 79.0357L692.673 86.7637L689.644 71.0783L701.313 60.169L685.461 58.2036L678.692 43.7343L678.104 44.9917L678.692 45.2677" fill="#6F3885"/>
<path d="M117.187 53.7157L105.059 65.729L117.187 77.9717L119.496 75.6624L109.679 65.729L119.496 56.0264L117.187 53.7157" fill="#6F3885"/>
<path d="M157.752 77.9717L169.88 65.9597L157.752 53.7157L155.442 56.0264L165.26 65.9597L155.442 75.6624L157.752 77.9717Z" fill="#6F3885"/>
<path d="M215.301 63.281C215.31 65.1116 214.565 66.9036 213.254 68.1996C211.949 69.4903 210.142 70.2303 208.296 70.2303H208.265C204.37 70.2076 201.186 67.0636 201.17 63.2196C201.16 61.389 201.905 59.5956 203.216 58.301C204.529 57.0023 206.337 56.2583 208.204 56.2703C212.101 56.2929 215.284 59.437 215.301 63.281ZM224.381 76.4023L216.653 68.7636C217.733 67.1476 218.318 65.2196 218.309 63.2823C218.285 57.801 213.753 53.3156 208.204 53.2836C205.593 53.277 202.961 54.3276 201.088 56.1796C199.213 58.033 198.146 60.5983 198.162 63.2183C198.186 68.701 202.72 73.185 208.268 73.217H208.309C210.265 73.217 212.206 72.633 213.846 71.553L221.572 79.189L224.381 76.4023" fill="#6F3885"/>
<path fill-rule="evenodd" clip-rule="evenodd" d="M628.03 79.9688C620.272 79.9688 613.982 73.6447 613.982 65.8434C613.982 58.0421 620.272 51.7194 628.03 51.7194C635.789 51.7194 642.078 58.0421 642.078 65.8434C642.078 73.6447 635.789 79.9688 628.03 79.9688ZM626.169 65.8434L621.822 70.2127C621.308 70.7301 621.308 71.5687 621.822 72.0861C622.337 72.6034 623.17 72.6034 623.684 72.0861L628.03 67.7167L632.377 72.0861C632.892 72.6034 633.725 72.6034 634.238 72.0861C634.753 71.5687 634.753 70.7301 634.238 70.2127L629.892 65.8434L634.238 61.4741C634.753 60.9567 634.753 60.1194 634.238 59.6007C633.725 59.0847 632.892 59.0847 632.377 59.6007L628.03 63.9714L623.684 59.6007C623.17 59.0847 622.337 59.0847 621.822 59.6007C621.308 60.1194 621.308 60.9567 621.822 61.4741L626.169 65.8434Z" fill="#FFA6A9"/>
<path d="M143.002 154.573C143.002 140.254 131.392 128.645 117.074 128.645C102.754 128.645 91.1443 140.254 91.1443 154.573C91.1443 160.528 89.359 164.421 117.074 214.174C144.902 164.196 142.978 157.641 143.002 154.573" fill="#F14A3B"/>
<path d="M117.072 166.646C110.745 166.646 105.614 161.516 105.614 155.189C105.614 148.862 110.745 143.733 117.072 143.733C123.398 143.733 128.528 148.862 128.528 155.189C128.528 161.516 123.398 166.646 117.072 166.646Z" fill="white"/>
<path d="M468.621 205.058L455.029 201.713V184.901C455.028 173.395 445.701 164.069 434.196 164.069H391.056L391.682 161.526L392.161 159.579L400.577 125.383C401.45 121.837 404.628 119.462 408.124 119.462C408.738 119.462 409.365 119.537 409.989 119.69L420.704 122.326L505.425 143.178C508.758 143.998 510.794 147.365 509.974 150.697L506.684 164.069H489.453C477.949 164.069 468.621 173.395 468.621 184.901V205.058" fill="#D8C2DC"/>
<path d="M453.663 201.377L393.527 186.577C389.356 185.55 386.808 181.337 387.833 177.166L390.72 165.434H434.196C439.573 165.436 444.436 167.613 447.961 171.137C451.485 174.661 453.663 179.524 453.663 184.901V201.377" fill="#D8C2DC"/>
<path d="M455.029 201.713L453.662 201.377V184.901C453.662 179.524 451.485 174.661 447.961 171.137C444.436 167.613 439.573 165.436 434.196 165.434H390.72L391.056 164.069H434.196C445.701 164.069 455.028 173.396 455.029 184.901V201.713Z" fill="#6F3885"/>
<path d="M489.31 209.918C488.696 209.918 488.07 209.845 487.445 209.692L469.986 205.394V184.901C469.986 179.524 472.165 174.661 475.689 171.137C479.214 167.613 484.076 165.436 489.453 165.434H506.348L505.857 167.428L501.184 186.412L497.98 199.432L496.856 203.998C496.534 205.302 495.902 206.448 495.057 207.376C494.437 207.617 494.302 207.957 494.302 207.957C494.302 207.957 494.086 208.164 493.746 208.524C492.465 209.414 490.921 209.918 489.31 209.918" fill="#D8C2DC"/>
<path d="M469.986 205.395L468.621 205.059V184.901C468.621 173.396 477.949 164.069 489.453 164.069H506.684L506.348 165.435H489.453C484.076 165.436 479.214 167.613 475.689 171.137C472.165 174.661 469.986 179.524 469.986 184.901V205.395" fill="#6F3885"/>
<path d="M494.389 208.025C494.332 207.98 494.303 207.957 494.303 207.957C494.303 207.957 494.437 207.617 495.057 207.376C494.847 207.606 494.624 207.822 494.389 208.025" fill="#496E66"/>
<path d="M493.747 208.523C494.087 208.163 494.303 207.957 494.303 207.957C494.303 207.957 494.332 207.979 494.389 208.025C494.184 208.202 493.969 208.369 493.747 208.523Z" fill="#6F9B91"/>
<path d="M485.93 206.596L392.011 183.481C387.839 182.454 385.291 178.241 386.318 174.07L399.062 122.288C400.089 118.117 404.302 115.568 408.473 116.593L502.391 139.708C506.562 140.734 509.111 144.949 508.085 149.12L495.339 200.902C494.314 205.073 490.101 207.622 485.93 206.596Z" fill="#FAB63E"/>
<path d="M405.512 135.25C402.317 143.773 403.382 155.49 411.904 159.752C442.426 177.936 474.928 176.325 504.341 164.332L508.458 147.601C509.28 144.269 507.242 140.902 503.909 140.082L419.188 119.23C412.841 122.834 408.276 129.033 405.512 135.25Z" fill="#FBD03E"/>
<path d="M496.465 196.335L387.442 169.503L390.646 156.483L499.669 183.315L496.465 196.335" fill="#6F3885"/>
<path d="M437.92 138.504L404.976 130.396C403.301 129.984 402.28 128.293 402.69 126.62L402.801 126.17C403.213 124.497 404.904 123.474 406.577 123.886L439.521 131.993C441.196 132.405 442.218 134.096 441.806 135.77L441.696 136.218C441.284 137.893 439.593 138.916 437.92 138.504Z" fill="#6F3885"/>
<path d="M466.805 152.517L401.858 136.533C401.021 136.326 400.509 135.481 400.716 134.645L400.772 134.42C400.977 133.582 401.822 133.072 402.66 133.277L467.606 149.261C468.444 149.468 468.954 150.313 468.749 151.149L468.693 151.374C468.488 152.212 467.642 152.722 466.805 152.517Z" fill="#6F3885"/>
<path d="M453.495 164.869L451.377 164.348C450.2 164.058 449.481 162.87 449.771 161.693L449.848 161.377C450.137 160.201 451.327 159.481 452.504 159.772L454.62 160.292C455.796 160.582 456.516 161.77 456.225 162.948L456.149 163.262C455.859 164.44 454.671 165.158 453.495 164.869" fill="white"/>
<path d="M461.612 166.868L459.495 166.346C458.317 166.057 457.599 164.868 457.889 163.692L457.965 163.376C458.256 162.198 459.445 161.48 460.62 161.769L462.737 162.29C463.915 162.58 464.633 163.768 464.344 164.945L464.267 165.261C463.977 166.437 462.788 167.157 461.612 166.868Z" fill="white"/>
<path d="M469.728 168.865L467.612 168.344C466.436 168.054 465.716 166.867 466.005 165.689L466.084 165.373C466.373 164.197 467.561 163.477 468.739 163.767L470.855 164.288C472.032 164.577 472.751 165.766 472.461 166.942L472.384 167.259C472.095 168.436 470.905 169.155 469.728 168.865Z" fill="white"/>
<path d="M488.913 144.848C487.954 143.174 486.345 141.876 484.323 141.377C480.405 140.414 476.449 142.808 475.485 146.725C474.521 150.642 476.914 154.598 480.833 155.564C482.853 156.061 484.882 155.658 486.508 154.62C485.61 153.049 485.285 151.148 485.752 149.252C486.218 147.356 487.389 145.822 488.913 144.848" fill="#F14A3B"/>
<path d="M494.589 143.905C492.568 143.406 490.54 143.809 488.913 144.848C489.812 146.42 490.137 148.321 489.67 150.216C489.204 152.112 488.033 153.645 486.508 154.62C487.466 156.294 489.077 157.592 491.098 158.09C495.016 159.054 498.973 156.66 499.937 152.742C500.9 148.825 498.506 144.869 494.589 143.905" fill="#F14A3B"/>
<path d="M286.896 219V197.182H295.504C297.159 197.182 298.569 197.498 299.734 198.13C300.898 198.755 301.786 199.625 302.397 200.74C303.015 201.848 303.324 203.126 303.324 204.575C303.324 206.024 303.011 207.303 302.386 208.411C301.761 209.518 300.856 210.381 299.67 210.999C298.491 211.617 297.063 211.926 295.387 211.926H289.901V208.229H294.641C295.529 208.229 296.261 208.077 296.836 207.771C297.418 207.459 297.852 207.029 298.136 206.482C298.427 205.928 298.572 205.293 298.572 204.575C298.572 203.851 298.427 203.219 298.136 202.679C297.852 202.132 297.418 201.71 296.836 201.411C296.254 201.106 295.515 200.953 294.62 200.953H291.509V219H286.896ZM310.773 197.182V219H306.235V197.182H310.773ZM321.866 219.32C320.183 219.32 318.734 218.979 317.52 218.297C316.312 217.608 315.382 216.635 314.728 215.378C314.075 214.114 313.748 212.619 313.748 210.893C313.748 209.21 314.075 207.732 314.728 206.461C315.382 205.19 316.301 204.199 317.488 203.489C318.681 202.778 320.08 202.423 321.685 202.423C322.765 202.423 323.77 202.597 324.7 202.945C325.637 203.286 326.454 203.801 327.15 204.49C327.853 205.179 328.4 206.045 328.791 207.089C329.181 208.126 329.377 209.341 329.377 210.733V211.979H315.559V209.167H325.105C325.105 208.513 324.963 207.935 324.679 207.43C324.395 206.926 324 206.532 323.496 206.248C322.999 205.957 322.42 205.811 321.76 205.811C321.071 205.811 320.46 205.971 319.927 206.29C319.402 206.603 318.99 207.026 318.691 207.558C318.393 208.084 318.24 208.67 318.233 209.316V211.99C318.233 212.8 318.382 213.499 318.681 214.089C318.986 214.678 319.416 215.133 319.97 215.452C320.524 215.772 321.181 215.932 321.941 215.932C322.445 215.932 322.907 215.861 323.326 215.719C323.745 215.577 324.103 215.364 324.402 215.08C324.7 214.795 324.927 214.447 325.083 214.036L329.281 214.312C329.068 215.321 328.631 216.202 327.971 216.955C327.317 217.7 326.472 218.283 325.435 218.702C324.405 219.114 323.216 219.32 321.866 219.32ZM337.005 219.309C335.961 219.309 335.03 219.128 334.213 218.766C333.397 218.396 332.75 217.853 332.275 217.136C331.806 216.411 331.571 215.509 331.571 214.43C331.571 213.521 331.738 212.757 332.072 212.139C332.406 211.521 332.86 211.024 333.436 210.648C334.011 210.271 334.664 209.987 335.396 209.795C336.135 209.604 336.909 209.469 337.718 209.391C338.67 209.291 339.437 209.199 340.02 209.114C340.602 209.021 341.025 208.886 341.287 208.709C341.55 208.531 341.681 208.268 341.681 207.92V207.857C341.681 207.182 341.468 206.66 341.042 206.29C340.623 205.921 340.027 205.737 339.252 205.737C338.436 205.737 337.786 205.918 337.303 206.28C336.82 206.635 336.5 207.082 336.344 207.622L332.147 207.281C332.36 206.287 332.779 205.428 333.404 204.703C334.029 203.972 334.835 203.411 335.822 203.02C336.816 202.622 337.967 202.423 339.274 202.423C340.183 202.423 341.053 202.53 341.884 202.743C342.722 202.956 343.464 203.286 344.11 203.734C344.764 204.181 345.279 204.756 345.655 205.46C346.032 206.156 346.22 206.99 346.22 207.963V219H341.916V216.731H341.788C341.525 217.242 341.174 217.693 340.733 218.084C340.293 218.467 339.764 218.769 339.146 218.989C338.528 219.202 337.814 219.309 337.005 219.309ZM338.304 216.177C338.972 216.177 339.561 216.045 340.073 215.783C340.584 215.513 340.985 215.151 341.277 214.696C341.568 214.241 341.713 213.727 341.713 213.151V211.415C341.571 211.507 341.376 211.592 341.127 211.67C340.886 211.741 340.613 211.809 340.307 211.873C340.002 211.93 339.696 211.983 339.391 212.033C339.086 212.075 338.809 212.114 338.56 212.15C338.027 212.228 337.562 212.352 337.164 212.523C336.767 212.693 336.458 212.924 336.238 213.215C336.017 213.499 335.907 213.854 335.907 214.281C335.907 214.898 336.131 215.371 336.578 215.697C337.033 216.017 337.608 216.177 338.304 216.177ZM363.356 207.303L359.201 207.558C359.13 207.203 358.977 206.884 358.743 206.599C358.509 206.308 358.2 206.077 357.816 205.907C357.44 205.729 356.989 205.641 356.463 205.641C355.76 205.641 355.167 205.79 354.684 206.088C354.201 206.379 353.96 206.77 353.96 207.26C353.96 207.651 354.116 207.981 354.428 208.251C354.741 208.521 355.277 208.737 356.037 208.901L358.999 209.497C360.589 209.824 361.776 210.349 362.557 211.074C363.338 211.798 363.729 212.75 363.729 213.929C363.729 215.001 363.413 215.942 362.781 216.752C362.156 217.562 361.296 218.194 360.202 218.648C359.116 219.096 357.862 219.32 356.442 219.32C354.276 219.32 352.55 218.869 351.264 217.967C349.986 217.058 349.237 215.822 349.016 214.259L353.48 214.025C353.615 214.685 353.942 215.19 354.46 215.538C354.979 215.879 355.643 216.049 356.452 216.049C357.248 216.049 357.887 215.896 358.37 215.591C358.86 215.278 359.109 214.877 359.116 214.387C359.109 213.975 358.935 213.638 358.594 213.375C358.253 213.105 357.727 212.899 357.017 212.757L354.183 212.192C352.585 211.873 351.396 211.319 350.614 210.531C349.84 209.742 349.453 208.737 349.453 207.516C349.453 206.464 349.737 205.559 350.305 204.799C350.881 204.039 351.687 203.453 352.724 203.041C353.768 202.629 354.989 202.423 356.388 202.423C358.455 202.423 360.082 202.86 361.268 203.734C362.461 204.607 363.157 205.797 363.356 207.303ZM374.044 219.32C372.361 219.32 370.912 218.979 369.697 218.297C368.49 217.608 367.559 216.635 366.906 215.378C366.253 214.114 365.926 212.619 365.926 210.893C365.926 209.21 366.253 207.732 366.906 206.461C367.559 205.19 368.479 204.199 369.665 203.489C370.858 202.778 372.258 202.423 373.863 202.423C374.942 202.423 375.947 202.597 376.878 202.945C377.815 203.286 378.632 203.801 379.328 204.49C380.031 205.179 380.578 206.045 380.969 207.089C381.359 208.126 381.555 209.341 381.555 210.733V211.979H367.737V209.167H377.282C377.282 208.513 377.14 207.935 376.856 207.43C376.572 206.926 376.178 206.532 375.674 206.248C375.177 205.957 374.598 205.811 373.937 205.811C373.248 205.811 372.638 205.971 372.105 206.29C371.579 206.603 371.167 207.026 370.869 207.558C370.571 208.084 370.418 208.67 370.411 209.316V211.99C370.411 212.8 370.56 213.499 370.858 214.089C371.164 214.678 371.594 215.133 372.148 215.452C372.702 215.772 373.358 215.932 374.118 215.932C374.623 215.932 375.084 215.861 375.503 215.719C375.922 215.577 376.281 215.364 376.579 215.08C376.878 214.795 377.105 214.447 377.261 214.036L381.459 214.312C381.246 215.321 380.809 216.202 380.148 216.955C379.495 217.7 378.65 218.283 377.613 218.702C376.583 219.114 375.393 219.32 374.044 219.32ZM400.281 197.182H404.84V212.395C404.84 213.801 404.524 215.023 403.892 216.06C403.267 217.097 402.397 217.896 401.282 218.457C400.167 219.018 398.871 219.298 397.393 219.298C396.08 219.298 394.886 219.067 393.814 218.606C392.749 218.137 391.903 217.427 391.278 216.475C390.653 215.516 390.344 214.312 390.352 212.864H394.943C394.957 213.439 395.075 213.933 395.295 214.344C395.522 214.749 395.831 215.062 396.222 215.282C396.619 215.495 397.088 215.602 397.628 215.602C398.196 215.602 398.675 215.481 399.066 215.239C399.464 214.991 399.766 214.629 399.972 214.153C400.178 213.677 400.281 213.091 400.281 212.395V197.182ZM415.962 219.32C414.308 219.32 412.876 218.968 411.669 218.265C410.469 217.555 409.542 216.567 408.888 215.303C408.235 214.032 407.908 212.558 407.908 210.882C407.908 209.192 408.235 207.714 408.888 206.45C409.542 205.179 410.469 204.192 411.669 203.489C412.876 202.778 414.308 202.423 415.962 202.423C417.617 202.423 419.045 202.778 420.245 203.489C421.452 204.192 422.383 205.179 423.036 206.45C423.69 207.714 424.016 209.192 424.016 210.882C424.016 212.558 423.69 214.032 423.036 215.303C422.383 216.567 421.452 217.555 420.245 218.265C419.045 218.968 417.617 219.32 415.962 219.32ZM415.984 215.804C416.737 215.804 417.365 215.591 417.869 215.165C418.374 214.732 418.754 214.142 419.009 213.396C419.272 212.651 419.403 211.802 419.403 210.85C419.403 209.898 419.272 209.05 419.009 208.304C418.754 207.558 418.374 206.969 417.869 206.536C417.365 206.102 416.737 205.886 415.984 205.886C415.224 205.886 414.585 206.102 414.066 206.536C413.555 206.969 413.168 207.558 412.905 208.304C412.649 209.05 412.521 209.898 412.521 210.85C412.521 211.802 412.649 212.651 412.905 213.396C413.168 214.142 413.555 214.732 414.066 215.165C414.585 215.591 415.224 215.804 415.984 215.804ZM426.967 219V202.636H431.506V219H426.967ZM429.247 200.527C428.572 200.527 427.994 200.303 427.511 199.856C427.035 199.401 426.797 198.858 426.797 198.226C426.797 197.601 427.035 197.065 427.511 196.617C427.994 196.163 428.572 195.935 429.247 195.935C429.922 195.935 430.497 196.163 430.973 196.617C431.456 197.065 431.697 197.601 431.697 198.226C431.697 198.858 431.456 199.401 430.973 199.856C430.497 200.303 429.922 200.527 429.247 200.527ZM439.68 209.54V219H435.141V202.636H439.466V205.523H439.658C440.02 204.572 440.628 203.819 441.48 203.265C442.332 202.704 443.366 202.423 444.58 202.423C445.716 202.423 446.707 202.672 447.552 203.169C448.398 203.666 449.055 204.376 449.523 205.3C449.992 206.216 450.226 207.31 450.226 208.581V219H445.688V209.391C445.695 208.389 445.439 207.608 444.921 207.047C444.403 206.479 443.689 206.195 442.78 206.195C442.169 206.195 441.629 206.326 441.16 206.589C440.699 206.852 440.336 207.235 440.074 207.739C439.818 208.237 439.687 208.837 439.68 209.54ZM294.205 255.32C292.55 255.32 291.119 254.968 289.911 254.265C288.711 253.555 287.784 252.567 287.131 251.303C286.477 250.032 286.151 248.558 286.151 246.882C286.151 245.192 286.477 243.714 287.131 242.45C287.784 241.179 288.711 240.192 289.911 239.489C291.119 238.778 292.55 238.423 294.205 238.423C295.859 238.423 297.287 238.778 298.487 239.489C299.695 240.192 300.625 241.179 301.278 242.45C301.932 243.714 302.259 245.192 302.259 246.882C302.259 248.558 301.932 250.032 301.278 251.303C300.625 252.567 299.695 253.555 298.487 254.265C297.287 254.968 295.859 255.32 294.205 255.32ZM294.226 251.804C294.979 251.804 295.607 251.591 296.112 251.165C296.616 250.732 296.996 250.142 297.251 249.396C297.514 248.651 297.646 247.802 297.646 246.85C297.646 245.898 297.514 245.05 297.251 244.304C296.996 243.558 296.616 242.969 296.112 242.536C295.607 242.102 294.979 241.886 294.226 241.886C293.466 241.886 292.827 242.102 292.308 242.536C291.797 242.969 291.41 243.558 291.147 244.304C290.891 245.05 290.763 245.898 290.763 246.85C290.763 247.802 290.891 248.651 291.147 249.396C291.41 250.142 291.797 250.732 292.308 251.165C292.827 251.591 293.466 251.804 294.226 251.804ZM315.703 248.033V238.636H320.241V255H315.884V252.028H315.714C315.344 252.987 314.73 253.757 313.871 254.339C313.018 254.922 311.978 255.213 310.749 255.213C309.656 255.213 308.693 254.964 307.862 254.467C307.031 253.97 306.381 253.263 305.913 252.347C305.451 251.431 305.217 250.334 305.21 249.055V238.636H309.748V248.246C309.755 249.212 310.014 249.975 310.526 250.536C311.037 251.097 311.722 251.378 312.582 251.378C313.129 251.378 313.64 251.254 314.116 251.005C314.592 250.749 314.975 250.373 315.266 249.876C315.565 249.379 315.71 248.764 315.703 248.033ZM323.872 255V238.636H328.271V241.491H328.442C328.74 240.476 329.241 239.709 329.944 239.19C330.647 238.665 331.457 238.402 332.373 238.402C332.6 238.402 332.845 238.416 333.108 238.445C333.371 238.473 333.602 238.512 333.801 238.562V242.589C333.588 242.525 333.293 242.468 332.916 242.418C332.54 242.369 332.195 242.344 331.883 242.344C331.215 242.344 330.619 242.489 330.093 242.781C329.575 243.065 329.163 243.462 328.857 243.974C328.559 244.485 328.41 245.075 328.41 245.742V255H323.872ZM347.629 245.54V255H343.09V238.636H347.416V241.523H347.607C347.97 240.572 348.577 239.819 349.429 239.265C350.281 238.704 351.315 238.423 352.529 238.423C353.666 238.423 354.656 238.672 355.502 239.169C356.347 239.666 357.004 240.376 357.472 241.3C357.941 242.216 358.176 243.31 358.176 244.581V255H353.637V245.391C353.644 244.389 353.389 243.608 352.87 243.047C352.352 242.479 351.638 242.195 350.729 242.195C350.118 242.195 349.578 242.326 349.11 242.589C348.648 242.852 348.286 243.235 348.023 243.739C347.767 244.237 347.636 244.837 347.629 245.54ZM369.21 255.32C367.527 255.32 366.078 254.979 364.863 254.297C363.656 253.608 362.725 252.635 362.072 251.378C361.419 250.114 361.092 248.619 361.092 246.893C361.092 245.21 361.419 243.732 362.072 242.461C362.725 241.19 363.645 240.199 364.831 239.489C366.025 238.778 367.424 238.423 369.029 238.423C370.108 238.423 371.113 238.597 372.044 238.945C372.981 239.286 373.798 239.801 374.494 240.49C375.197 241.179 375.744 242.045 376.135 243.089C376.525 244.126 376.721 245.341 376.721 246.733V247.979H362.903V245.167H372.449C372.449 244.513 372.306 243.935 372.022 243.43C371.738 242.926 371.344 242.532 370.84 242.248C370.343 241.957 369.764 241.811 369.103 241.811C368.414 241.811 367.804 241.971 367.271 242.29C366.745 242.603 366.333 243.026 366.035 243.558C365.737 244.084 365.584 244.67 365.577 245.316V247.99C365.577 248.8 365.726 249.499 366.025 250.089C366.33 250.678 366.76 251.133 367.314 251.452C367.868 251.772 368.525 251.932 369.284 251.932C369.789 251.932 370.25 251.861 370.669 251.719C371.088 251.577 371.447 251.364 371.745 251.08C372.044 250.795 372.271 250.447 372.427 250.036L376.625 250.312C376.412 251.321 375.975 252.202 375.314 252.955C374.661 253.7 373.816 254.283 372.779 254.702C371.749 255.114 370.559 255.32 369.21 255.32ZM382.793 255L378.34 238.636H382.931L385.467 249.631H385.616L388.258 238.636H392.765L395.449 249.567H395.588L398.081 238.636H402.662L398.219 255H393.414L390.602 244.709H390.4L387.587 255H382.793ZM418.698 243.303L414.543 243.558C414.472 243.203 414.319 242.884 414.085 242.599C413.85 242.308 413.541 242.077 413.158 241.907C412.781 241.729 412.33 241.641 411.805 241.641C411.102 241.641 410.509 241.79 410.026 242.088C409.543 242.379 409.301 242.77 409.301 243.26C409.301 243.651 409.458 243.981 409.77 244.251C410.083 244.521 410.619 244.737 411.379 244.901L414.34 245.497C415.931 245.824 417.117 246.349 417.899 247.074C418.68 247.798 419.07 248.75 419.07 249.929C419.07 251.001 418.754 251.942 418.122 252.752C417.497 253.562 416.638 254.194 415.544 254.648C414.458 255.096 413.204 255.32 411.784 255.32C409.617 255.32 407.892 254.869 406.606 253.967C405.328 253.058 404.578 251.822 404.358 250.259L408.822 250.025C408.957 250.685 409.284 251.19 409.802 251.538C410.32 251.879 410.985 252.049 411.794 252.049C412.59 252.049 413.229 251.896 413.712 251.591C414.202 251.278 414.45 250.877 414.458 250.387C414.45 249.975 414.276 249.638 413.936 249.375C413.595 249.105 413.069 248.899 412.359 248.757L409.525 248.192C407.927 247.873 406.737 247.319 405.956 246.531C405.182 245.742 404.795 244.737 404.795 243.516C404.795 242.464 405.079 241.559 405.647 240.799C406.222 240.039 407.029 239.453 408.066 239.041C409.11 238.629 410.331 238.423 411.73 238.423C413.797 238.423 415.423 238.86 416.61 239.734C417.803 240.607 418.499 241.797 418.698 243.303ZM426.467 233.182V255H421.928V233.182H426.467ZM437.559 255.32C435.876 255.32 434.427 254.979 433.213 254.297C432.006 253.608 431.075 252.635 430.422 251.378C429.768 250.114 429.442 248.619 429.442 246.893C429.442 245.21 429.768 243.732 430.422 242.461C431.075 241.19 431.995 240.199 433.181 239.489C434.374 238.778 435.773 238.423 437.378 238.423C438.458 238.423 439.463 238.597 440.393 238.945C441.331 239.286 442.148 239.801 442.844 240.49C443.547 241.179 444.094 242.045 444.484 243.089C444.875 244.126 445.07 245.341 445.07 246.733V247.979H431.253V245.167H440.798C440.798 244.513 440.656 243.935 440.372 243.43C440.088 242.926 439.694 242.532 439.189 242.248C438.692 241.957 438.113 241.811 437.453 241.811C436.764 241.811 436.153 241.971 435.621 242.29C435.095 242.603 434.683 243.026 434.385 243.558C434.086 244.084 433.934 244.67 433.927 245.316V247.99C433.927 248.8 434.076 249.499 434.374 250.089C434.68 250.678 435.109 251.133 435.663 251.452C436.217 251.772 436.874 251.932 437.634 251.932C438.138 251.932 438.6 251.861 439.019 251.719C439.438 251.577 439.797 251.364 440.095 251.08C440.393 250.795 440.621 250.447 440.777 250.036L444.974 250.312C444.761 251.321 444.324 252.202 443.664 252.955C443.01 253.7 442.165 254.283 441.128 254.702C440.099 255.114 438.909 255.32 437.559 255.32ZM456.736 238.636V242.045H446.881V238.636H456.736ZM449.118 234.716H453.657V249.972C453.657 250.391 453.721 250.717 453.849 250.952C453.976 251.179 454.154 251.339 454.381 251.431C454.616 251.523 454.885 251.57 455.191 251.57C455.404 251.57 455.617 251.552 455.83 251.516C456.043 251.474 456.206 251.442 456.32 251.42L457.034 254.798C456.807 254.869 456.487 254.95 456.075 255.043C455.663 255.142 455.162 255.202 454.573 255.224C453.479 255.266 452.52 255.121 451.697 254.787C450.88 254.453 450.244 253.935 449.79 253.232C449.335 252.528 449.111 251.641 449.118 250.568V234.716ZM468.396 238.636V242.045H458.541V238.636H468.396ZM460.779 234.716H465.317V249.972C465.317 250.391 465.381 250.717 465.509 250.952C465.637 251.179 465.814 251.339 466.041 251.431C466.276 251.523 466.546 251.57 466.851 251.57C467.064 251.57 467.277 251.552 467.49 251.516C467.703 251.474 467.867 251.442 467.98 251.42L468.694 254.798C468.467 254.869 468.147 254.95 467.735 255.043C467.323 255.142 466.823 255.202 466.233 255.224C465.139 255.266 464.181 255.121 463.357 254.787C462.54 254.453 461.904 253.935 461.45 253.232C460.995 252.528 460.771 251.641 460.779 250.568V234.716ZM478.634 255.32C476.95 255.32 475.502 254.979 474.287 254.297C473.08 253.608 472.149 252.635 471.496 251.378C470.843 250.114 470.516 248.619 470.516 246.893C470.516 245.21 470.843 243.732 471.496 242.461C472.149 241.19 473.069 240.199 474.255 239.489C475.448 238.778 476.847 238.423 478.453 238.423C479.532 238.423 480.537 238.597 481.468 238.945C482.405 239.286 483.222 239.801 483.918 240.49C484.621 241.179 485.168 242.045 485.558 243.089C485.949 244.126 486.144 245.341 486.144 246.733V247.979H472.327V245.167H481.872C481.872 244.513 481.73 243.935 481.446 243.43C481.162 242.926 480.768 242.532 480.264 242.248C479.767 241.957 479.188 241.811 478.527 241.811C477.838 241.811 477.227 241.971 476.695 242.29C476.169 242.603 475.757 243.026 475.459 243.558C475.161 244.084 475.008 244.67 475.001 245.316V247.99C475.001 248.8 475.15 249.499 475.448 250.089C475.754 250.678 476.183 251.133 476.737 251.452C477.291 251.772 477.948 251.932 478.708 251.932C479.213 251.932 479.674 251.861 480.093 251.719C480.512 251.577 480.871 251.364 481.169 251.08C481.468 250.795 481.695 250.447 481.851 250.036L486.048 250.312C485.835 251.321 485.399 252.202 484.738 252.955C484.085 253.7 483.24 254.283 482.203 254.702C481.173 255.114 479.983 255.32 478.634 255.32ZM489.106 255V238.636H493.506V241.491H493.676C493.975 240.476 494.475 239.709 495.178 239.19C495.882 238.665 496.691 238.402 497.607 238.402C497.835 238.402 498.08 238.416 498.343 238.445C498.605 238.473 498.836 238.512 499.035 238.562V242.589C498.822 242.525 498.527 242.468 498.151 242.418C497.774 242.369 497.43 242.344 497.117 242.344C496.45 242.344 495.853 242.489 495.328 242.781C494.809 243.065 494.397 243.462 494.092 243.974C493.794 244.485 493.644 245.075 493.644 245.742V255H489.106Z" fill="#EA0404"/>
</svg>
