<svg width="136" height="265" viewBox="0 0 136 265" fill="none" xmlns="http://www.w3.org/2000/svg">
<path d="M69.6393 259.928C33.342 259.928 3.91797 258.235 3.91797 256.147C3.91797 254.058 33.342 252.366 69.6393 252.366C105.935 252.366 135.359 254.058 135.359 256.147C135.359 258.235 105.935 259.928 69.6393 259.928Z" fill="#E7D8EA"/>
<path d="M81.7406 241.343C81.7406 241.343 84.4673 243.729 84.9246 244.407C85.3753 245.075 87.1326 250.037 87.1326 250.037C86.7566 250.752 85.534 251.793 84.3886 251.933L82.1779 249.088C82.1779 249.088 81.046 254.063 79.9046 255.677C78.5246 257.629 70.61 259.88 69.4273 259.288C69.4273 259.288 67.9739 256.389 70.4526 254.799C75.034 251.863 75.1446 245.704 75.1446 245.704C74.4699 242.075 78.4446 239.311 81.7406 241.343Z" fill="#F14A3B"/>
<path d="M68.4951 258.851C68.6365 258.778 78.6218 257.434 79.8018 254.488C80.7258 252.182 81.3391 248.294 81.8738 247.838C82.4098 247.383 84.9245 244.407 84.9245 244.407L88.9218 251.366L73.8844 264.018L68.4951 258.851Z" fill="#DF3323"/>
<path d="M73.2872 252.209L74.6498 252.499C74.6498 252.499 75.6178 251.171 75.5312 249.975L74.1992 249.509C73.9579 249.425 73.6939 249.549 73.6045 249.789L72.9445 251.591C72.8472 251.857 73.0085 252.149 73.2872 252.209Z" fill="#F4B00D"/>
<path d="M64.1939 103.576C64.1592 103.097 51.5178 159.397 51.9698 174.536C52.2512 183.967 69.8819 227.367 75.1445 245.704C76.1525 249.221 81.6258 245.095 81.1978 241.441C79.1338 223.885 79.2632 214.652 71.5152 176.5C70.3072 170.56 91.6299 117.305 89.9419 104.828C88.2552 92.3521 70.8525 85.5615 64.1939 103.576" fill="#F8A35E"/>
<path d="M71.7771 173.436C71.7757 173.436 71.7757 173.436 71.7744 173.435C71.9704 172.427 72.2544 171.23 72.6104 169.874H72.6131C72.2558 171.23 71.9717 172.428 71.7771 173.436Z" fill="#9A4970"/>
<path d="M72.9621 168.575H72.9595C74.2115 164.031 76.1288 158.022 78.2315 151.474V151.476C76.1288 158.024 74.2128 164.034 72.9621 168.575" fill="#FDDB9C"/>
<path d="M72.613 169.874H72.6104C72.7197 169.455 72.837 169.023 72.9597 168.575H72.9624C72.8384 169.023 72.7224 169.455 72.613 169.874Z" fill="#702F53"/>
<path d="M64.1934 103.576C64.1924 103.575 64.1924 103.574 64.1924 103.574C64.1924 103.574 64.1924 103.575 64.1934 103.576Z" fill="#702F53"/>
<path d="M71.7741 173.435C67.7888 171.34 63.4235 169.677 59.3328 169.677C56.7168 169.677 54.2128 170.359 51.9941 172.041C52.7155 154.131 64.0621 103.573 64.1928 103.573C64.1928 103.573 64.1928 103.575 64.1941 103.576C67.1008 95.7108 72.0554 92.5748 76.8568 92.5748C78.9714 92.5748 81.0568 93.1828 82.9248 94.2655C79.4101 96.4841 76.8088 100.707 76.6768 107.207C76.6768 107.209 76.6768 107.214 76.6768 107.218C76.6768 107.219 76.6768 107.22 76.6768 107.22C76.6768 107.223 76.6768 107.227 76.6768 107.229C76.6768 107.233 76.6768 107.237 76.6755 107.241C76.6755 107.243 76.6755 107.243 76.6755 107.243C76.6755 107.247 76.6755 107.25 76.6755 107.254C76.6755 107.255 76.6755 107.257 76.6755 107.259C76.6755 107.265 76.6755 107.273 76.6755 107.281C76.6755 107.291 76.6755 107.3 76.6755 107.309C76.6755 107.312 76.6754 107.313 76.6741 107.315C76.6728 107.42 76.6715 107.541 76.6715 107.679C76.6715 107.68 76.6715 107.68 76.6715 107.681C76.6702 107.684 76.6701 107.687 76.6701 107.69C76.6701 107.691 76.6701 107.693 76.6701 107.696C76.6701 107.707 76.6701 107.717 76.6701 107.728C76.6701 107.739 76.6701 107.748 76.6701 107.759C76.6701 107.804 76.6701 107.852 76.6701 107.9C76.6701 107.911 76.6688 107.924 76.6688 107.935C76.6688 107.937 76.6688 107.94 76.6688 107.943C76.6688 107.956 76.6688 107.968 76.6688 107.98C76.6688 107.985 76.6688 107.989 76.6688 107.993C76.6528 112.997 76.9728 133.337 78.2314 151.473C76.1288 158.021 74.2114 164.031 72.9594 168.575C72.8368 169.023 72.7194 169.455 72.6101 169.873C72.2541 171.229 71.9701 172.427 71.7741 173.435" fill="#F68A3C"/>
<path d="M99.909 245.004C99.909 245.004 101.609 248.206 101.796 249C101.98 249.784 101.858 255.047 101.858 255.047C101.252 255.582 99.7383 256.12 98.6197 255.844L97.5637 252.399C97.5637 252.399 95.9357 255.764 94.2943 256.867C92.3117 258.2 85.2437 259.835 84.0557 259.252C84.0557 259.252 82.425 256.1 85.0477 254.756C91.6117 251.388 92.193 246.736 92.193 246.736C92.8516 243.104 97.5503 241.934 99.909 245.004" fill="#F14A3B"/>
<path d="M83.25 258.938C83.406 258.92 91.4806 258.151 93.4233 256.602C95.3673 255.052 97.062 251.359 97.7247 251.123C98.386 250.887 101.795 249 101.795 249L103.057 256.924L84.5047 263.406L83.25 258.938Z" fill="#DF3323"/>
<path d="M88.4662 252.64L89.6382 253.396C89.6382 253.396 91.0141 252.498 91.3568 251.348L90.2781 250.439C90.0821 250.275 89.7915 250.299 89.6235 250.492L88.3662 251.939C88.1795 252.155 88.2262 252.486 88.4662 252.64" fill="#F4B00D"/>
<path d="M76.677 107.207C76.5784 112.107 77.3317 164.377 81.8597 178.685C84.6797 187.6 90.5997 230.395 92.6064 245.016C93.3384 250.351 99.1264 250.351 99.5464 245.256C101.109 226.32 107.23 199.984 100.281 176.845C98.5451 171.064 106.592 111.389 101.606 100.024C96.6197 88.6601 77.0437 89.0868 76.677 107.207Z" fill="#F8A35E"/>
<path d="M100.034 172.973C100.045 172.061 100.076 171.021 100.125 169.873H100.126C100.077 171.023 100.045 172.061 100.034 172.973" fill="#9A4970"/>
<path d="M100.186 168.575C101.001 152.442 104.669 118.307 102.671 104.327C104.669 118.308 101.002 152.444 100.186 168.575Z" fill="#FDDB9C"/>
<path d="M100.126 169.874H100.125C100.144 169.455 100.164 169.023 100.186 168.575C100.164 169.022 100.144 169.455 100.126 169.874Z" fill="#702F53"/>
<path d="M76.6689 107.993C76.6689 107.989 76.6689 107.985 76.6689 107.98C76.6689 107.985 76.6689 107.989 76.6689 107.993ZM76.6689 107.943C76.6689 107.94 76.6689 107.937 76.6689 107.935C76.6689 107.937 76.6689 107.94 76.6689 107.943ZM76.6702 107.9C76.6702 107.852 76.6702 107.804 76.6702 107.759C76.6702 107.804 76.6702 107.851 76.6702 107.9ZM76.6702 107.728C76.6702 107.717 76.6702 107.707 76.6702 107.696C76.6702 107.707 76.6702 107.717 76.6702 107.728ZM76.6702 107.689C76.6702 107.687 76.6703 107.684 76.6716 107.681C76.6703 107.684 76.6702 107.687 76.6702 107.689ZM76.6716 107.679C76.6716 107.541 76.6729 107.42 76.6742 107.315C76.6729 107.42 76.6716 107.541 76.6716 107.679ZM76.6756 107.309C76.6756 107.3 76.6756 107.291 76.6756 107.281C76.6756 107.291 76.6756 107.3 76.6756 107.309ZM76.6756 107.281C76.6756 107.273 76.6756 107.265 76.6756 107.259C76.6756 107.265 76.6756 107.273 76.6756 107.281ZM76.6756 107.253C76.6756 107.249 76.6756 107.247 76.6756 107.243C76.6756 107.247 76.6756 107.249 76.6756 107.253ZM76.6756 107.241C76.6769 107.237 76.6769 107.233 76.6769 107.229C76.6769 107.233 76.6769 107.237 76.6756 107.241ZM76.6769 107.22C76.6769 107.22 76.6769 107.219 76.6769 107.217C76.6769 107.219 76.6769 107.219 76.6769 107.22Z" fill="#F4732B"/>
<path d="M102.672 104.323C102.669 104.307 102.666 104.29 102.665 104.274C102.666 104.291 102.669 104.306 102.672 104.323ZM102.664 104.266C102.661 104.248 102.658 104.231 102.656 104.215C102.658 104.231 102.661 104.248 102.664 104.266ZM102.656 104.211C102.654 104.203 102.653 104.194 102.652 104.186C102.653 104.194 102.654 104.203 102.656 104.211ZM102.649 104.171C102.648 104.159 102.645 104.144 102.644 104.134C102.646 104.146 102.648 104.158 102.649 104.171ZM102.641 104.119C102.64 104.104 102.638 104.094 102.636 104.08C102.638 104.092 102.64 104.106 102.641 104.119ZM102.633 104.064C102.632 104.055 102.63 104.046 102.629 104.036C102.63 104.046 102.632 104.055 102.633 104.064ZM102.625 104.011C102.625 104.004 102.624 103.998 102.622 103.991C102.624 103.998 102.625 104.004 102.625 104.011ZM102.617 103.956C102.616 103.951 102.616 103.947 102.614 103.943C102.616 103.948 102.616 103.951 102.617 103.956ZM102.609 103.904C102.609 103.9 102.608 103.898 102.608 103.894C102.608 103.898 102.609 103.9 102.609 103.904ZM102.602 103.86C102.601 103.858 102.601 103.854 102.601 103.85C102.601 103.854 102.601 103.856 102.602 103.86ZM102.594 103.811C102.593 103.807 102.593 103.804 102.593 103.8C102.593 103.803 102.594 103.808 102.594 103.811ZM102.586 103.758C102.585 103.756 102.585 103.754 102.585 103.754C102.585 103.755 102.585 103.756 102.586 103.758Z" fill="#FDDB9C"/>
<path d="M101.633 100.084L101.632 100.083C101.632 100.084 101.632 100.083 101.633 100.084ZM101.62 100.055C101.62 100.054 101.619 100.054 101.618 100.052C101.619 100.052 101.62 100.054 101.62 100.055Z" fill="#FDDB9C"/>
<path d="M80.8525 174.577C77.3739 157.124 76.6445 115.467 76.6685 107.993C76.6685 107.989 76.6685 107.985 76.6685 107.98C76.6685 107.968 76.6685 107.956 76.6685 107.943C76.6685 107.94 76.6685 107.937 76.6685 107.935C76.6685 107.924 76.6698 107.911 76.6698 107.9C76.6698 107.851 76.6698 107.804 76.6698 107.759C76.6698 107.748 76.6698 107.739 76.6698 107.728C76.6698 107.717 76.6698 107.707 76.6698 107.696C76.6698 107.693 76.6698 107.691 76.6698 107.689C76.6698 107.687 76.6699 107.684 76.6712 107.681C76.6712 107.68 76.6712 107.68 76.6712 107.679C76.6712 107.541 76.6725 107.42 76.6738 107.315C76.6738 107.313 76.6752 107.311 76.6752 107.309C76.6752 107.3 76.6752 107.291 76.6752 107.281C76.6752 107.273 76.6752 107.265 76.6752 107.259C76.6752 107.256 76.6752 107.255 76.6752 107.253C76.6752 107.249 76.6752 107.247 76.6752 107.243C76.6752 107.243 76.6752 107.243 76.6752 107.241C76.6765 107.237 76.6765 107.233 76.6765 107.229C76.6765 107.227 76.6765 107.223 76.6765 107.22C76.6765 107.219 76.6765 107.219 76.6765 107.217C76.6765 107.213 76.6765 107.209 76.6765 107.207C76.8845 96.9614 83.2312 92.3734 89.6112 92.3734C94.5152 92.3734 99.4392 95.0854 101.606 100.024C101.61 100.033 101.614 100.043 101.618 100.052C101.619 100.053 101.619 100.053 101.619 100.055C101.623 100.064 101.627 100.073 101.631 100.083L101.633 100.084C101.637 100.093 101.641 100.104 101.645 100.113C102.037 101.039 102.346 102.269 102.584 103.753C102.584 103.753 102.585 103.756 102.586 103.757C102.587 103.772 102.59 103.785 102.592 103.8C102.592 103.804 102.593 103.807 102.594 103.811C102.597 103.824 102.598 103.836 102.6 103.849C102.6 103.853 102.601 103.857 102.602 103.86C102.603 103.871 102.606 103.883 102.607 103.893C102.607 103.897 102.609 103.9 102.609 103.904C102.61 103.916 102.613 103.929 102.614 103.943C102.615 103.947 102.615 103.951 102.617 103.956C102.618 103.967 102.621 103.979 102.622 103.991C102.623 103.997 102.625 104.004 102.625 104.011C102.626 104.019 102.627 104.028 102.628 104.036C102.63 104.045 102.631 104.055 102.633 104.064C102.634 104.069 102.635 104.075 102.635 104.08C102.638 104.093 102.639 104.104 102.64 104.119C102.642 104.123 102.643 104.128 102.643 104.133C102.644 104.144 102.647 104.159 102.648 104.171C102.65 104.176 102.65 104.18 102.651 104.185C102.652 104.193 102.654 104.203 102.655 104.211C102.655 104.212 102.655 104.213 102.655 104.215C102.658 104.231 102.661 104.248 102.663 104.265C102.663 104.268 102.663 104.271 102.664 104.273C102.666 104.289 102.669 104.307 102.671 104.323C102.671 104.324 102.671 104.325 102.671 104.327C104.669 118.307 101.001 152.441 100.186 168.575C100.163 169.023 100.143 169.455 100.125 169.873C100.075 171.021 100.044 172.061 100.034 172.973C97.4432 172.22 94.7258 171.816 92.0338 171.816C88.0952 171.816 84.2099 172.68 80.8525 174.577" fill="#F68A3C"/>
<path d="M59.8847 110.742L59.1222 120.814C59.1222 120.814 46.6353 166.509 41.2529 240.682C54.573 235.347 79.7263 253.112 117.031 245.552C117.031 245.552 131.789 150.568 106.118 108.311C80.447 66.0539 61.2357 88.3811 59.8847 110.742" fill="#B9373C"/>
<path d="M64.7873 102.391C64.7873 102.391 64.054 109.646 76.6073 110.926C89.1606 112.206 101.609 103.139 101.297 100.472C100.981 97.8055 64.7873 102.391 64.7873 102.391Z" fill="#F2575D"/>
<path d="M13.6637 83.7695C13.5677 83.7588 8.35966 83.4508 7.45833 83.6962C6.621 83.9242 4.49301 84.9562 3.87168 85.2682C2.43434 85.9908 3.83696 87.0228 4.9263 86.9282C6.47163 86.7935 7.03829 86.5149 7.68229 86.6135C8.03829 86.6682 8.33966 86.7549 8.61699 86.8522C8.04632 87.3362 5.67963 89.0002 3.8623 89.7002C2.83963 90.0935 1.91567 90.3655 0.435674 90.8389C-0.224326 91.0495 -0.116358 91.9215 0.636976 92.0615C1.16764 92.1588 2.99297 92.1668 4.5983 91.5602C5.2343 91.3188 5.87697 91.0522 6.46497 90.7802C6.4783 90.8389 5.101 91.6415 4.433 91.9455C3.46367 92.3882 2.48631 92.5682 1.07031 93.0895C0.419642 93.3282 0.594293 94.0882 1.35429 94.1948C1.55829 94.2228 1.94363 94.2562 2.42897 94.2509C2.1623 94.5962 2.35166 95.1362 2.95299 95.2135C3.23566 95.2522 3.82366 95.2002 4.55833 95.0842C4.64633 95.2642 4.83297 95.4495 5.12897 95.4509C10.4276 95.4669 13.5903 92.5748 16.4917 91.8988C21.1157 87.2322 17.1183 84.4308 13.6637 83.7695" fill="#F8A35E"/>
<path d="M75.3006 46.011C71.7006 43.967 65.5526 43.2963 60.7073 50.1963C55.8646 57.0977 53.7287 73.3323 48.5913 78.8257C45.53 82.103 17.7206 83.0484 15.7433 84.043C14.4553 84.6884 15.2233 90.8764 15.6446 92.0244C16.53 94.4297 46.6353 95.7137 54.8247 92.4857C63.014 89.2577 83.0326 50.3977 75.3006 46.011" fill="#E35359"/>
<path d="M63.6595 15.2748C63.8795 12.7575 63.8675 8.57214 66.8689 4.93881C69.8702 1.30547 81.5702 -2.33319 87.7008 1.91215C95.2382 7.13215 92.7768 12.0188 102.174 15.8095C111.571 19.6001 108.729 23.8055 106.043 28.1001C103.358 32.3935 104.304 33.1028 108.648 37.6041C112.993 42.1055 118.754 53.3201 108.648 59.7161C98.5409 66.1135 76.6542 61.9281 67.8862 53.4775C59.1195 45.0281 69.4662 39.4641 67.0329 34.4281C64.5982 29.3921 61.7422 30.5028 61.7422 25.1508C61.7422 21.0495 63.3182 19.1575 63.6595 15.2748" fill="#37213E"/>
<path d="M82.6222 40.0205C82.6222 40.0205 62.6862 43.3445 62.0208 49.4285C61.7422 51.9778 65.2155 57.1191 64.3182 59.7311C63.0075 63.5485 60.9196 65.7645 64.7716 74.8271C67.8862 82.1538 62.5396 97.3165 62.7022 99.1218C63.3102 105.87 74.0102 107.104 78.3996 106.999C84.6556 106.85 102.65 102.824 102.65 98.8805C102.65 95.4632 94.3169 88.1191 93.5089 82.2618C92.7009 76.4031 107.948 52.9258 104.922 47.8125C99.0635 37.9152 82.6222 40.0205 82.6222 40.0205" fill="#F2575D"/>
<path d="M101.749 102.879C101.651 102.898 96.5994 104.198 95.8154 104.708C95.0901 105.18 93.3781 106.814 92.8834 107.299C91.7354 108.428 93.3861 108.982 94.3941 108.558C95.8234 107.958 96.2781 107.519 96.9221 107.417C97.2781 107.359 97.5901 107.35 97.8847 107.358C97.4901 107.993 95.7448 110.302 94.2288 111.523C93.3754 112.211 92.5794 112.751 91.3141 113.655C90.7514 114.058 91.1207 114.854 91.8794 114.758C92.4167 114.689 94.1554 114.138 95.4981 113.068C96.0314 112.644 96.5608 112.195 97.0368 111.757C97.0674 111.807 96.0021 112.993 95.4594 113.487C94.6714 114.205 93.7968 114.674 92.6061 115.603C92.0608 116.031 92.4608 116.699 93.2141 116.57C93.4194 116.535 93.7954 116.447 94.2567 116.294C94.1074 116.704 94.4527 117.161 95.0487 117.051C95.3287 116.999 95.8728 116.77 96.5381 116.436C96.6768 116.58 96.9048 116.676 97.1941 116.61C100.334 115.89 105.709 111.381 106.926 109.755C109.901 103.897 105.238 102.451 101.749 102.879" fill="#F8A35E"/>
<path d="M97.3943 42.9098C94.173 45.5112 91.2943 50.9845 95.9383 58.0218C100.584 65.0592 113.809 72.3765 117.036 79.1698C118.961 83.2205 101.092 100.596 101.058 102.81C101.025 105.023 104.421 110.418 105.721 111.048C108.026 112.166 133.125 87.8045 133.125 79.0005C133.125 70.1978 104.312 37.3258 97.3943 42.9098" fill="#F2575D"/>
<path d="M85.6597 24.6444C85.6597 24.6444 86.0677 29.8217 87.5957 33.8604C89.125 37.899 90.7637 39.1404 92.6944 40.8564C94.6224 42.5724 84.9904 52.803 76.4171 55.3977C76.4171 55.3977 70.197 47.8217 73.049 43.599C75.901 39.3764 78.1598 39.0044 77.1384 33.3657C76.2491 28.451 75.7157 25.7244 75.7157 25.7244L85.6597 24.6444Z" fill="#F8A35E"/>
<path d="M72.4112 27.2645C72.4112 29.6858 71.4165 31.6565 70.1939 31.6565C68.9712 31.6565 67.9765 29.6858 67.9765 27.2645C67.9765 25.6258 68.4365 24.2099 69.1112 23.4552C69.3192 23.1872 69.0538 22.9819 68.8458 23.2499C68.1218 24.0752 67.6445 25.5418 67.6445 27.2645C67.6445 29.9138 68.7632 31.9885 70.1939 31.9885C71.6232 31.9885 72.7432 29.9138 72.7432 27.2645C72.7432 25.8778 72.5299 24.8192 72.0312 23.9618L71.7792 24.2018C72.1872 24.9978 72.4112 26.0445 72.4112 27.2645" fill="white"/>
<path fill-rule="evenodd" clip-rule="evenodd" d="M85.6594 24.6443C85.6594 24.6443 84.27 35.1736 74.3767 34.4283C69.41 34.0536 66.8687 23.8576 68.8087 21.2949C68.8087 21.2949 67.93 16.1616 68.81 11.9456C69.6887 7.7283 78.014 5.5203 84.7927 7.5843C84.7927 7.5843 86.7394 9.43764 85.9914 17.723C85.9914 17.723 87.2433 16.2176 89.21 17.2896C90.702 18.103 90.8607 20.0283 90.3527 21.8443C89.7461 24.0203 87.4754 25.8963 85.6594 24.6443Z" fill="#F8A35E"/>
<path d="M86.3618 23.8428L87.1005 21.8735L85.8379 21.3495C85.8379 21.3495 86.6578 17.6681 88.7098 19.0254C90.3978 20.1401 88.4698 24.5908 86.3618 23.8428" fill="#E56A46"/>
<path d="M89.5137 27.2645C89.5137 29.6858 88.5191 31.6565 87.2964 31.6565C86.0738 31.6565 85.079 29.6858 85.079 27.2645C85.079 25.6258 85.5391 24.2099 86.2137 23.4552C86.4231 23.1859 86.1564 22.9819 85.9484 23.2499C85.2244 24.0752 84.7471 25.5418 84.7471 27.2645C84.7471 29.9138 85.8671 31.9885 87.2964 31.9885C88.7258 31.9885 89.8457 29.9138 89.8457 27.2645C89.8457 25.8778 89.6324 24.8192 89.1337 23.9618L88.8817 24.2018C89.2897 24.9978 89.5137 26.0445 89.5137 27.2645" fill="white"/>
<path d="M71.7676 27.8578C71.7676 27.8578 72.4396 26.2151 77.6356 26.7525C77.0436 29.5005 72.1836 30.8538 71.7676 27.8578Z" fill="#F14A3B"/>
<path d="M71.7676 27.8577L77.6356 26.7523C75.6956 27.2777 73.7609 27.5843 71.7676 27.8577Z" fill="#E42823"/>
<path d="M72.7236 27.9138C72.4049 27.9138 72.0862 27.8965 71.7676 27.8578C73.7609 27.5845 75.6956 27.2778 77.6356 26.7525C76.7556 27.2538 75.7676 27.5325 74.7809 27.7258C74.0996 27.8338 73.4116 27.9138 72.7236 27.9138Z" fill="#E42823"/>
<path d="M68.8407 21.1614C68.8794 21.6281 69.4927 21.6614 70.2407 21.6001C70.9874 21.5374 71.5861 21.4028 71.5461 20.9361C71.5074 20.4681 70.8701 20.1415 70.1234 20.2041C69.3754 20.2668 68.802 20.6948 68.8407 21.1614Z" fill="#37213E"/>
<path d="M67.2888 19.2164C67.2661 19.2844 69.0235 17.7177 69.4941 17.743C69.9661 17.7697 71.7181 18.4217 71.8928 18.179C72.0674 17.9364 72.2381 17.4043 72.2381 17.4043C72.2381 17.4043 69.7688 16.939 69.2514 17.103C68.7328 17.267 67.4835 18.6324 67.2888 19.2164" fill="#37213E"/>
<path d="M75.6914 20.5882C75.7301 21.0548 76.3421 21.0895 77.0901 21.0268C77.8367 20.9641 78.4354 20.8281 78.3968 20.3615C78.3581 19.8961 77.7207 19.5681 76.974 19.6308C76.226 19.6935 75.6514 20.1215 75.6914 20.5882Z" fill="#37213E"/>
<path d="M80.1286 17.6152C80.166 17.6765 77.8033 16.7085 77.2153 16.8578C76.6286 17.0085 74.7406 17.9618 74.49 17.7658C74.2406 17.5685 73.958 17.0818 73.958 17.0818C73.958 17.0818 76.718 16.1471 77.3887 16.1738C78.0593 16.2005 79.81 17.0832 80.1286 17.6152Z" fill="#37213E"/>
<path d="M72.6873 25.1511C71.9113 24.9338 70.3207 24.3084 70.5207 23.9671C70.5647 23.8911 70.782 23.8578 71.0927 23.8578C72.1633 23.8578 74.346 24.2525 74.3753 24.6205C74.4167 25.0938 72.6873 25.1511 72.6873 25.1511" fill="#F38751"/>
<path d="M72.3901 17.9657C72.3901 17.9657 72.8954 20.131 72.6368 20.9097C72.3754 21.6897 70.7914 23.447 70.7568 23.8177C70.7221 24.1897 72.5528 25.0977 72.6874 25.151C72.8221 25.2043 70.0794 24.7843 70.1594 23.9337C70.2408 23.0817 72.2795 20.9443 72.3528 20.527C72.4261 20.1083 72.3901 17.9657 72.3901 17.9657" fill="#E56A46"/>
<path d="M82.6221 8.34312C74.3767 9.21512 70.7194 16.9765 64.6807 16.9831C60.9434 10.4885 72.3647 -5.99556 85.8381 6.80044C92.0167 12.6684 86.4447 17.1658 86.4447 17.1658L85.0687 21.9084C85.0687 21.9084 85.1887 18.3485 83.9234 16.9831C80.1927 12.9618 82.6221 8.34312 82.6221 8.34312" fill="#37213E"/>
</svg>
