<svg width="194" height="369" viewBox="0 0 194 369" fill="none" xmlns="http://www.w3.org/2000/svg">
<path d="M144.282 357.471H155.685L161.11 315.031H144.281L144.282 357.471Z" fill="#FFB6B6"/>
<path d="M141.374 353.879H163.832C167.627 353.879 171.267 355.334 173.951 357.923C176.635 360.512 178.143 364.024 178.143 367.685V368.134H141.374V353.879Z" fill="#F2575D"/>
<path d="M144.402 172.417L145.897 172.434L144.945 247.886L143.45 247.869L144.402 172.417Z" fill="#CACACA"/>
<path d="M192.233 174.488L192.825 175.812L173.016 184.041L172.425 182.716L192.233 174.488Z" fill="#CACACA"/>
<path d="M183.264 198.287L183.855 199.611L164.046 207.84L163.455 206.515L183.264 198.287Z" fill="#6C63FF"/>
<path d="M165.989 165.786C164.835 165.263 163.814 164.503 162.997 163.558C162.181 162.614 161.589 161.508 161.263 160.318C160.937 159.129 160.886 157.886 161.112 156.675C161.338 155.465 161.837 154.317 162.573 153.312L151.949 137.042L160.621 128.402L175.29 151.581C176.957 152.886 178.07 154.736 178.417 156.779C178.765 158.822 178.324 160.918 177.178 162.669C176.032 164.42 174.26 165.704 172.198 166.279C170.135 166.853 167.926 166.678 165.989 165.787V165.786Z" fill="#FFB6B6"/>
<path d="M120.615 52.9462H67.5976V25.5757C67.5976 18.7926 70.3905 12.2873 75.3619 7.49094C80.3332 2.69456 87.0759 0 94.1064 0C101.137 0 107.88 2.69456 112.851 7.49094C117.822 12.2873 120.615 18.7926 120.615 25.5757V52.9462Z" fill="#554747"/>
<path d="M7.96761 342.789L17.8977 348.197L44.2466 313.817L29.5904 305.835L7.96761 342.789Z" fill="#FFB6B6"/>
<path d="M7.26528 338.281L26.8213 348.93C30.1265 350.73 32.5549 353.724 33.5726 357.251C34.5902 360.779 34.1136 364.553 32.2477 367.742L32.0189 368.132L-4.33326e-05 350.693L7.26528 338.281Z" fill="#F2575D"/>
<path d="M80.8472 166.621L79.9674 170.866C79.9674 170.866 77.3276 173.413 78.6475 174.686C79.9673 175.96 79.5274 181.903 79.5274 181.903C78.7889 192.74 64.1123 253.637 61.4874 265.53C61.4874 265.53 41.2477 278.265 25.4084 303.311C9.56916 328.356 9.13106 334.724 9.13106 334.724L26.7273 341.941L70.7228 290.577C70.7228 290.577 83.0424 283.36 87.4428 276.993C91.8433 270.626 119.127 204.826 119.127 204.826L134.53 273.596C134.53 273.596 133.65 298.641 137.61 314.773C140.044 324.953 141.517 335.325 142.009 345.762L162.689 343.639C162.689 343.639 161.369 283.36 159.169 276.992C159.169 276.992 168.409 203.553 149.929 174.262L135.036 135.955L120.45 130.538L80.8472 166.621Z" fill="#398AB9"/>
<path d="M93.833 6.69079C121.595 7.14846 121.59 46.99 93.833 47.4432C66.0731 46.9856 66.0768 7.14398 93.833 6.69079Z" fill="#FFB8B8"/>
<path d="M115.199 26.01H110.481L109.196 22.9104L109.839 26.01H84.0322L84.8692 19.5245L78.5964 26.01H72.3394V22.4958C72.3374 19.7809 72.8897 17.0921 73.9647 14.5831C75.0398 12.074 76.6166 9.79383 78.605 7.87271C80.5934 5.95158 82.9545 4.42712 85.5536 3.38637C88.1526 2.34562 90.9387 1.80898 93.7527 1.80706C96.5667 1.80514 99.3536 2.338 101.954 3.3752C104.555 4.4124 106.918 5.93362 108.909 7.85203C110.901 9.77044 112.481 12.0485 113.559 14.556C114.638 17.0636 115.194 19.7516 115.196 22.4666L115.199 26.01Z" fill="#F2575D"/>
<path d="M122.461 59.341L70.001 59.7511L81.0845 168.261C81.0845 168.261 142.435 165.137 142.473 147.07L136.726 131.015L122.461 59.341Z" fill="#F2575D"/>
<path d="M67.7464 178.751C68.5527 177.798 69.1327 176.686 69.4456 175.493C69.7584 174.301 69.7965 173.057 69.557 171.848C69.3176 170.64 68.8065 169.497 68.0598 168.5C67.313 167.503 66.3488 166.676 65.235 166.078L67.5147 146.975L55.8202 142.806L52.9935 169.828C52.0809 171.699 51.9105 173.828 52.5143 175.813C53.1182 177.797 54.4545 179.499 56.2707 180.598C58.087 181.696 60.2574 182.115 62.3718 181.775C64.4862 181.434 66.3982 180.359 67.7464 178.751Z" fill="#FFB6B6"/>
<path d="M76.8989 69.0992L69.9964 59.7905C69.9964 59.7905 65.2722 58.7792 59.6914 65.0609C54.1106 71.3427 50.8552 149.865 50.8552 149.865L71.3181 154.351L83.4099 98.7132L76.8989 69.0992Z" fill="#F2575D"/>
<path d="M192.529 154.251L191.007 224.012L144.198 247.878L58.9528 233.191L56.8591 160.676L110.899 142.317L192.529 154.251Z" fill="white"/>
<path d="M144.32 248.631L191.745 224.451L193.29 153.632L110.826 141.578L56.0969 160.17L58.222 233.797L144.32 248.631ZM190.269 223.572L144.076 247.124L59.6827 232.584L57.6218 161.182L110.971 143.057L191.768 154.869L190.269 223.572Z" fill="#CACACA"/>
<path d="M145.242 173.165L145.426 173.095L192.805 154.92L192.253 153.581L145.056 171.685L56.9614 159.962L56.7568 161.391L145.242 173.165Z" fill="#CACACA"/>
<path d="M151.23 169.554L168.309 162.874L86.0895 150.234L69.0103 156.914L151.23 169.554Z" fill="#CACACA"/>
<path d="M114.399 63.618L122.01 58.7792C122.01 58.7792 127.884 60.0499 134.131 71.6424C140.378 83.235 165.57 135.063 165.57 135.063L155.214 145.204L127.589 104.544L114.399 63.618Z" fill="#F2575D"/>
</svg>
