<svg width="75" height="246" viewBox="0 0 75 246" fill="none" xmlns="http://www.w3.org/2000/svg">
<path d="M51.2935 231.493L51.2821 232.101C51.2821 232.101 59.8021 236.516 59.85 238.474L42.75 237.82L43.1644 231.022C45.6691 232.528 48.3255 232.788 51.2935 231.493Z" fill="#33535F"/>
<path d="M44.7755 235.162C44.7449 235.162 44.7142 235.157 44.6842 235.148L44.6192 234.504L44.46 233.698C44.5058 233.639 44.5574 233.591 44.6131 233.561C44.6617 233.523 44.7146 233.506 44.769 233.506C44.9892 233.506 45.2324 233.785 45.2986 234.112C45.3809 234.52 45.14 235.054 44.8728 235.146C44.8406 235.157 44.808 235.162 44.7755 235.162Z" fill="#A6B7B9"/>
<path d="M59.8398 238.474L44.46 237.977L59.8398 238.474C59.8327 238.234 59.6566 237.953 59.3587 237.646C59.5853 237.801 59.9118 238.096 59.8398 238.474Z" fill="white"/>
<path d="M59.85 238.474L44.6743 238.039L44.46 236.818L59.1757 237.644C59.1757 237.644 59.2631 237.681 59.3752 237.749C59.6692 238.018 59.8429 238.264 59.85 238.474Z" fill="#A6B7B9"/>
<path d="M51.2994 231.99C51.2937 232.127 50.8431 232.166 50.3916 232.584C49.9329 232.982 49.6926 233.56 49.6111 233.502C49.5286 233.472 49.68 232.664 50.2323 232.174C50.7818 231.678 51.3217 231.867 51.2994 231.99Z" fill="#17282F"/>
<path d="M53.0092 233.553C53.0339 233.656 52.4984 233.823 52.0674 234.26C51.6217 234.687 51.4993 235.169 51.378 235.162C51.2624 235.175 51.201 234.55 51.7486 234.016C52.2907 233.476 53.0109 233.451 53.0092 233.553Z" fill="#17282F"/>
<path d="M53.9611 235.99C53.8801 236.007 53.7704 235.517 54.0144 234.992C54.2542 234.465 54.6793 234.27 54.7146 234.352C54.762 234.434 54.4844 234.71 54.2902 235.145C54.0869 235.574 54.0498 235.983 53.9611 235.99Z" fill="#17282F"/>
<path d="M37.8913 231.85C37.8913 231.85 41.8954 235.602 44.2919 233.066L44.699 234.485L46.155 244.421C46.2492 245.064 45.8969 245.718 45.2974 245.883C44.8358 246.011 44.3587 245.85 44.06 245.477C42.4603 243.483 36.6107 236.115 36.7683 235.232L37.0427 232.869C37.0994 232.378 37.4353 231.975 37.8913 231.85Z" fill="#33535F"/>
<path d="M44.3442 245.927C44.0151 245.927 43.6984 245.76 43.485 245.468C39.4966 240.018 37.778 237.364 37.1402 236.154C38.38 238.464 42.293 243.813 43.5177 245.472C43.7313 245.761 44.0437 245.923 44.3715 245.923C44.4012 245.923 44.4306 245.922 44.4601 245.92C44.4215 245.924 44.3827 245.927 44.3442 245.927ZM37.0334 235.949C36.9277 235.751 36.8314 235.581 36.7886 235.371C36.8297 235.517 36.914 235.713 37.0334 235.949ZM36.7651 235.138C36.7649 235.052 36.773 234.958 36.7912 234.855L36.8399 234.334L36.8496 234.349L36.7651 235.138Z" fill="white"/>
<path d="M44.3715 245.927C44.0437 245.927 43.7313 245.764 43.5177 245.474C42.293 243.813 38.38 238.455 37.1402 236.142C37.1224 236.108 37.1055 236.075 37.0893 236.043C37.0705 236.007 37.0518 235.971 37.0334 235.937C36.914 235.7 36.8297 235.504 36.7886 235.358C36.7738 235.285 36.7656 235.209 36.7651 235.124L36.8496 234.334L44.4601 245.923C44.4306 245.925 44.4012 245.927 44.3715 245.927Z" fill="#A6B7B9"/>
<path d="M37.6173 234.334C37.4248 234.334 37.2335 234.277 37.0847 234.159C36.736 233.88 36.6407 233.224 36.9599 232.919C37.1229 232.763 37.3826 232.678 37.6334 232.678C37.873 232.678 38.1044 232.756 38.2362 232.926C38.5236 233.221 38.561 233.722 38.2977 234.038C38.1364 234.231 37.8758 234.334 37.6173 234.334Z" fill="#A6B7B9"/>
<path d="M42.7587 240.129C42.823 240.157 43.1597 239.74 43.9075 239.56C44.6475 239.364 45.291 239.533 45.3141 239.483C45.3274 239.463 45.1857 239.386 44.9096 239.336C44.6365 239.286 44.2271 239.282 43.8162 239.385C43.4062 239.49 43.0963 239.675 42.9335 239.836C42.7677 239.997 42.7301 240.12 42.7587 240.129Z" fill="#17282F"/>
<path d="M43.6092 241.778C43.6473 241.847 43.9626 241.436 44.4353 241.307C44.9062 241.162 45.2932 241.369 45.3134 241.283C45.3436 241.215 44.9368 240.836 44.3993 240.998C43.861 241.149 43.5656 241.732 43.6092 241.778Z" fill="#17282F"/>
<path d="M41.0433 238.466C41.0921 238.56 41.7286 237.767 42.6824 237.39C43.6326 236.99 44.4489 237.189 44.4595 237.071C44.485 236.98 43.6338 236.587 42.6139 237.011C41.5919 237.421 40.9903 238.408 41.0433 238.466Z" fill="#17282F"/>
<path d="M41.0412 234.828C41.0679 234.939 41.8202 234.64 42.7614 234.737C43.7034 234.815 44.4218 235.251 44.4582 235.145C44.5009 235.064 43.7918 234.435 42.7794 234.347C41.7678 234.247 41.0062 234.74 41.0412 234.828Z" fill="#17282F"/>
<path d="M43.6196 235.162C43.6341 235.161 43.6482 234.982 43.6026 234.665C43.5565 234.349 43.4456 233.889 43.1749 233.394C43.036 233.161 42.8873 232.857 42.5584 232.71C42.3947 232.636 42.1614 232.689 42.0377 232.872C41.9151 233.052 41.8869 233.271 41.8969 233.479C41.9634 234.31 42.6365 235.065 43.4569 235.119C44.2796 235.156 44.9833 234.561 45.2595 233.817C45.3179 233.625 45.3518 233.393 45.249 233.179C45.1475 232.962 44.9103 232.892 44.7494 232.937C44.4151 233.022 44.2165 233.264 44.0289 233.446C43.6606 233.841 43.443 234.242 43.3191 234.527C43.195 234.813 43.1604 234.987 43.1739 234.993C43.2161 235.025 43.4193 234.327 44.147 233.599C44.3313 233.431 44.5429 233.219 44.7844 233.173C44.902 233.15 45.0079 233.196 45.0575 233.303C45.1079 233.406 45.0948 233.572 45.0429 233.722C44.8083 234.332 44.1639 234.875 43.4687 234.831C42.7771 234.793 42.186 234.129 42.1268 233.461C42.1149 233.3 42.1414 233.134 42.2099 233.032C42.2775 232.932 42.3878 232.898 42.496 232.938C42.7243 233.023 42.8908 233.287 43.0273 233.506C43.5702 234.429 43.57 235.179 43.6196 235.162Z" fill="#17282F"/>
<path d="M74.1522 20.5518C75.9136 33.6737 67.493 45.8604 55.3448 47.7723C43.1957 49.6835 31.9192 40.5959 30.158 27.4734C28.3962 14.3521 36.8169 2.16529 48.9657 0.254082C61.1144 -1.65775 72.3908 7.43044 74.1522 20.5518Z" fill="#F3F2F1"/>
<path d="M69.076 21.3879C70.431 31.3414 63.9537 40.5873 54.608 42.0371C45.2636 43.4875 36.5889 36.5927 35.2342 26.6385C33.8798 16.6838 40.3567 7.43852 49.7016 5.98874C59.0468 4.53896 67.7205 11.4331 69.076 21.3879Z" fill="#E7E8E5"/>
<path d="M69.216 20.87C69.114 20.8899 68.9342 20.0992 68.4749 18.7424C68.0098 17.3944 67.2289 15.4622 65.776 13.447C65.051 12.4441 64.1635 11.4244 63.0962 10.4776C62.0231 9.5421 60.7811 8.66649 59.3697 7.98311C58.666 7.63861 57.9249 7.33095 57.148 7.09317C56.3723 6.85164 55.5661 6.65132 54.7333 6.53773C53.9028 6.42165 53.0493 6.35237 52.1825 6.37671C51.3169 6.39918 50.4405 6.48967 49.5631 6.65131C48.6873 6.82668 47.8352 7.06818 47.0155 7.36962C46.194 7.66981 45.4147 8.0524 44.6711 8.47117C43.925 8.88868 43.2321 9.37733 42.5806 9.89283C41.9262 10.4058 41.3287 10.9719 40.7774 11.5567C39.6698 12.725 38.7817 14.0106 38.0723 15.2887C37.3717 16.575 36.8623 17.8631 36.5 19.0757C35.7779 21.509 35.6593 23.6135 35.6516 25.052C35.6521 26.4968 35.7349 27.3062 35.6327 27.3249C35.5575 27.3412 35.3031 26.5617 35.1435 25.0813C34.9938 23.6097 34.9677 21.403 35.6133 18.7949C35.9373 17.4961 36.4255 16.1063 37.1304 14.7096C37.8438 13.3222 38.7594 11.9199 39.924 10.6392C40.5034 9.99768 41.1356 9.37797 41.8319 8.81441C42.5252 8.24712 43.2668 7.71163 44.0662 7.2523C44.8643 6.7911 45.7035 6.37234 46.5882 6.04282C47.4718 5.71143 48.3912 5.44867 49.3349 5.26081C50.2811 5.08545 51.2272 4.9906 52.1618 4.97126C53.0971 4.95129 54.0181 5.03241 54.9137 5.16784C55.8104 5.30015 56.6772 5.52733 57.5077 5.80193C58.3404 6.07154 59.1317 6.41789 59.8792 6.80358C61.3793 7.57121 62.6853 8.54605 63.797 9.58328C64.9012 10.6318 65.8031 11.7551 66.5206 12.8535C67.9562 15.0609 68.6334 17.1429 68.9613 18.5802C69.2829 20.03 69.2915 20.8562 69.216 20.87Z" fill="#DADBD8"/>
<path d="M56.4657 28.3571C56.318 27.3558 55.4786 26.9463 54.2877 26.713L54.867 30.6578C56.1322 30.115 56.5996 29.2716 56.4657 28.3571ZM50.9441 22.2555L50.3471 18.1969C49.0084 18.7824 48.5798 19.7076 48.718 20.6511C48.8651 21.6505 49.7314 22.0574 50.9441 22.2555ZM55.4209 34.4316L55.8911 37.633L53.2694 38.0896L52.8119 34.975C50.1912 35.2555 47.5704 34.8052 45.9482 33.8278L46.8774 30.0886C48.344 30.9176 50.3444 31.3597 52.2621 31.2302L51.5607 26.4563C48.5372 26.1941 45.131 25.7035 44.5309 21.6159C44.086 18.5862 45.7226 15.6326 49.7893 14.3954L49.3233 11.2223L51.9454 10.7645L52.4029 13.8809C54.3945 13.7092 56.3919 13.9463 57.9808 14.6948L57.1869 18.4396C55.7278 17.8446 54.2929 17.5968 52.9567 17.6528L53.6704 22.5128C56.6896 22.7474 60.0439 23.2474 60.6358 27.2765C61.072 30.2496 59.4571 33.1699 55.4209 34.4316Z" fill="#398AB9"/>
<path d="M23.512 126.213C18.8788 132.574 10.5301 133.494 4.86408 128.27C-0.801975 123.045 -1.63967 113.653 2.99352 107.293C7.62605 100.932 15.9749 100.011 21.641 105.236C27.3068 110.461 28.1445 119.853 23.512 126.213Z" fill="#F3F2F1"/>
<path d="M21.5262 124.263C17.7902 129.033 11.0573 129.723 6.4874 125.804C1.91832 121.886 1.24272 114.842 4.9787 110.072C8.71515 105.301 15.4483 104.611 20.0175 108.53C24.5866 112.448 25.2621 119.492 21.5262 124.263Z" fill="#E7E8E5"/>
<path d="M21.4921 123.375C21.4424 123.334 21.6953 122.928 22.0677 122.158C22.4339 121.389 22.9125 120.232 23.1514 118.718C23.2694 117.964 23.328 117.125 23.2832 116.229C23.2313 115.336 23.0862 114.385 22.7926 113.43C22.6475 112.953 22.4725 112.472 22.2533 112.003C22.0369 111.533 21.7907 111.065 21.4979 110.619C21.2071 110.173 20.8875 109.735 20.5241 109.329C20.1619 108.922 19.7671 108.537 19.3426 108.182C18.9132 107.832 18.466 107.521 18.0076 107.25C17.5485 106.977 17.0729 106.757 16.5969 106.57C16.1205 106.38 15.6363 106.245 15.1578 106.142C14.6795 106.035 14.2023 105.977 13.7361 105.949C12.8028 105.89 11.9102 105.984 11.0938 106.161C10.2775 106.345 9.5383 106.622 8.89059 106.939C7.59217 107.577 6.67595 108.372 6.07952 108.951C5.48354 109.536 5.18339 109.904 5.13393 109.862C5.09669 109.833 5.3145 109.395 5.86011 108.719C6.40601 108.051 7.3056 107.145 8.64462 106.4C9.31248 106.029 10.085 105.701 10.9485 105.474C11.812 105.255 12.7637 105.127 13.7667 105.168C14.2676 105.186 14.781 105.239 15.2976 105.345C15.8142 105.449 16.3374 105.588 16.8531 105.786C17.3686 105.982 17.8838 106.215 18.3804 106.507C18.8773 106.797 19.3606 107.132 19.8231 107.51C20.2813 107.893 20.7062 108.309 21.0953 108.75C21.485 109.191 21.8273 109.666 22.1367 110.151C22.4476 110.635 22.7074 111.143 22.9329 111.653C23.1614 112.162 23.3411 112.682 23.487 113.197C23.7818 114.228 23.9124 115.25 23.9377 116.204C23.9559 117.158 23.8601 118.046 23.6995 118.836C23.3746 120.418 22.7921 121.587 22.333 122.326C21.8658 123.067 21.5285 123.406 21.4921 123.375Z" fill="#DADBD8"/>
<path d="M13.4106 120.675C13.7629 120.192 13.5871 119.611 13.1946 118.931L11.8061 120.837C12.5489 121.234 13.0887 121.117 13.4106 120.675ZM13.6606 115.458L15.0887 113.497C14.2982 113.081 13.7408 113.251 13.4086 113.706C13.0567 114.19 13.2446 114.782 13.6606 115.458ZM10.4779 122.659L9.35099 124.205L8.0869 123.107L9.18318 121.602C7.99195 120.432 7.10231 118.96 6.83984 117.762L8.76252 116.681C9.02236 117.742 9.6611 118.905 10.5013 119.793L12.1816 117.487C11.0491 115.896 9.8539 114.022 11.2927 112.048C12.3592 110.585 14.2482 110.174 16.4269 111.661L17.544 110.129L18.8085 111.227L17.7115 112.732C18.5996 113.639 19.3215 114.717 19.6648 115.804L17.7951 116.954C17.4417 115.993 16.9555 115.187 16.3838 114.554L14.6733 116.902C15.8152 118.48 16.9854 120.332 15.567 122.278C14.5205 123.714 12.6542 124.122 10.4779 122.659Z" fill="#F2575D"/>
<path d="M30.668 66.8728L26.6837 66.6168C25.0044 68.3327 22.8861 69.5765 20.4716 70.1066C13.5274 71.6321 6.7715 66.69 5.38165 59.0681C3.99202 51.4468 8.49476 44.0316 15.4389 42.5061C22.3831 40.9812 29.139 45.9228 30.5287 53.5447C31.1091 56.7275 30.6588 59.8718 29.4356 62.5686L29.4405 62.5629L30.668 66.8728Z" fill="white"/>
<path d="M30.6203 66.8376C30.6203 66.8376 30.5982 66.7478 30.5484 66.5659C30.4963 66.377 30.4215 66.1052 30.3232 65.7482C30.1192 65.0152 29.8195 63.9377 29.4294 62.5365L29.4126 62.4756L29.3736 62.5227L29.3689 62.5289L29.4227 62.5691C30.1561 60.9601 30.8553 58.6514 30.7733 55.8394C30.7546 55.1404 30.6828 54.4143 30.5542 53.6738C30.3927 52.9427 30.2506 52.174 29.9734 51.4266C29.4683 49.9174 28.6906 48.4038 27.6107 47.0508C26.5344 45.6979 25.1583 44.5087 23.5499 43.6534C21.9447 42.7961 20.1069 42.2784 18.1917 42.2345C16.2773 42.1774 14.2971 42.6499 12.4723 43.5919C10.6504 44.5376 8.97197 45.9727 7.72302 47.8327C7.56729 48.0674 7.40665 48.2971 7.2559 48.5337C7.12047 48.7809 6.98533 49.0288 6.85065 49.2754L6.64889 49.6444L6.47892 50.0316C6.36678 50.2901 6.25486 50.5474 6.14334 50.8047C6.0404 51.0658 5.96239 51.3375 5.87106 51.6023C5.78796 51.8703 5.68159 52.1294 5.62864 52.4062C5.50602 52.9534 5.35321 53.4899 5.29734 54.0459C4.97056 56.2454 5.13206 58.4694 5.69435 60.4888C6.27047 62.5057 7.24423 64.3067 8.45218 65.7613C9.65938 67.2204 11.0949 68.3361 12.587 69.0898C14.0804 69.8472 15.6276 70.2413 17.0935 70.348C17.8283 70.4214 18.5411 70.3637 19.2276 70.3185C19.9074 70.2024 20.5693 70.1221 21.185 69.9313C23.6669 69.2184 25.4876 67.8341 26.6751 66.6085L26.651 66.6179C27.9441 66.692 28.9384 66.7485 29.6152 66.7867C29.9445 66.8043 30.1957 66.8181 30.3699 66.8275C30.5381 66.8357 30.6203 66.8376 30.6203 66.8376C30.6203 66.8376 30.5292 66.8282 30.3569 66.815C30.1809 66.8018 29.9271 66.783 29.594 66.7579C28.923 66.7096 27.9369 66.6393 26.6551 66.547L26.6412 66.5464L26.6309 66.5564C25.4402 67.7651 23.6247 69.1287 21.1595 69.8234C20.5481 70.0104 19.8911 70.087 19.2167 70.1999C18.5358 70.2413 17.8291 70.2965 17.1013 70.2206C15.6493 70.1102 14.1179 69.7142 12.6413 68.9611C11.1657 68.2112 9.7474 67.1036 8.55558 65.6584C7.36313 64.2176 6.40298 62.4354 5.83532 60.4411C5.2815 58.4437 5.12377 56.2461 5.44769 54.0723C5.50288 53.5238 5.6546 52.9936 5.7759 52.4533C5.82794 52.1797 5.93357 51.9236 6.01558 51.6588C6.10605 51.3971 6.18291 51.1285 6.28477 50.8712C6.39514 50.6171 6.50569 50.3623 6.61652 50.1069L6.78448 49.7247L6.98402 49.3595C7.11715 49.116 7.25052 48.8719 7.38434 48.6272C7.53355 48.3937 7.69213 48.1659 7.84609 47.9344C9.07989 46.097 10.7377 44.6781 12.5376 43.7431C14.3397 42.8112 16.2969 42.3424 18.1893 42.3964C20.0823 42.4372 21.8999 42.9468 23.4889 43.7914C25.081 44.6342 26.4451 45.8083 27.5133 47.1443C28.5852 48.481 29.3593 49.9776 29.8639 51.4712C30.1412 52.2104 30.2839 52.9722 30.4467 53.6964C30.5768 54.43 30.6507 55.1498 30.6717 55.8432C30.7639 58.632 30.0819 60.93 29.3637 62.5371L29.2585 62.7724L29.4175 62.5772L29.4225 62.571L29.3666 62.5578C29.7705 63.9434 30.081 65.0077 30.2921 65.7325C30.3978 66.0914 30.4785 66.365 30.5341 66.5546C30.5891 66.7403 30.6203 66.8376 30.6203 66.8376Z" fill="#17282F"/>
<path d="M23.0191 53.9893C22.9014 53.3311 22.5487 52.7316 22.0848 52.2637C21.63 51.8058 21.0532 51.4597 20.4246 51.3645C19.7568 51.2631 19.0517 51.4578 18.5225 51.8904C18.2079 52.1475 17.9583 52.4868 17.7957 52.8657C17.5906 52.5542 17.3211 52.2884 17.0072 52.0969C16.4261 51.7427 15.7017 51.6482 15.0534 51.8422C14.4434 52.0252 13.9175 52.4485 13.5273 52.9664C13.1292 53.4949 12.8588 54.1382 12.8291 54.807C12.7919 55.6444 13.0077 56.543 13.4728 57.2303C13.964 57.9565 14.717 58.5176 15.4801 58.9218C16.7637 59.6017 18.4503 60.4465 18.4503 60.4465C18.4503 60.4465 19.7523 59.2914 20.9343 58.4379C21.6373 57.9305 22.3094 57.2692 22.7002 56.4812C23.0705 55.7346 23.1659 54.8137 23.0191 53.9893Z" fill="#F2575D"/>
<path d="M41.022 87.5169C40.3351 85.0672 39.5021 82.5923 39.6017 80.0355L38.146 75.4285C36.0077 75.0968 33.7455 75.8477 32.1526 77.4174C30.5596 78.9878 29.6667 81.3463 29.7871 83.6663C29.8624 85.1186 30.3082 86.5169 30.5325 87.9508C30.7569 89.3853 30.7296 90.9648 29.9573 92.1587C29.6102 92.6961 29.1055 93.1857 29.0717 93.8386C29.0284 94.6734 29.8369 95.3263 30.6132 95.3631C31.3894 95.3992 32.1192 95.0002 32.807 94.6109C32.6533 95.841 33.4362 97.128 34.5454 97.4689C35.6546 97.8097 36.9513 97.1623 37.4246 96.0307C37.3222 97.169 38.6607 97.9823 39.6704 97.6219C40.6797 97.262 41.3018 96.1574 41.5971 95.0583C42.2583 92.6006 41.7087 89.9666 41.022 87.5169Z" fill="#17282F"/>
<path d="M42.75 232.255L43.0193 227.066L51.3 226.882L51.0741 233.234L48.0334 235.162L42.75 232.255Z" fill="#F9A78D"/>
<path d="M45.3151 221.298L43.7151 235.99L37.6201 234.75L37.7111 220.257L45.3151 221.298Z" fill="#F9A78D"/>
<path d="M61.284 129.173C61.284 129.173 62.4936 135.348 63.8868 146.553C65.1542 156.748 61.0007 186.492 59.9209 192.722C59.186 196.963 55.5651 218.16 51.408 231.022L45.3149 230.907C45.3149 230.907 49.9497 187.862 49.8563 183.366C49.7627 178.872 48.659 154.948 48.659 154.948L46.8055 136.762L61.284 129.173Z" fill="#F2575D"/>
<path d="M37.148 126.689C37.6403 126.88 48.3771 135.474 48.3771 135.474C48.3771 135.474 53.4602 185.058 53.8525 191.571C54.2448 198.085 45.3348 231.022 45.3348 231.022L36.9194 230.863C36.9194 230.863 37.4292 209.004 38.8549 202.344C40.2804 195.684 40.3061 194.058 39.5466 189.887C38.7871 185.716 32.181 163.567 30.2098 152.505C28.2385 141.443 37.148 126.689 37.148 126.689Z" fill="#F2575D"/>
<path d="M52.4356 149.046C52.4399 149.046 52.4519 149.118 52.47 149.258C52.4888 149.412 52.5135 149.619 52.5455 149.883C52.6053 150.447 52.691 151.255 52.8008 152.288C53.0127 154.377 53.303 157.403 53.6157 161.146C53.9247 164.889 54.2706 169.349 54.5186 174.311C54.6267 176.792 54.739 179.399 54.7172 182.106C54.7124 182.783 54.678 183.467 54.6593 184.155C54.6279 184.843 54.5482 185.54 54.477 186.236C54.2675 187.618 54.0183 189.012 53.7617 190.421C51.6342 201.681 49.4651 211.818 47.9176 219.16C47.1287 222.817 46.4895 225.781 46.0439 227.847C45.818 228.859 45.6412 229.65 45.5176 230.204C45.4568 230.462 45.4092 230.665 45.3738 230.815C45.3401 230.953 45.3205 231.023 45.316 231.022C45.3113 231.021 45.3222 230.949 45.3472 230.81C45.3762 230.657 45.4153 230.453 45.465 230.192C45.5771 229.636 45.7374 228.841 45.9422 227.824C46.3681 225.754 46.979 222.784 47.7327 219.12C49.2328 211.768 51.373 201.623 53.4998 190.37C54.8536 184.77 54.4353 179.274 54.273 174.323C54.0382 169.365 53.7122 164.905 53.4273 161.161C53.1388 157.418 52.8775 154.39 52.697 152.298C52.6089 151.263 52.5401 150.454 52.4918 149.888C52.4713 149.623 52.455 149.415 52.4429 149.261C52.4332 149.119 52.4308 149.047 52.4356 149.046Z" fill="#88B9D5"/>
<path d="M39.0947 70.6516C41.4711 67.3743 44.6623 65.4874 48.4146 65.4171C50.5315 65.3778 51.4077 65.8744 52.9321 66.3381C54.4567 66.8024 55.832 67.7252 56.7413 69.1821C57.8219 70.912 58.7291 72.8496 58.9334 74.9532C59.1433 77.1144 58.8009 79.9546 58.1649 82.0069C57.2376 84.9973 56.9766 85.8334 55.8454 87.593L52.5234 88.526C49.8236 88.6299 47.0867 88.73 44.4564 88.0351C41.8265 87.3403 39.2711 85.7434 37.8624 83.1426C35.9059 79.529 36.7183 73.9289 39.0947 70.6516Z" fill="#17282F"/>
<path d="M43.6503 70.7604L50.0648 67.899L51.7403 68.1178C55.5107 68.1327 58.1116 72.7991 58.1359 76.226C58.1635 80.0331 58.063 84.6821 57.5242 87.4884C56.4401 93.1307 52.1485 93.6007 52.1485 93.6007C52.1485 93.6007 52.2363 96.6079 52.2689 98.5021C48.677 102.984 44.8214 103.189 41.895 97.7419L41.9544 72.6925C41.987 71.652 42.7236 70.8125 43.6503 70.7604Z" fill="#F9A78D"/>
<path d="M56.4301 81.149C56.4258 81.6068 56.2309 81.9763 55.9947 81.9756C55.7589 81.9756 55.5709 81.6045 55.5753 81.1468C55.5796 80.6898 55.7748 80.3188 56.0103 80.3195C56.2469 80.3203 56.4348 80.6913 56.4301 81.149Z" fill="#17282F"/>
<path d="M57.2731 77.8234C57.1886 77.9105 56.7186 77.4876 56.0229 77.4477C55.3283 77.3976 54.7984 77.756 54.7276 77.6588C54.6924 77.6159 54.7825 77.4554 55.0136 77.2926C55.241 77.131 55.6231 76.983 56.0564 77.0105C56.4896 77.0391 56.8454 77.2341 57.0458 77.4238C57.2506 77.6147 57.3149 77.7847 57.2731 77.8234Z" fill="#17282F"/>
<path d="M52.168 84.3909C52.1665 84.3457 52.7848 84.2887 53.7851 84.2305C54.0379 84.2212 54.2791 84.1915 54.3304 84.0565C54.3996 83.9148 54.3094 83.6944 54.2036 83.456C54.0006 82.9607 53.7875 82.4419 53.5642 81.8983C52.6806 79.6813 52.056 77.863 52.168 77.8358C52.2808 77.8079 53.0882 79.5829 53.9718 81.7993C54.1834 82.3453 54.3864 82.866 54.5793 83.3644C54.6587 83.5966 54.8049 83.8615 54.6556 84.1562C54.577 84.303 54.3849 84.4039 54.2215 84.4311C54.0574 84.4633 53.9158 84.4596 53.7906 84.4596C52.7887 84.459 52.1688 84.4354 52.168 84.3909Z" fill="#17282F"/>
<path d="M52.1285 93.7237C52.1285 93.7237 48.6428 93.7631 45.3149 91.0839C45.3149 91.0839 46.9606 95.4518 52.1549 95.2148L52.1285 93.7237Z" fill="#F57F62"/>
<path d="M57.2684 73.5843C57.1434 73.759 56.6222 73.6061 56.0031 73.6249C55.3841 73.6225 54.8651 73.789 54.7379 73.6172C54.6819 73.5337 54.758 73.3602 54.9808 73.1896C55.2004 73.0201 55.5727 72.8731 55.9983 72.8672C56.4238 72.8619 56.7977 72.999 57.0195 73.1631C57.2445 73.3278 57.3233 73.499 57.2684 73.5843Z" fill="#17282F"/>
<path d="M48.736 80.7028C48.7119 80.931 49.0752 81.1294 49.547 81.1463C50.0177 81.1632 50.4197 80.9926 50.4438 80.7641C50.4673 80.5359 50.1043 80.3375 49.6336 80.3206C49.1619 80.3034 48.7595 80.4747 48.736 80.7028Z" fill="#17282F"/>
<path d="M47.038 77.7823C47.1429 77.883 47.8041 77.4665 48.7314 77.4826C49.658 77.4871 50.3301 77.9198 50.4329 77.8204C50.4831 77.7771 50.3775 77.5963 50.0854 77.4006C49.7973 77.2068 49.303 77.0144 48.7257 77.0073C48.1479 77.0015 47.6582 77.1823 47.3752 77.3696C47.0863 77.5588 46.9861 77.7371 47.038 77.7823Z" fill="#17282F"/>
<path d="M47.8981 74.445C48.0268 74.6171 48.5445 74.4509 49.1635 74.455C49.7827 74.4367 50.305 74.5911 50.4285 74.4161C50.4829 74.3306 50.4027 74.1591 50.1762 73.9935C49.9531 73.8291 49.5775 73.6906 49.152 73.6953C48.7263 73.7006 48.3555 73.8473 48.1375 74.0171C47.9158 74.1874 47.8414 74.3607 47.8981 74.445Z" fill="#17282F"/>
<path d="M42.7493 82.5062C42.7722 82.1537 42.3233 81.3008 41.8948 81.2276C40.7509 81.0318 38.666 81.0142 38.4858 83.3729C38.2396 86.5974 42.3106 86.1315 42.3248 86.0393C42.3358 85.9676 42.67 83.7229 42.7493 82.5062Z" fill="#F9A78D"/>
<path d="M41.0385 85.0076C41.0301 84.995 41.0019 85.0499 40.9411 85.0939C40.8818 85.1368 40.7814 85.1597 40.679 85.074C40.4713 84.9032 40.3133 84.249 40.3259 83.567C40.3321 83.223 40.381 82.9001 40.4548 82.6364C40.5252 82.3672 40.6265 82.1855 40.7347 82.162C40.8425 82.1282 40.9143 82.2567 40.9355 82.366C40.959 82.4746 40.9437 82.5488 40.9541 82.5561C40.9595 82.5664 40.9994 82.4981 40.9882 82.3406C40.9824 82.2646 40.9618 82.1722 40.9168 82.0944C40.8711 82.0153 40.8015 81.9695 40.7264 81.9761C40.5706 81.9785 40.4225 82.2302 40.3414 82.5193C40.252 82.809 40.1925 83.1711 40.1856 83.5579C40.1736 84.3202 40.3575 85.0565 40.643 85.2478C40.782 85.3329 40.9027 85.2671 40.9666 85.1845C41.0319 85.0988 41.0452 85.0155 41.0385 85.0076Z" fill="#F57F62"/>
<path d="M42.0434 80.9223L42.9319 81.9756C46.7687 77.7777 54.2668 67.2683 53.8482 67.8943C53.8482 67.8943 51.2199 66.6589 48.3671 67.2147C45.5142 67.7697 40.1028 69.4017 40.186 73.2477C40.269 77.0936 42.0434 80.9223 42.0434 80.9223Z" fill="#17282F"/>
<path d="M36.7662 80.3192C36.7603 80.3173 36.7788 80.2369 36.8196 80.0847C36.8615 79.9332 36.9363 79.7142 37.0577 79.4454C37.3008 78.9124 37.7652 78.1902 38.5174 77.5399C39.2582 76.8721 40.2858 76.3274 41.4559 75.8992C42.6241 75.4575 43.941 75.1149 45.2339 74.471C46.535 73.8512 47.6949 73.0519 48.6841 72.228C49.6702 71.3963 50.4846 70.5336 51.1197 69.7576C51.7548 68.9804 52.2165 68.2964 52.528 67.8184C52.6709 67.5904 52.787 67.4052 52.8779 67.2594C52.9594 67.1318 53.0041 67.0671 53.0097 67.0709C53.0147 67.0748 52.9795 67.1474 52.9081 67.2827C52.835 67.4162 52.7323 67.6176 52.5844 67.865C52.2891 68.3605 51.8404 69.062 51.2119 69.858C50.584 70.6528 49.7716 71.5343 48.7813 72.3828C47.788 73.2229 46.6179 74.0358 45.3025 74.6628C43.9928 75.3144 42.6669 75.6531 41.5059 76.0819C40.3405 76.4971 39.3295 77.0178 38.5926 77.6578C37.8452 78.2809 37.3762 78.9726 37.1185 79.485C36.8623 80.0031 36.7843 80.327 36.7662 80.3192Z" fill="#33535F"/>
<path d="M51.9421 85.6978C51.4598 85.2784 50.9992 84.8281 50.474 84.5477C50.3757 84.4948 50.2723 84.4442 50.1691 84.464C50.0361 84.49 49.9252 84.6291 49.8409 84.7847C49.5103 85.3952 49.5092 86.3447 49.8216 86.9837C50.134 87.622 50.7238 87.9119 51.2319 87.7065C51.7404 87.5003 52.0528 86.6852 52.1551 85.9126L51.9421 85.6978Z" fill="#F57F62"/>
<path d="M51.9449 87.3156C51.9652 87.3301 51.6849 87.7268 51.0662 87.7703C50.7645 87.7872 50.3814 87.6519 50.0746 87.2874C49.7659 86.9381 49.5425 86.3313 49.5988 85.6954C49.623 85.3821 49.7051 85.0802 49.8417 84.8349C49.9147 84.7134 49.9794 84.6041 50.1017 84.5124C50.1619 84.4673 50.2516 84.4474 50.3204 84.4673C50.3901 84.4841 50.4425 84.5193 50.4875 84.5491C50.7948 84.7715 51.0888 84.9839 51.371 85.188C51.8702 85.5602 52.1707 85.8108 52.1545 85.8521C52.1383 85.8934 51.8089 85.7176 51.2889 85.3997C50.9992 85.2162 50.6978 85.0259 50.3826 84.8265C50.296 84.7737 50.2579 84.7615 50.2152 84.7959C50.1643 84.8334 50.0952 84.9342 50.0438 85.0275C49.9387 85.2239 49.8719 85.47 49.8521 85.7298C49.8066 86.2549 49.9791 86.7463 50.2331 87.0588C50.4864 87.3791 50.8007 87.5182 51.0684 87.5327C51.6153 87.5571 51.9275 87.2583 51.9449 87.3156Z" fill="#17282F"/>
<path d="M42.7501 86.9438C42.7501 87.8587 42.1759 88.5999 41.4674 88.5999C40.7592 88.5999 40.1851 87.8587 40.1851 86.9438C40.1851 86.0296 40.7592 85.2877 41.4674 85.2877C42.1759 85.2877 42.7501 86.0296 42.7501 86.9438Z" fill="#33535F"/>
<path d="M58.9951 96.8801C58.9951 96.8801 62.8426 98.3215 63.989 102.025C65.1083 105.643 66.6901 110.4 66.6901 110.4L59.3882 112.613L58.9951 96.8801Z" fill="#F2575D"/>
<path d="M34.4549 98.1018L39.2552 96.1315L41.6213 95.2242C42.6879 97.166 45.0309 98.1223 47.4165 98.1018C49.946 98.0807 51.05 96.9408 52.3053 95.2428L53.2909 95.7067L59.2212 97.6329L62.1653 110.964L61.5531 129.196L64.1251 142.375C55.0249 146.366 39.6436 145.502 29.925 140.738L36.6118 126.001L34.2424 99.6727L34.4549 98.1018Z" fill="#398AB9"/>
<path d="M61.6507 112.231L61.781 112.457L55.1731 101.02L51.3 104.47C51.3 104.47 55.323 116.817 57.7395 121.168C60.0878 125.394 64.8352 126.982 67.2255 121.643C68.4505 118.906 65.7588 110.968 65.7588 110.968L61.6507 112.231Z" fill="#F9A78D"/>
<path d="M64.1251 115.925L55.2866 100.838L57.1774 94.4819C57.4773 93.5755 57.5272 92.5976 57.3213 91.6617C56.9801 90.1108 56.4405 87.8131 56.1468 87.3614C55.6955 86.6683 55.4718 87.0472 55.4718 87.0472L50.4451 102.131L52.1967 107.192" fill="#F9A78D"/>
<path d="M52.2789 107.239C52.2709 107.242 52.2236 107.129 52.1388 106.909C52.0482 106.664 51.9282 106.341 51.7771 105.934C51.4611 105.049 51.0154 103.803 50.4564 102.238L50.4451 102.206L50.4562 102.173C51.6381 98.5778 53.3825 93.2724 55.3952 87.1501L55.4003 87.1348L55.4088 87.1188C55.5091 86.9472 55.73 86.9062 55.8661 86.9766C56.004 87.0373 56.0922 87.1317 56.1731 87.2249C56.3314 87.4026 56.4487 87.6545 56.5182 87.869C56.6725 88.3133 56.7944 88.7637 56.914 89.2197C57.1469 90.1352 57.3662 91.0539 57.5627 92.0179C57.7045 92.8446 57.647 93.6989 57.4175 94.4803C57.1908 95.2378 56.9676 95.9848 56.7477 96.7202C56.3092 98.1886 55.8855 99.6086 55.48 100.964L55.4658 100.839C58.0029 105.221 60.1767 108.975 61.7326 111.662C62.4837 112.98 63.0846 114.035 63.5134 114.787C63.7065 115.136 63.8602 115.414 63.9775 115.626C64.0806 115.818 64.1313 115.921 64.1245 115.925C64.1176 115.93 64.0538 115.837 63.9377 115.653C63.8107 115.447 63.6444 115.178 63.4359 114.84C62.9906 114.099 62.367 113.059 61.5873 111.761C60.0093 109.089 57.8041 105.356 55.23 100.998L55.1953 100.94L55.2152 100.873C55.6161 99.5148 56.0364 98.0924 56.4709 96.6216C56.8508 95.1397 57.5929 93.6573 57.2705 92.0755C57.0815 91.1452 56.8582 90.2063 56.6298 89.3049C56.5125 88.8538 56.3912 88.4052 56.2443 87.9817C56.1691 87.7605 56.0922 87.5926 55.9567 87.4351C55.894 87.3603 55.8229 87.2941 55.7625 87.269C55.7044 87.2408 55.6748 87.2653 55.6543 87.2861L55.668 87.2555C53.6121 93.3606 51.8299 98.6519 50.6226 102.237L50.6221 102.172C51.1487 103.75 51.5682 105.006 51.8659 105.898C51.9987 106.312 52.1046 106.642 52.1843 106.891C52.2544 107.117 52.2863 107.236 52.2789 107.239Z" fill="#F57F62"/>
<path d="M50.1707 105.989L50.7931 103.608C50.7931 103.608 54.5167 94.9211 54.7674 93.8321C55.0181 92.7431 56.0703 88.7242 55.2941 87.9416C55.2941 87.9416 55.8687 85.8653 55.129 85.7137C54.39 85.5621 54.0396 86.6696 54.0396 86.6696C54.0396 86.6696 54.1511 85.5422 53.7732 85.3477C53.1851 85.0444 52.7181 85.9888 52.7181 85.9888C52.7181 85.9888 52.0742 85.4136 51.3512 86.765C51.3512 86.765 48.1511 92.928 47.7531 93.3496C47.3548 93.7713 46.7037 92.4826 46.7037 92.4826C46.7037 92.4826 46.2024 90.7167 45.627 90.0064C45.1909 89.4677 44.461 89.9015 44.461 89.9015C44.461 89.9015 44.4008 92.1736 45.1854 94.9211C45.5205 96.0946 46.4201 100.284 46.4201 100.284L44.8415 104.135" fill="#F9A78D"/>
<path d="M44.9576 104.149C44.9514 104.146 44.9804 104.055 45.0423 103.884C45.1149 103.69 45.2083 103.441 45.3252 103.13C45.5914 102.447 45.9634 101.492 46.4314 100.293L46.4265 100.35C46.1348 99.099 45.7852 97.6007 45.3871 95.8942C45.2057 95.0365 44.9178 94.1357 44.7545 93.1523C44.5844 92.1695 44.4602 91.1303 44.46 90.0224V89.9342L44.5275 89.898C44.8125 89.7444 45.1333 89.6517 45.472 89.771C45.636 89.8282 45.7893 89.9723 45.8829 90.1145C45.9864 90.2548 46.0703 90.4059 46.1517 90.5589C46.4652 91.1779 46.6984 91.8426 46.9057 92.5403L46.8943 92.5104C47.0458 92.7955 47.232 93.0996 47.4513 93.2875C47.5716 93.384 47.649 93.3954 47.7109 93.3275C47.7952 93.217 47.89 93.0564 47.9788 92.9072C48.3341 92.2927 48.6798 91.6458 49.0297 90.9893C49.7185 89.6663 50.429 88.3013 51.1538 86.9085C51.3107 86.6107 51.4905 86.3072 51.7551 86.0838C52.0126 85.8565 52.4198 85.7543 52.7407 86.0152L52.5277 86.0641C52.6521 85.8305 52.7924 85.6305 52.9916 85.4686C53.1787 85.3029 53.4787 85.2235 53.7202 85.3499C53.8661 85.4146 53.9563 85.5727 53.9987 85.699C54.0449 85.8317 54.0681 85.9619 54.0818 86.0889C54.1071 86.3447 54.1049 86.5872 54.084 86.838L53.8111 86.765C53.9382 86.4082 54.1137 86.0825 54.4092 85.8578C54.5562 85.7492 54.74 85.6883 54.9177 85.7003C55.0019 85.7009 55.0993 85.7314 55.1951 85.7803C55.2826 85.847 55.3547 85.9308 55.3982 86.0285C55.5567 86.4158 55.5181 86.7815 55.4879 87.1249C55.4493 87.4716 55.3844 87.8004 55.2991 88.1293L55.2595 87.9655C55.4378 88.1833 55.511 88.4442 55.5396 88.6848C55.5748 88.9292 55.5792 89.1679 55.5721 89.4022C55.5572 89.8701 55.5071 90.324 55.4383 90.7652C55.3046 91.6496 55.1186 92.4901 54.9287 93.2983C54.8341 93.6938 54.7504 94.109 54.6041 94.4874C54.4714 94.8651 54.3316 95.227 54.1935 95.5813C53.9107 96.2859 53.6388 96.9627 53.3791 97.6096C52.3219 100.181 51.4369 102.246 50.8245 103.655L50.8277 103.645C50.625 104.385 50.4655 104.968 50.349 105.392C50.2963 105.573 50.2534 105.72 50.2183 105.84C50.1871 105.94 50.1688 105.99 50.1639 105.988C50.159 105.987 50.1676 105.933 50.1889 105.83C50.2164 105.707 50.2499 105.557 50.2912 105.372C50.3946 104.943 50.536 104.355 50.7162 103.607L50.7172 103.603L50.7196 103.597C51.3099 102.14 52.1518 100.062 53.1875 97.5061C53.4412 96.858 53.7065 96.1799 53.9827 95.4733C54.1181 95.1191 54.2552 94.7566 54.3823 94.3852C54.5199 94.0239 54.5953 93.6341 54.6905 93.2247C54.8743 92.419 55.0548 91.5835 55.1813 90.7151C55.2474 90.2814 55.2936 89.8383 55.3057 89.3939C55.3145 88.9648 55.2892 88.4645 55.0795 88.1998L55.0179 88.1223L55.0399 88.0353C55.1181 87.7312 55.1808 87.4068 55.2155 87.0862C55.249 86.7713 55.2584 86.4196 55.1555 86.1841C55.0801 85.9638 54.7592 85.9835 54.5584 86.1314C54.3454 86.2876 54.1776 86.584 54.0769 86.8754L53.7098 87.9369L53.8039 86.8018C53.8215 86.5828 53.8232 86.3479 53.8006 86.1295C53.7786 85.9168 53.7142 85.6883 53.6113 85.6527C53.3152 85.4895 52.9674 85.8559 52.777 86.2253L52.6978 86.3803L52.564 86.2742C52.3945 86.1403 52.1227 86.1707 51.9218 86.3523C51.7116 86.5294 51.5477 86.7955 51.4004 87.0767C50.6822 88.4766 49.9726 89.8434 49.2705 91.1601C48.918 91.8178 48.5714 92.4635 48.2083 93.0875C48.1122 93.2437 48.0301 93.3942 47.9005 93.5586C47.8204 93.6424 47.686 93.7154 47.5697 93.6837C47.4547 93.6652 47.3674 93.6068 47.2933 93.5465C47.0056 93.292 46.8308 92.9847 46.6595 92.666L46.6535 92.6545L46.6481 92.6361C46.4506 91.9613 46.2199 91.2985 45.9267 90.7138C45.7713 90.4313 45.6165 90.1304 45.3899 90.0523C45.1608 89.9615 44.8714 90.032 44.6442 90.1551L44.7117 90.0313C44.7061 91.096 44.8215 92.1346 44.9819 93.0996C45.1362 94.0716 45.4097 94.9521 45.586 95.8231C45.9639 97.5411 46.2958 99.0495 46.5729 100.308L46.5793 100.338L46.5679 100.366C46.0729 101.551 45.679 102.494 45.3972 103.169C45.2659 103.473 45.1608 103.715 45.0793 103.904C45.0051 104.069 44.9638 104.152 44.9576 104.149Z" fill="#F57F62"/>
<path d="M49.5923 93.5674C49.6147 93.5828 49.9043 93.2203 50.308 92.5901C50.7119 91.9606 51.217 91.0561 51.6836 90.0148C52.149 88.9734 52.4928 87.9995 52.7119 87.2866C52.931 86.5736 53.0328 86.1237 53.0058 86.1157C52.9748 86.1064 52.8205 86.5409 52.5643 87.2378C52.3088 87.9347 51.9441 88.8933 51.4822 89.9267C51.0192 90.9587 50.5413 91.8659 50.1739 92.5114C49.8077 93.1575 49.5643 93.5487 49.5923 93.5674Z" fill="#F57F62"/>
<path d="M51.3027 94.3957C51.3265 94.4087 51.5106 94.0122 51.7865 93.3599C52.0624 92.7069 52.4304 91.7973 52.7965 90.7704C53.1627 89.7435 53.4486 88.7909 53.6261 88.0922C53.8048 87.3928 53.8845 86.9513 53.861 86.9438C53.8335 86.9343 53.7081 87.3601 53.4978 88.0424C53.2875 88.7254 52.984 89.663 52.6196 90.6851C52.2593 91.6677 51.9335 92.5568 51.6635 93.2944C51.4192 93.9631 51.2785 94.3827 51.3027 94.3957Z" fill="#F57F62"/>
<path d="M53.8671 94.3956C53.8836 94.4086 54.0526 94.1275 54.2753 93.6346C54.4986 93.1424 54.7644 92.4325 54.9934 91.6205C55.222 90.8078 55.375 90.0522 55.4656 89.5017C55.5566 88.9506 55.5895 88.6052 55.5692 88.5998C55.5198 88.5868 55.2951 89.9476 54.8438 91.5569C54.6172 92.3606 54.3712 93.0687 54.1756 93.5722C53.9809 94.0757 53.8463 94.3801 53.8671 94.3956Z" fill="#F57F62"/>
<path d="M29.925 111.777C29.925 111.777 33.6206 125.304 34.9534 127.453C37.3941 131.387 42.5826 132.239 44.5062 128.099C46.5618 123.676 51.3001 103.36 51.3001 103.36L46.5475 101.02L40.0665 116.062L37.8858 109.227L29.925 111.777Z" fill="#F9A78D"/>
<path d="M34.4129 97.7082C34.4129 97.7082 29.4578 99.9812 29.0757 107.478C28.9823 109.311 30.086 119.237 30.086 119.237L39.3301 114.728L37.1134 105.976L34.4129 97.7082Z" fill="#F2575D"/>
<path d="M39.3245 115.925C39.2582 115.953 38.633 113.937 37.928 111.422C37.2227 108.906 36.7047 106.845 36.7708 106.817C36.837 106.789 37.4622 108.804 38.1673 111.32C38.8725 113.835 39.3904 115.897 39.3245 115.925Z" fill="#61A1C7"/>
<path d="M38.4721 84.4579C38.4537 84.487 38.1916 84.1684 37.8649 83.5153C37.5379 82.8664 37.1691 81.8566 36.955 80.6404C36.7435 79.4229 36.7336 78.2677 36.8053 77.4567C36.8754 76.6429 36.999 76.1678 37.0244 76.1796C37.1015 76.19 36.7568 78.1853 37.1837 80.5476C37.5848 82.9204 38.5355 84.39 38.4721 84.4579Z" fill="#33535F"/>
<path d="M60.7225 104.332C60.8165 104.316 61.2658 105.967 61.7258 108.019C62.0951 109.666 62.3591 111.072 62.3971 111.556L62.4151 111.785L62.2991 111.593C62.2244 111.47 62.1971 111.405 62.2131 111.396C62.2284 111.386 62.2857 111.432 62.3884 111.538L62.2904 111.575C62.1171 111.115 61.7544 109.727 61.3858 108.08C60.9251 106.027 60.6285 104.349 60.7225 104.332Z" fill="#61A1C7"/>
<path d="M37.7114 123.377C37.3728 121.067 37.9899 117.267 39.3301 115.925L37.7114 123.377Z" fill="#F9A78D"/>
<path d="M39.3281 115.928C39.3549 115.978 39.1067 116.262 38.8355 116.861C38.5572 117.452 38.2787 118.369 38.0867 119.427C37.6813 121.563 37.8725 123.366 37.8068 123.377C37.7771 123.388 37.669 122.949 37.6332 122.207C37.5944 121.468 37.6363 120.434 37.8342 119.336C38.0326 118.239 38.3526 117.293 38.6856 116.709C39.013 116.115 39.3152 115.894 39.3281 115.928Z" fill="#F57F62"/>
</svg>
