<svg width="119" height="203" viewBox="0 0 119 203" fill="none" xmlns="http://www.w3.org/2000/svg">
<path d="M38.3795 39.6186L32.4063 39.2084C29.8885 41.9585 26.7129 43.9519 23.093 44.8016C12.6819 47.2466 2.55412 39.3256 0.470354 27.1096C-1.61342 14.8946 5.1373 3.01003 15.5484 0.565018C25.9586 -1.87899 36.0873 6.04205 38.1711 18.257C39.0408 23.3582 38.3657 28.3978 36.5325 32.72L36.5394 32.7109L38.3795 39.6186Z" fill="white"/>
<path d="M38.3793 39.6186C38.3793 39.6186 38.3466 39.4742 38.2709 39.1812C38.1934 38.877 38.0805 38.4396 37.9324 37.8647C37.625 36.6846 37.1739 34.9499 36.5866 32.6938L36.5608 32.5958L36.5022 32.6716L36.4953 32.6817L36.5763 32.7463C37.681 30.1558 38.7332 26.4388 38.6101 21.9115C38.5817 20.786 38.4741 19.617 38.2803 18.4248C38.0366 17.2478 37.8231 16.0101 37.4055 14.8068C36.6452 12.3779 35.4741 9.93999 33.8484 7.76171C32.2279 5.58342 30.1562 3.66883 27.734 2.29174C25.3179 0.911625 22.5504 0.0780983 19.6667 0.00737381C16.7839 -0.0835571 13.8029 0.676216 11.0553 2.19273C8.31191 3.7143 5.78555 6.02596 3.90412 9.0206C3.66992 9.39846 3.42796 9.76823 3.20151 10.1491C2.99743 10.5482 2.79422 10.9463 2.591 11.3423L2.28705 11.9374L2.03131 12.5608C1.86255 12.9771 1.69377 13.3913 1.52586 13.8055C1.37087 14.2258 1.25378 14.6633 1.11601 15.0897C0.991161 15.5211 0.830983 15.9384 0.750904 16.3839C0.566637 17.2639 0.336751 18.1288 0.252367 19.0239C-0.240161 22.5652 0.00351462 26.1458 0.849939 29.3971C1.71703 32.6453 3.18342 35.5439 5.00198 37.8869C6.81968 40.2349 8.98095 42.0313 11.2275 43.2447C13.4766 44.4642 15.8057 45.0997 18.0135 45.2705C19.1191 45.3887 20.1928 45.2957 21.2261 45.223C22.2499 45.0361 23.2462 44.9067 24.1735 44.5996C27.9105 43.4529 30.6513 41.2231 32.4397 39.2499L32.4036 39.266C34.3496 39.3842 35.847 39.4752 36.8665 39.5368C37.3624 39.5651 37.7404 39.5873 38.0022 39.6025C38.2562 39.6156 38.3793 39.6186 38.3793 39.6186C38.3793 39.6186 38.2424 39.6035 37.9833 39.5823C37.718 39.5611 37.3357 39.5307 36.8346 39.4903C35.8237 39.4125 34.3392 39.2994 32.4096 39.1509L32.3889 39.1498L32.3726 39.166C30.5807 41.1119 27.8468 43.3074 24.1348 44.4268C23.2143 44.7269 22.2249 44.8502 21.2098 45.032C20.1842 45.0987 19.1208 45.1876 18.0247 45.0664C15.8384 44.8875 13.5334 44.251 11.3093 43.0376C9.08772 41.8303 6.95229 40.047 5.15784 37.7202C3.36252 35.4005 1.91679 32.5321 1.06262 29.3203C0.228249 26.1054 -0.00940637 22.5662 0.478816 19.0674C0.562339 18.1833 0.79052 17.3296 0.973065 16.4597C1.05142 16.0192 1.20985 15.607 1.33385 15.1806C1.46989 14.7593 1.58615 14.3269 1.73942 13.9116C1.90475 13.5035 2.07178 13.0933 2.23882 12.6821L2.49113 12.0667L2.79164 11.4787C2.99227 11.0867 3.19289 10.6937 3.39438 10.2997C3.61912 9.92383 3.85762 9.55809 4.08924 9.18528C5.94742 6.22601 8.44364 3.94163 11.1534 2.43623C13.8666 0.935875 16.814 0.18116 19.6633 0.268047C22.5134 0.334728 25.2499 1.15411 27.6419 2.51402C30.0391 3.87091 32.0936 5.76124 33.7021 7.91225C35.3157 10.0643 36.4807 12.4739 37.241 14.8785C37.6578 16.0697 37.873 17.2952 38.1184 18.4612C38.3139 19.6433 38.425 20.8011 38.4568 21.9175C38.5963 26.4075 37.5691 30.1073 36.4876 32.6948L36.3292 33.0737L36.5685 32.7595L36.5763 32.7494L36.4919 32.7281C37.0998 34.959 37.5674 36.6735 37.8851 37.8394C38.0444 38.4173 38.1658 38.8579 38.2502 39.163C38.3328 39.462 38.3793 39.6186 38.3793 39.6186Z" fill="#17282F"/>
<path d="M25.7373 25.5266H15.2125C15.011 25.5266 14.8474 25.3346 14.8474 25.0982C14.8474 24.8618 15.011 24.6698 15.2125 24.6698H25.4316L26.5587 17.1964H14.2206C14.0191 17.1964 13.8555 17.0044 13.8555 16.768C13.8555 16.5306 14.0191 16.3396 14.2206 16.3396H26.9935C27.1012 16.3396 27.2045 16.3952 27.2734 16.4922C27.3431 16.5892 27.3724 16.7175 27.3535 16.8418L26.0963 25.173C26.0653 25.3771 25.9138 25.5266 25.7373 25.5266Z" fill="#F2575D"/>
<path d="M25.3886 28.4404H25.3869L15.3633 28.399C15.1807 28.399 15.0266 28.2384 15.0025 28.0252L13.5757 14.9777H10.6773C10.4759 14.9777 10.3123 14.7867 10.3123 14.5493C10.3123 14.3129 10.4759 14.1209 10.6773 14.1209H13.8969C14.0811 14.1209 14.2361 14.2816 14.2594 14.4947L15.6862 27.5443L25.3903 27.5837C25.5918 27.5847 25.7545 27.7766 25.7537 28.0141C25.7528 28.2495 25.5892 28.4404 25.3886 28.4404Z" fill="#F2575D"/>
<path d="M17 29.6963C16.5135 29.6963 16.1174 30.162 16.1174 30.7329C16.1174 31.3037 16.5135 31.7685 17 31.7685C17.4865 31.7685 17.8834 31.3037 17.8834 30.7329C17.8834 30.162 17.4865 29.6963 17 29.6963ZM17 32.6252C16.1114 32.6252 15.3872 31.7755 15.3872 30.7329C15.3872 29.6892 16.1114 28.8405 17 28.8405C17.8894 28.8405 18.6127 29.6892 18.6127 30.7329C18.6127 31.7755 17.8894 32.6252 17 32.6252Z" fill="#F2575D"/>
<path d="M23.9189 29.6963C23.4324 29.6963 23.0363 30.162 23.0363 30.7329C23.0363 31.3037 23.4324 31.7685 23.9189 31.7685C24.4054 31.7685 24.8024 31.3037 24.8024 30.7329C24.8024 30.162 24.4054 29.6963 23.9189 29.6963ZM23.9189 32.6252C23.0303 32.6252 22.3062 31.7755 22.3062 30.7329C22.3062 29.6892 23.0303 28.8405 23.9189 28.8405C24.8084 28.8405 25.5317 29.6892 25.5317 30.7329C25.5317 31.7755 24.8084 32.6252 23.9189 32.6252Z" fill="#F2575D"/>
<path d="M18.4622 25.5266C18.2702 25.5266 18.1101 25.3518 18.098 25.1245L17.6692 17.063C17.6563 16.8266 17.8096 16.6235 18.0111 16.6084C18.2237 16.5801 18.3856 16.7741 18.3977 17.0095L18.8265 25.0709C18.8394 25.3074 18.6861 25.5104 18.4846 25.5256L18.4622 25.5266Z" fill="#F2575D"/>
<path d="M22.3104 25.5266L22.2897 25.5256C22.0891 25.5125 21.9349 25.3104 21.9461 25.074L22.3302 17.0115C22.3414 16.7771 22.5041 16.5791 22.7151 16.6084C22.9157 16.6225 23.0698 16.8236 23.0586 17.06L22.6746 25.1225C22.6643 25.3498 22.5032 25.5266 22.3104 25.5266Z" fill="#F2575D"/>
<path d="M14.6097 21.4954C14.41 21.4954 14.2472 21.3064 14.2446 21.071C14.2429 20.8346 14.4048 20.6406 14.6063 20.6386L26.3624 20.5042H26.3658C26.5665 20.5042 26.7283 20.6942 26.7309 20.9286C26.7326 21.165 26.5707 21.359 26.3693 21.361L14.6132 21.4954H14.6097Z" fill="#F2575D"/>
<path d="M70.2974 169.316L84.5884 178.273C84.5884 178.273 80.3322 199.719 82.9335 202.015L101.397 169.59L99.3625 168.03L91.6801 164.006L77.1196 155.552L70.2974 169.316Z" fill="#33535F"/>
<path d="M88.0395 166.87C88.5519 166.342 89.4207 166.375 89.8908 166.955C90.3618 167.535 90.3403 168.572 89.8357 169.11C89.3303 169.649 88.2875 169.646 87.8751 169.008C87.4626 168.37 87.5436 167.154 88.1446 166.774" fill="#DADBD8"/>
<path d="M101.397 169.59L99.3624 168.03L82.2341 199.584C82.2341 199.584 81.9491 201.493 82.9333 202.015L101.397 169.59Z" fill="#17282F"/>
<path d="M84.1406 178.7C84.2818 178.803 84.8027 178.039 85.6982 177.584C86.5842 177.102 87.4169 177.155 87.4462 176.963C87.5039 176.792 86.5386 176.392 85.4623 176.965C84.3817 177.527 83.9933 178.638 84.1406 178.7Z" fill="#17282F"/>
<path d="M83.4053 183.148C83.5181 183.288 84.1501 182.767 85.0473 182.669C85.942 182.541 86.6541 182.892 86.7393 182.726C86.8469 182.59 86.0987 181.848 84.9854 181.995C83.8712 182.13 83.2753 183.042 83.4053 183.148Z" fill="#17282F"/>
<path d="M85.8508 187.892C85.9627 187.767 85.3987 187.004 84.4042 186.834C83.4114 186.655 82.6803 187.19 82.757 187.348C82.819 187.528 83.5044 187.35 84.319 187.504C85.1352 187.637 85.7457 188.043 85.8508 187.892Z" fill="#17282F"/>
<path d="M80.2583 177.336C80.4228 177.365 80.6518 176.471 81.2218 175.593C81.7772 174.702 82.4428 174.191 82.3722 174.014C82.3248 173.842 81.4181 174.143 80.7585 175.188C80.0921 176.226 80.1042 177.331 80.2583 177.336Z" fill="#17282F"/>
<path d="M48.2369 150.579L30.4008 163.354L13.8116 168.684C12.111 169.129 11.1914 170.074 11.231 171.317C11.2654 172.367 12.0059 173.204 12.8851 173.401L37.6768 178.944C37.8989 178.994 38.1262 178.942 38.3157 178.797C40.8524 176.865 54.495 167.127 54.495 167.127L48.2369 150.579Z" fill="#33535F"/>
<path d="M38.2107 161.369C38.1969 161.342 38.4165 161.129 38.8806 160.875C39.3413 160.625 40.0594 160.336 40.9868 160.295C41.4354 160.296 41.9856 160.241 42.516 160.671C42.7812 160.883 42.9517 161.354 42.8363 161.768C42.727 162.177 42.4687 162.457 42.1854 162.658C41.0273 163.417 39.3465 163.016 38.4337 161.614C37.5399 160.189 37.6002 158.309 38.2934 157.033C38.4845 156.727 38.754 156.422 39.1415 156.378C39.529 156.331 39.8648 156.678 39.9707 157.012C40.2015 157.697 40.0887 158.305 40.0413 158.831C39.9018 159.902 39.5987 160.712 39.3516 161.234C39.1028 161.757 38.9099 162.002 38.8884 161.984C38.804 161.942 39.5118 160.845 39.7202 158.783C39.752 158.277 39.8132 157.676 39.6246 157.198C39.5342 156.965 39.3654 156.826 39.1743 156.851C38.9891 156.868 38.7842 157.067 38.6387 157.319C38.079 158.38 38.0282 160.098 38.7997 161.288C39.5583 162.48 41.0367 162.83 41.9736 162.23C42.1974 162.081 42.3869 161.86 42.4506 161.631C42.5126 161.405 42.4446 161.172 42.281 161.022C41.9348 160.705 41.419 160.687 40.9911 160.675C39.2216 160.684 38.2391 161.475 38.2107 161.369Z" fill="#17282F"/>
<path d="M11.231 171.317L39.411 177.982L38.4078 178.682C37.9377 179.01 37.3806 179.122 36.8442 178.997L12.5131 173.317C11.9258 173.179 11.4643 172.643 11.3429 171.954L11.231 171.317Z" fill="#17282F"/>
<path d="M31.5769 167.375C31.4468 167.381 31.3349 166.426 30.9431 165.362C30.5634 164.292 30.0545 163.535 30.1492 163.429C30.2259 163.325 30.9354 163.982 31.3556 165.157C31.7835 166.327 31.6948 167.383 31.5769 167.375Z" fill="#17282F"/>
<path d="M27.375 168.57C27.2657 168.546 27.2157 167.67 26.8558 166.641C26.5312 165.596 26.0653 164.91 26.1325 164.806C26.2126 164.667 26.9238 165.317 27.2743 166.451C27.6669 167.566 27.5137 168.609 27.375 168.57Z" fill="#17282F"/>
<path d="M23.7829 169.695C23.6538 169.687 23.6081 168.783 23.3076 167.754C23.0192 166.722 22.5912 165.968 22.6911 165.871C22.7737 165.773 23.4101 166.444 23.733 167.588C24.0628 168.728 23.9 169.715 23.7829 169.695Z" fill="#17282F"/>
<path d="M33.685 163.018C33.6686 162.996 33.8546 162.744 34.3075 162.481C34.7518 162.227 35.5035 161.973 36.4102 162.222L36.5428 162.26L36.5299 162.426C36.4791 163.065 35.916 163.426 35.4398 163.494C34.9602 163.578 34.4651 163.592 33.9355 163.644C33.6686 163.661 33.4111 163.704 33.1158 163.688C32.8316 163.68 32.4528 163.584 32.21 163.262C31.9706 162.957 31.8707 162.589 31.7855 162.254C31.7011 161.915 31.633 161.563 31.584 161.205C31.4824 160.462 31.4712 159.722 31.5314 159.015C31.5693 158.667 31.59 158.319 31.7217 157.95C31.7898 157.773 31.8922 157.584 32.0644 157.461C32.2323 157.338 32.4536 157.317 32.6241 157.38C32.9789 157.502 33.1847 157.866 33.2794 158.167C33.3776 158.478 33.4309 158.762 33.4766 159.052C33.5661 159.626 33.5696 160.172 33.5343 160.661C33.4577 161.645 33.2079 162.399 32.9901 162.877C32.7705 163.358 32.5957 163.581 32.5742 163.565C32.4898 163.525 33.1365 162.515 33.2174 160.638C33.2312 160.175 33.2105 159.664 33.1115 159.134C33.009 158.628 32.885 157.952 32.5122 157.847C32.1548 157.701 32.0007 158.399 31.9689 159.066C31.9172 159.729 31.9318 160.425 32.0266 161.123C32.1325 161.769 32.247 162.514 32.532 162.91C32.8024 163.29 33.4137 163.179 33.9183 163.157C34.4307 163.118 34.9344 163.118 35.3804 163.058C35.8109 163.011 36.1648 162.742 36.2062 162.388L36.3259 162.591C35.5242 162.322 34.8173 162.493 34.3773 162.676C33.9295 162.866 33.7074 163.054 33.685 163.018Z" fill="#17282F"/>
<path d="M38.9287 168.749C38.8391 168.503 38.7022 168.273 38.5042 168.142C38.307 168.011 38.0427 167.999 37.8618 168.16L37.7723 168.124C37.3926 168.318 37.1015 168.748 37.0464 169.231C36.9913 169.713 37.185 170.229 37.5372 170.486C37.8894 170.743 38.3836 170.712 38.6971 170.393C39.0794 170.002 39.1267 169.295 38.9287 168.749Z" fill="white"/>
<path d="M67.46 132.42C67.46 132.42 25.1827 102.787 14.9937 116.84C4.80479 130.893 22.7252 145.983 26.2625 148.831C29.7989 151.679 69.6084 171.609 69.6084 171.609L76.9309 155.167L67.46 132.42Z" fill="#17282F"/>
<path d="M34.6733 156.674C34.6733 156.674 86.8994 123.722 92.6323 120.479C97.5576 117.692 111.409 108.931 115.88 126.253C120.351 143.576 93.5011 164.96 93.5011 164.96L82.3771 158.17L67.0054 166.698L47.8321 177.501L34.6733 156.674Z" fill="#17282F"/>
<path d="M77.0791 176.113C76.578 175.763 56.2742 164.407 56.2742 164.407L77.5467 153.808L89.6326 162.225L77.0791 176.113Z" fill="#17282F"/>
<path d="M96.0612 150.579C96.0638 150.586 95.9863 150.638 95.833 150.73C95.6608 150.833 95.4343 150.966 95.145 151.137C94.5156 151.497 93.6183 152.011 92.4662 152.669C90.1026 154 86.6954 155.919 82.4314 158.319C73.838 163.111 61.7986 169.826 47.9209 177.566L47.7616 177.655L47.6548 177.488C44.2149 172.089 40.5313 166.309 36.7323 160.347C35.965 159.143 35.2039 157.946 34.4944 156.831L34.3394 156.588L34.5667 156.443C51.1869 145.823 66.1272 136.381 77.0627 129.938C82.5253 126.705 86.964 124.173 90.0501 122.485C91.5871 121.625 92.7943 120.996 93.608 120.561C94.0015 120.355 94.3098 120.194 94.538 120.076C94.7481 119.969 94.8574 119.918 94.86 119.926C94.8634 119.934 94.761 120.001 94.556 120.122C94.333 120.252 94.0308 120.428 93.645 120.654C92.8201 121.125 91.6379 121.798 90.1233 122.663C87.0605 124.407 82.6449 126.987 77.203 130.261C66.308 136.786 51.3987 146.278 34.7802 156.905L34.8525 156.517C35.5621 157.631 36.3241 158.828 37.0913 160.033C40.886 165.998 44.5653 171.782 48.0018 177.184L47.7358 177.106C61.6411 169.434 73.7037 162.778 82.3134 158.027C86.6007 155.683 90.0268 153.811 92.4034 152.512C93.5684 151.885 94.4751 151.398 95.1123 151.056C95.4085 150.902 95.641 150.781 95.8166 150.69C95.9759 150.609 96.0577 150.572 96.0612 150.579Z" fill="#33535F"/>
<path d="M35.0058 122.531C35.0161 122.496 35.4312 122.643 36.1751 122.937C36.9251 123.216 37.9825 123.703 39.2844 124.32C41.8762 125.586 45.3868 127.529 49.1513 129.918C52.9211 132.302 56.2551 134.62 58.6351 136.361C59.8242 137.232 60.7783 137.953 61.4284 138.467C62.0793 138.98 62.4289 139.284 62.4117 139.315C62.3953 139.345 62.0147 139.1 61.3362 138.641C60.5854 138.127 59.6236 137.469 58.4706 136.679C56.0528 135.023 52.6989 132.76 48.9395 130.382C45.1836 127.998 41.7083 126.009 39.1587 124.662C37.8775 124.003 36.8425 123.465 36.114 123.129C35.3916 122.776 34.9955 122.565 35.0058 122.531Z" fill="#33535F"/>
<path d="M77.0792 176.113C77.0585 176.087 77.2901 175.783 77.7276 175.256C78.2399 174.656 78.8685 173.923 79.609 173.059C81.2114 171.22 83.4467 168.708 85.9335 165.956C87.1932 164.573 88.3918 163.257 89.4914 162.049L89.5276 162.433C87.6367 161.093 86.0368 159.94 84.9157 159.11C83.7946 158.281 83.1514 157.775 83.1755 157.727C83.1987 157.681 83.8859 158.101 85.0431 158.858C86.2013 159.615 87.8295 160.712 89.7376 162.017L89.9736 162.179L89.7738 162.401C88.682 163.617 87.492 164.945 86.2409 166.338C83.7541 169.09 81.4844 171.561 79.8268 173.329C79.0476 174.146 78.3863 174.839 77.8473 175.404C77.3728 175.886 77.1007 176.14 77.0792 176.113Z" fill="#33535F"/>
<path d="M74.5906 52.0499C75.0237 52.0802 90.0303 52.935 92.883 56.6954C95.7348 60.4559 102.081 117.473 102.081 117.473C98.8089 117.97 95.0555 119.934 93.0337 120.951L67.7047 135.819L54.7956 126.289C53.3155 125.195 53.0571 122.787 54.2583 121.297L42.8647 58.2473C42.8647 58.2473 45.6227 55.5052 50.0417 53.9392C54.4607 52.3732 74.5906 52.0499 74.5906 52.0499Z" fill="#F2575D"/>
<path d="M47.7437 56.0133C47.7437 56.0133 43.1749 56.8751 41.2858 60.0244C36.8582 67.4029 23.0666 93.7434 20.6521 100.115C18.0956 106.861 19.6068 111.563 21.7336 113.97C24.8292 117.473 32.7552 117.857 37.3077 112.774C39.2606 110.594 50.0368 100.392 50.0368 100.392L47.7437 56.0133Z" fill="#398AB9"/>
<path d="M42.1139 65.7572C42.1035 65.7622 42.1535 65.9512 42.2585 66.3068C42.3765 66.6928 42.5341 67.208 42.7313 67.8536C43.1248 69.2045 43.6707 71.1676 44.2786 73.6176C45.5108 78.5137 46.9789 85.3567 48.5202 92.9353C50.0219 100.513 51.3806 107.37 52.3734 112.377C52.8711 114.863 53.287 116.873 53.5858 118.258C53.7365 118.922 53.857 119.451 53.9466 119.848C54.0327 120.21 54.0826 120.399 54.0938 120.396C54.1042 120.393 54.0749 120.198 54.0086 119.83C53.9337 119.429 53.8329 118.895 53.7063 118.224C53.436 116.792 53.0571 114.785 52.5921 112.319C51.6519 107.332 50.362 100.437 48.8284 92.8494C47.2871 85.2668 45.7829 78.4278 44.4938 73.5429C43.8567 71.0978 43.2772 69.1428 42.8475 67.8041C42.6262 67.1676 42.4497 66.6594 42.318 66.2795C42.194 65.932 42.1234 65.7521 42.1139 65.7572Z" fill="#17282F"/>
<path d="M87.2715 53.9068C87.2715 53.9068 90.8638 53.8361 94.9926 58.4149C96.701 60.3103 116.494 94.6122 118.322 104.088C119.383 109.584 113.752 120.424 108.306 119.512C101.185 118.318 74.9368 104.396 74.9368 104.396L81.722 89.4444L96.7561 93.3321L86.3657 79.5663L86.1185 54.1846" fill="#398AB9"/>
<path d="M26.2625 97.2968C26.2685 97.3079 26.365 97.2483 26.5432 97.1261C26.7507 96.9775 27.0056 96.7947 27.3147 96.5734C28.0165 96.0511 28.9645 95.3448 30.1183 94.485C32.4785 92.7079 35.7264 90.2315 39.3033 87.4773C40.1222 86.8459 40.9229 86.2276 41.6944 85.6325L41.48 85.582C43.5018 89.0747 45.2997 92.1219 46.612 94.281C47.9199 96.4421 48.7603 97.708 48.8197 97.6494C48.4555 97.024 47.87 96.0187 46.7799 94.1446C45.4909 91.9026 43.7343 88.8484 41.7384 85.3769L41.6523 85.2283L41.5231 85.3274C40.7516 85.9204 39.9491 86.5367 39.1294 87.1662C35.5525 89.9203 32.3244 92.432 29.9952 94.2648C28.8646 95.165 27.9356 95.9046 27.2467 96.4522C26.9505 96.6977 26.7068 96.8987 26.5079 97.0634C26.3417 97.2059 26.2565 97.2867 26.2625 97.2968Z" fill="#17282F"/>
<path d="M69.6084 83.1481L81.3326 90.3003L75.9226 102.223L68.6836 95.8743L69.6084 83.1481Z" fill="#F9A78D"/>
<path d="M58.1677 83.5734L50.4319 76.6233C50.1598 76.3788 49.824 76.2515 49.4813 76.2626L38.8945 76.598C38.4666 76.6112 38.1153 77.0133 38.1092 77.5154C38.1032 78.0064 38.1738 78.5722 38.4838 78.8581C39.0986 79.4239 54.8991 93.9617 54.8991 93.9617L67.7651 92.4573L58.1677 83.5734Z" fill="#DADBD8"/>
<path d="M69.6084 83.1479C69.6084 83.1479 65.4478 79.0712 64.4369 78.7934C63.426 78.5156 58.8305 78.2276 58.8305 78.2276L54.8386 80.5524L57.1359 82.6216C58.8193 82.3074 59.3334 81.5799 59.3334 81.5799L61.994 81.9719L69.6084 83.1479Z" fill="#F9A78D"/>
<path d="M64.8028 81.1709L57.7877 83.4725L47.8321 84.4323C47.8321 84.4323 47.6547 86.7753 49.6696 87.1683C50.8536 87.3997 52.9287 87.7098 52.9287 87.7098C52.9287 87.7098 53.3248 89.874 54.8368 90.4539C54.8368 90.4539 55.431 92.0068 56.2232 92.616C56.3179 92.6888 56.416 92.7484 56.5168 92.7898C57.451 93.1788 59.1904 96.327 60.4363 96.818C61.6814 97.3091 68.6836 95.8744 68.6836 95.8744L69.6084 83.1482L64.8028 81.1709Z" fill="#F9A78D"/>
<path d="M62.4479 87.6147C62.441 87.5794 61.8977 87.7127 61.0116 87.8582C60.1265 88.0047 58.8952 88.1421 57.5321 88.1532C56.1673 88.1633 54.9351 88.0451 54.0482 87.9077C53.1614 87.7734 52.618 87.643 52.6111 87.6784C52.6085 87.6925 52.7411 87.74 52.9857 87.8138C53.2285 87.8875 53.585 87.9754 54.0293 88.0623C54.9162 88.2401 56.1578 88.3846 57.533 88.3745C58.9072 88.3624 60.1471 88.1987 61.0323 88.0118C61.4757 87.9199 61.8314 87.8299 62.0742 87.7521C62.3179 87.6774 62.4505 87.6289 62.4479 87.6147Z" fill="#F57F62"/>
<path d="M60.9563 90.8276C60.9365 90.8307 60.9115 91.1338 60.9882 91.6278C61.0329 91.8703 61.113 92.1744 61.3197 92.4341C61.5229 92.6968 61.8587 92.8443 62.1928 92.8403C62.5295 92.8423 62.8386 92.7332 63.0952 92.6018C63.3527 92.4705 63.5697 92.331 63.7548 92.2239C64.1216 92.0027 64.3662 91.9208 64.361 91.8895C64.3584 91.8612 64.0906 91.8915 63.7005 92.0815C63.3096 92.2512 62.8033 92.621 62.1945 92.62C61.8949 92.621 61.6202 92.5038 61.4437 92.2926C61.2637 92.0825 61.175 91.8158 61.1173 91.5905C61.0114 91.1307 60.9873 90.8226 60.9563 90.8276Z" fill="#F57F62"/>
<path d="M55.8443 91.2731C55.8383 91.3014 56.119 91.4136 56.5831 91.5469C57.0481 91.6823 57.6973 91.8328 58.4224 91.9409C59.1474 92.048 59.8078 92.0915 60.2866 92.0965C60.7653 92.1016 61.0607 92.0753 61.0607 92.046C61.0615 91.9814 59.8836 91.9379 58.4456 91.7217C57.0076 91.5116 55.8572 91.2095 55.8443 91.2731Z" fill="#F57F62"/>
<path d="M60.8869 94.974C60.8542 95.0154 61.3003 95.4599 61.9891 95.6307C62.6762 95.8085 63.2393 95.6185 63.2238 95.566C63.2161 95.5003 62.6728 95.5832 62.0287 95.4155C61.3829 95.2569 60.9171 94.9184 60.8869 94.974Z" fill="#F57F62"/>
<path d="M58.4172 94.6587C58.4077 94.7184 58.7341 94.8436 59.1465 94.9376C59.559 95.0316 59.9017 95.0588 59.912 94.9992C59.9215 94.9396 59.5951 94.8153 59.1827 94.7214C58.7694 94.6264 58.4275 94.5991 58.4172 94.6587Z" fill="#F57F62"/>
<path d="M57.7879 83.4724C57.8051 83.5583 59.2835 83.1077 61.0677 82.4287C61.9614 82.0913 62.7639 81.7619 63.3383 81.5023C63.9143 81.2456 64.2588 81.0486 64.2484 81.0213C64.2381 80.993 63.8799 81.1375 63.2944 81.3558C62.6494 81.5993 61.871 81.8933 61.01 82.2186C60.1498 82.547 59.3722 82.843 58.7273 83.0885C58.1435 83.3168 57.7853 83.4472 57.7879 83.4724Z" fill="#F57F62"/>
<path d="M47.5628 85.6972C47.5628 85.6972 48.3429 85.4406 47.5903 83.9756C46.8377 82.5106 44.4578 84.0614 44.4578 84.0614L41.4199 85.9134C41.4199 85.9134 40.6708 87.6593 41.4647 88.1897L42.0261 89.104C42.0261 89.104 40.8129 90.3851 41.2159 91.6127C41.618 92.8402 42.7615 92.7453 42.7615 92.7453C42.7615 92.7453 42.5083 95.1499 43.13 96.1238C43.7525 97.0968 44.3579 97.2211 44.3579 97.2211C44.3579 97.2211 44.8203 99.2599 46.7637 99.9853C48.708 100.71 49.7352 100.823 50.319 99.8873C50.9037 98.9518 51.3015 97.7384 51.3015 97.7384C51.3015 97.7384 55.6559 95.4247 55.8109 94.1123C55.965 92.7998 55.7816 92.6634 55.7816 92.6634C55.7816 92.6634 56.176 91.5905 55.7885 90.7549C55.401 89.9194 53.6892 90.5074 53.6892 90.5074L48.2258 91.6258C48.2258 91.6258 52.6559 89.5395 53.2088 88.7969C53.7607 88.0543 53.2587 87.0662 51.5133 87.1884C49.7671 87.3117 44.4776 88.1068 44.4776 88.1068C44.4776 88.1068 44.7677 87.5107 45.1259 87.3642C45.485 87.2167 46.6035 86.5489 46.6035 86.5489L47.5628 85.6972Z" fill="#F9A78D"/>
<path d="M45.8018 95.1954C45.813 95.255 48.0319 94.7489 50.7572 94.0659C53.4842 93.3819 55.6842 92.7797 55.6739 92.7201C55.6627 92.6605 53.4446 93.1666 50.7176 93.8496C47.9923 94.5337 45.7915 95.1358 45.8018 95.1954Z" fill="#F57F62"/>
<path d="M48.2025 98.8204C48.2155 98.879 48.9336 98.7254 49.8024 98.4516C50.2373 98.3142 50.6265 98.1697 50.9037 98.0424C51.0424 97.9788 51.1517 97.9191 51.2249 97.8656L51.3041 97.7878L51.3015 97.7383C51.3325 97.7615 50.6161 97.9646 49.7542 98.2384C48.888 98.5122 48.1905 98.7608 48.2025 98.8204Z" fill="#F57F62"/>
<path d="M43.8887 92.2714C43.8982 92.3331 44.9616 92.1552 46.2773 91.9926C47.5922 91.8279 48.6634 91.739 48.6616 91.6753C48.6608 91.6177 47.5801 91.6076 46.2575 91.7733C44.9341 91.937 43.8801 92.2138 43.8887 92.2714Z" fill="#F57F62"/>
<path d="M42.7338 88.9111C42.7656 88.9646 43.21 88.6413 43.8179 88.4312C44.4241 88.214 44.9476 88.1968 44.9484 88.1311C44.9545 88.0755 44.4051 87.9917 43.7645 88.22C43.1221 88.4433 42.7028 88.8677 42.7338 88.9111Z" fill="#F57F62"/>
<path d="M38.5825 77.7013C38.5834 77.7094 38.6514 77.7084 38.7814 77.7003C38.9313 77.6882 39.119 77.674 39.3472 77.6558C39.838 77.6154 40.5483 77.5558 41.4275 77.5002C43.1832 77.3861 45.6148 77.3022 48.297 77.4113C48.9644 77.4447 49.6394 77.4144 50.1604 77.7973C50.4213 77.9812 50.6563 78.2226 50.8957 78.4439C51.1334 78.6672 51.3667 78.8864 51.594 79.0996C52.4999 79.9463 53.3187 80.7111 54.0145 81.3607C54.6913 81.9831 55.2467 82.4943 55.6557 82.8702C55.8382 83.0328 55.988 83.1652 56.1086 83.2723C56.2128 83.3622 56.2696 83.4066 56.2739 83.4006C56.2782 83.3945 56.2291 83.3379 56.1318 83.2369C56.0173 83.1217 55.8752 82.9783 55.7022 82.8035C55.3026 82.4135 54.7593 81.8851 54.0971 81.2395C53.4092 80.5797 52.5989 79.8018 51.7025 78.942C51.4769 78.7258 51.2453 78.5055 51.0085 78.2802C50.7709 78.0579 50.5367 77.8134 50.2542 77.6124C49.9727 77.4063 49.636 77.2992 49.3045 77.2547C48.9712 77.2093 48.6397 77.2072 48.3031 77.1911C45.614 77.082 43.1763 77.1901 41.4189 77.3446C40.5397 77.4204 39.8302 77.5033 39.3403 77.571C39.1129 77.6053 38.927 77.6336 38.7771 77.6558C38.6488 77.6781 38.5817 77.6942 38.5825 77.7013Z" fill="#17282F"/>
<path d="M45.1009 79.25C45.1887 79.0843 45.4126 79.0146 45.6218 79.056L45.6012 79.048L45.6838 79.0722L45.7183 79.0823C45.875 79.1369 46.0222 79.2308 46.1169 79.3844C46.2358 79.5764 46.2452 79.8704 46.0997 80.0351C46.0196 80.125 45.9068 80.1644 45.7966 80.1775C45.5796 80.2048 45.3463 80.1371 45.193 79.9542C45.0389 79.7724 44.9864 79.4683 45.1009 79.25Z" fill="white"/>
<path d="M95.2311 114.655C95.2346 114.644 95.1054 114.569 94.8532 114.43C94.5785 114.284 94.2082 114.085 93.7381 113.835C92.7375 113.315 91.3176 112.579 89.543 111.658C85.9265 109.813 80.8686 107.231 74.9962 104.233L75.0703 104.479C76.4626 101.417 77.9763 98.0879 79.5461 94.6346C80.3348 92.8958 81.1088 91.1883 81.8597 89.5304L81.6892 89.6243C87.2697 91.0085 92.338 92.2663 96.4461 93.2848L96.4314 93.2807C99.7904 94.6396 102.288 96.4239 103.928 97.7666C104.749 98.4415 105.362 99.0114 105.777 99.3993C105.969 99.5842 106.124 99.7317 106.246 99.8469C106.353 99.9459 106.409 99.9944 106.414 99.9894C106.418 99.9843 106.369 99.9247 106.27 99.8146C106.155 99.6913 106.006 99.5327 105.823 99.3357C105.422 98.9255 104.821 98.3334 104.007 97.6353C102.386 96.2471 99.8895 94.4123 96.5115 93.0089L96.5046 93.0059L96.4969 93.0039C92.3931 91.9632 87.33 90.6791 81.7547 89.2646L81.6393 89.2353L81.5833 89.3576C80.8307 91.0145 80.0558 92.721 79.2662 94.4598C77.7008 97.9161 76.1913 101.247 74.8033 104.312L74.7258 104.483L74.8765 104.559C80.767 107.507 85.8413 110.046 89.4681 111.862C91.2574 112.743 92.6893 113.447 93.6985 113.944C94.1763 114.172 94.5535 114.352 94.8325 114.486C95.0917 114.606 95.2277 114.664 95.2311 114.655Z" fill="#17282F"/>
<path d="M87.9129 81.9498C87.8794 81.9821 88.3133 82.6853 89.0504 83.7886C89.7875 84.8919 90.8259 86.3973 92.0065 88.028C93.187 89.6587 94.2883 91.1045 95.1321 92.1037C95.554 92.6028 95.9105 92.9918 96.1861 93.2282C96.3299 93.3363 96.4306 93.4454 96.564 93.4201L96.6036 93.2848L96.5838 93.2464L96.5442 93.3484C96.496 93.3484 96.3798 93.2393 96.2635 93.115C96.0224 92.8544 95.6927 92.4421 95.2948 91.9238C94.4984 90.8852 93.4272 89.4152 92.2475 87.7865C91.0989 86.2043 90.0587 84.7727 89.2235 83.6219C88.4425 82.5611 87.9474 81.9175 87.9129 81.9498Z" fill="#17282F"/>
<path d="M85.3692 74.74C85.4329 74.7329 85.2986 73.6124 85.3864 71.809C85.4243 70.9078 85.5526 69.8418 85.7704 68.6789C86.0081 67.5221 86.3474 66.2713 86.8244 65.0155C87.3143 63.7667 87.8921 62.6422 88.4776 61.6702C89.0787 60.7104 89.6771 59.8951 90.2299 59.2676C91.3277 58.0007 92.1337 57.3813 92.0967 57.3197C92.0846 57.2985 91.8797 57.444 91.5163 57.7269C91.3329 57.8643 91.1133 58.0431 90.8766 58.2765C90.6372 58.5068 90.3513 58.7534 90.0749 59.0777C89.4945 59.69 88.8668 60.5013 88.2417 61.4671C87.6321 62.4462 87.0345 63.5878 86.5351 64.8619C86.0486 66.142 85.711 67.4211 85.4846 68.6042C85.2788 69.7933 85.172 70.8815 85.1625 71.7979C85.1367 72.2545 85.1668 72.6698 85.1772 73.0325C85.1832 73.3952 85.2142 73.7064 85.2469 73.96C85.3055 74.4662 85.3477 74.743 85.3692 74.74Z" fill="#17282F"/>
<path d="M67.2154 126.882C67.2128 126.817 66.4473 126.856 65.2229 126.735C63.9994 126.618 62.3177 126.283 60.5542 125.544C58.7934 124.797 57.3141 123.798 56.3075 122.975C55.2975 122.153 54.7292 121.551 54.6922 121.598C54.6767 121.618 54.8067 121.783 55.0547 122.069C55.2992 122.359 55.6815 122.745 56.1758 123.188C57.1617 124.077 58.653 125.134 60.4475 125.893C62.2437 126.647 63.9658 126.947 65.2083 126.998C65.83 127.026 66.3346 127.014 66.6807 126.974C67.0269 126.938 67.2171 126.907 67.2154 126.882Z" fill="#17282F"/>
<path d="M58.97 110.509C58.9527 110.526 59.0879 110.751 59.3462 111.148C59.6046 111.543 59.9912 112.103 60.4803 112.784C61.4584 114.146 62.8611 115.979 64.4937 117.909C66.1288 119.837 67.6831 121.493 68.8378 122.649C69.4155 123.227 69.89 123.685 70.2266 123.99C70.5616 124.295 70.7536 124.454 70.7674 124.436C70.782 124.416 70.6167 124.219 70.3067 123.88C69.9442 123.488 69.5042 123.011 68.9867 122.452C67.8725 121.249 66.3484 119.568 64.7193 117.646C63.091 115.723 61.6677 113.926 60.649 112.611C60.1763 112.001 59.7725 111.482 59.441 111.054C59.1534 110.688 58.9863 110.493 58.97 110.509Z" fill="#17282F"/>
<path d="M72.8392 35.3965C73.4015 31.7623 73.9492 28.1039 73.9707 24.4111C73.9913 20.7173 73.4618 16.9558 71.9799 13.6975C71.7551 13.2034 69.9478 9.93699 69.4836 10.0673C69.1513 10.1593 70.3921 13.2761 70.262 13.6459C69.0161 17.174 69.029 21.178 69.723 24.9092C70.4179 28.6404 71.4779 31.927 72.8392 35.3965Z" fill="#17282F"/>
<path d="M57.6827 58.4604C57.3615 55.879 57.1006 53.8421 57.0842 53.8451C57.0842 53.8451 49.4217 54.1493 47.9131 45.4391C47.1846 41.2301 46.2848 32.4199 45.5494 24.4362C44.759 15.8585 49.7204 8.01017 56.9439 6.39667L57.6612 6.23704C65.4899 5.03777 70.7304 12.1687 71.5346 21.384L75.2242 53.5097L73.8982 56.376C70.5943 63.5211 62.2265 64.5961 57.6827 58.4604Z" fill="#F9A78D"/>
<path d="M57.0842 53.8453C57.0842 53.8453 61.827 53.1199 66.2278 48.3198C66.2278 48.3198 64.8958 55.1971 57.3425 56.0701L57.0842 53.8453Z" fill="#F57F62"/>
<path d="M49.3898 32.9312C49.4768 33.594 50.027 34.0537 50.6186 33.9597C51.2093 33.8658 51.6191 33.2545 51.5322 32.5907C51.4452 31.928 50.895 31.4673 50.3043 31.5612C49.7127 31.6552 49.3028 32.2685 49.3898 32.9312Z" fill="#17282F"/>
<path d="M47.7279 27.7099C47.8855 27.8423 48.5778 26.9633 49.7213 26.7117C50.8614 26.4409 51.8128 26.9441 51.9101 26.7521C51.9592 26.6652 51.7775 26.4015 51.3616 26.1712C50.9509 25.9408 50.2888 25.7751 49.5766 25.9378C48.8654 26.1024 48.3161 26.543 48.0224 26.935C47.7228 27.33 47.6513 27.6513 47.7279 27.7099Z" fill="#17282F"/>
<path d="M59.3754 31.1309C59.4624 31.7947 60.0126 32.2544 60.6042 32.1604C61.1949 32.0665 61.6039 31.4542 61.5169 30.7914C61.43 30.1286 60.8797 29.6679 60.289 29.7619C59.6975 29.8548 59.2885 30.4681 59.3754 31.1309Z" fill="#17282F"/>
<path d="M59.0167 25.7497C59.1751 25.8831 59.8682 25.0041 61.0117 24.7525C62.1509 24.4817 63.1024 24.9849 63.1997 24.7929C63.2488 24.706 63.068 24.4423 62.6504 24.212C62.2405 23.9816 61.5783 23.8159 60.8662 23.9786C60.155 24.1433 59.6056 24.5838 59.312 24.9758C59.0132 25.3709 58.9409 25.6922 59.0167 25.7497Z" fill="#17282F"/>
<path d="M56.5876 36.9767C56.5807 36.8989 55.8462 36.9141 54.6665 36.9979C54.3686 37.0282 54.0819 37.0222 53.994 36.7989C53.8855 36.5665 53.9475 36.1705 54.0242 35.7401C54.1645 34.849 54.3109 33.9164 54.465 32.9374C55.0618 28.9557 55.4337 25.7074 55.2968 25.6802C55.1599 25.6539 54.5658 28.8597 53.969 32.8424C53.8287 33.8235 53.6944 34.758 53.5678 35.6522C53.5204 36.0654 53.4016 36.5493 53.6341 37.0303C53.7546 37.2687 53.9992 37.4071 54.1955 37.4243C54.3936 37.4496 54.5589 37.4162 54.7044 37.394C55.8755 37.2081 56.5962 37.0535 56.5876 36.9767Z" fill="#17282F"/>
<path d="M60.1041 37.1524C59.9156 37.1817 60.1498 38.6386 59.2551 39.9096C58.3631 41.1836 57.0129 41.316 57.0362 41.5211C57.0336 41.616 57.3772 41.7383 57.9386 41.6312C58.4896 41.5312 59.256 41.1462 59.8036 40.3683C60.3487 39.5893 60.4899 38.682 60.4356 38.0748C60.384 37.4555 60.1876 37.1251 60.1041 37.1524Z" fill="#17282F"/>
<path d="M58.1968 20.2911C58.3682 20.6316 59.4824 20.2032 60.8549 20.0931C62.2249 19.9506 63.3813 20.1699 63.507 19.8031C63.5604 19.6293 63.3167 19.3282 62.8216 19.0726C62.3308 18.817 61.5843 18.6362 60.7619 18.7109C59.9405 18.7877 59.2266 19.1019 58.7763 19.4444C58.3217 19.7869 58.1202 20.1294 58.1968 20.2911Z" fill="#17282F"/>
<path d="M47.4766 23.1441C47.7271 23.4038 48.4633 22.9108 49.4088 22.6845C50.3465 22.4197 51.1912 22.4985 51.3238 22.1389C51.3797 21.9661 51.2041 21.6893 50.8071 21.4791C50.4145 21.268 49.7988 21.1629 49.1522 21.3306C48.5047 21.5003 47.9855 21.9024 47.7065 22.2884C47.4232 22.6764 47.3638 23.0148 47.4766 23.1441Z" fill="#17282F"/>
<path d="M71.9766 27.9846C72.0928 27.8917 76.8011 25.0678 77.6079 31.0732C78.413 37.0787 73.1088 36.7897 73.077 36.619C73.0451 36.4482 71.9766 27.9846 71.9766 27.9846Z" fill="#F9A78D"/>
<path d="M74.3349 34.0547C74.3547 34.0314 74.4339 34.1112 74.5949 34.1648C74.7525 34.2163 75.0126 34.2244 75.264 34.0577C75.7729 33.7253 76.0932 32.6331 75.9726 31.546C75.9124 30.9974 75.7453 30.4952 75.5223 30.0951C75.307 29.6839 75.0237 29.4222 74.7439 29.4152C74.4632 29.3919 74.2961 29.6193 74.2565 29.8001C74.21 29.9799 74.2591 30.0941 74.2333 30.1093C74.2204 30.1275 74.1093 30.0295 74.1179 29.7738C74.1231 29.6506 74.1635 29.498 74.2686 29.3596C74.3754 29.2202 74.5484 29.1272 74.7413 29.1161C75.14 29.0747 75.5524 29.4354 75.797 29.8749C76.0639 30.3123 76.2636 30.8751 76.3308 31.4914C76.4608 32.7079 76.0845 33.9385 75.3785 34.3254C75.0332 34.5022 74.7155 34.4305 74.5415 34.3174C74.3633 34.1981 74.3185 34.0688 74.3349 34.0547Z" fill="#F57F62"/>
<path d="M47.605 13.9015C46.7078 13.5085 48.7984 9.92282 50.6988 8.48309C53.5722 6.30682 58.1487 4.47711 61.1091 4.92772C64.6721 5.46926 67.7668 6.97162 69.9453 10.3239C72.1246 13.6772 73.3086 17.8206 73.7357 22.0074C73.8666 23.2845 73.9217 24.6303 73.4791 25.8063C72.9314 27.2612 71.664 28.3372 71.9559 30.1609C72.0627 30.8277 71.9852 31.5329 71.6554 32.0896C70.8666 33.4232 69.5802 32.524 68.9129 31.5127C67.4887 29.3536 67.0073 26.5631 66.5665 23.8826C66.2539 21.9761 65.9396 20.0292 66.167 18.1065C66.2909 17.0608 66.5742 16.0434 66.6483 14.9907C66.7223 13.9379 66.5501 12.7881 65.9052 12.0516C65.8001 11.9324 65.6339 11.7869 65.4264 11.6303C63.7861 10.3906 61.698 10.2977 59.9742 11.3696C57.2394 13.07 52.5372 15.7181 51.1052 14.7936C49.0438 13.462 48.4643 12.4618 48.4643 12.4618L47.605 13.9015Z" fill="#17282F"/>
</svg>
