<svg width="223" height="349" viewBox="0 0 223 349" fill="none" xmlns="http://www.w3.org/2000/svg">
<path d="M32.2314 37.1824H8.80966C6.98249 37.1824 5.50146 35.4446 5.50146 33.3006V5.81847C5.50146 3.67453 6.98249 1.93575 8.80966 1.93575H32.2314C34.0586 1.93575 35.5405 3.67453 35.5405 5.81847V33.3006C35.5405 35.4446 34.0586 37.1824 32.2314 37.1824Z" fill="#F2575D"/>
<path d="M25.5255 22.6357H15.6043C15.3667 22.6357 15.1738 22.4104 15.1738 22.1306C15.1738 21.8517 15.3667 21.6254 15.6043 21.6254H25.1647L26.1962 14.7834H14.6692C14.4315 14.7834 14.2386 14.5571 14.2386 14.2782C14.2386 13.9994 14.4315 13.7731 14.6692 13.7731H26.7103C26.8369 13.7731 26.9583 13.8387 27.0392 13.9539C27.1219 14.0681 27.1563 14.2186 27.1339 14.3661L25.9491 22.2195C25.9129 22.4609 25.7338 22.6357 25.5255 22.6357Z" fill="white"/>
<path d="M25.1974 25.3828H25.1957L15.7464 25.3454C15.5303 25.3444 15.3486 25.1555 15.3211 24.9039L13.9856 12.693H11.3292C11.0916 12.693 10.8987 12.4677 10.8987 12.1878C10.8987 11.909 11.0916 11.6826 11.3292 11.6826H14.3645C14.5814 11.6826 14.7631 11.8716 14.7915 12.1232L16.127 24.3361L25.1992 24.3725C25.4368 24.3735 25.6288 24.6008 25.628 24.8797C25.6271 25.1585 25.4342 25.3828 25.1974 25.3828Z" fill="white"/>
<path d="M17.2895 26.5679C16.8788 26.5679 16.5438 26.9599 16.5438 27.4429C16.5438 27.9248 16.8788 28.3168 17.2895 28.3168C17.7011 28.3168 18.0352 27.9248 18.0352 27.4429C18.0352 26.9599 17.7011 26.5679 17.2895 26.5679ZM17.2895 29.3271C16.4035 29.3271 15.6827 28.4825 15.6827 27.4429C15.6827 26.4032 16.4035 25.5576 17.2895 25.5576C18.1755 25.5576 18.8963 26.4032 18.8963 27.4429C18.8963 28.4825 18.1755 29.3271 17.2895 29.3271Z" fill="white"/>
<path d="M23.8111 26.5679C23.4004 26.5679 23.0654 26.9599 23.0654 27.4429C23.0654 27.9248 23.4004 28.3168 23.8111 28.3168C24.2227 28.3168 24.5576 27.9248 24.5576 27.4429C24.5576 26.9599 24.2227 26.5679 23.8111 26.5679ZM23.8111 29.3271C22.9251 29.3271 22.2043 28.4825 22.2043 27.4429C22.2043 26.4032 22.9251 25.5576 23.8111 25.5576C24.698 25.5576 25.4187 26.4032 25.4187 27.4429C25.4187 28.4825 24.698 29.3271 23.8111 29.3271Z" fill="white"/>
<path d="M18.6681 22.6357C18.4416 22.6357 18.2522 22.4296 18.2384 22.1629L17.8345 14.5632C17.819 14.2843 17.9999 14.0448 18.2375 14.0277C18.495 14.0216 18.6784 14.2227 18.6939 14.5005L19.0977 22.0992C19.1123 22.3781 18.9315 22.6176 18.6947 22.6347L18.6681 22.6357Z" fill="white"/>
<path d="M22.2957 22.6357L22.2707 22.6347C22.0339 22.6196 21.8522 22.3811 21.866 22.1033L22.2267 14.5035C22.2397 14.2257 22.4291 14.0135 22.6814 14.0277C22.9182 14.0428 23.0999 14.2813 23.087 14.5601L22.7253 22.1588C22.7124 22.4276 22.5221 22.6357 22.2957 22.6357Z" fill="white"/>
<path d="M15.036 18.8369C14.7992 18.8369 14.6081 18.6136 14.6055 18.3368C14.6029 18.0569 14.7941 17.8296 15.0317 17.8266L26.1136 17.6993C26.353 17.7306 26.5459 17.9205 26.5485 18.1994C26.551 18.4792 26.3599 18.7066 26.1222 18.7096L15.0403 18.8369H15.036Z" fill="white"/>
<path d="M120.689 184.113H6.5778C3.06897 184.113 0.224854 180.776 0.224854 176.659V7.71809C0.224854 3.60097 3.06897 0.263824 6.5778 0.263824H120.689C124.198 0.263824 127.042 3.60097 127.042 7.71809V176.659C127.042 180.776 124.198 184.113 120.689 184.113Z" fill="white"/>
<path d="M127.042 21.8113H0.224854V6.48954C0.224854 3.05136 2.60054 0.263836 5.53073 0.263836H121.736C124.666 0.263836 127.042 3.05136 127.042 6.48954V21.8113Z" fill="#DADBD8"/>
<path d="M121.833 184.113C121.833 184.113 121.956 184.096 122.195 184.078C122.434 184.059 122.794 184.006 123.249 183.851C124.134 183.553 125.526 182.749 126.407 180.809C126.621 180.33 126.78 179.784 126.89 179.195C126.989 178.601 126.992 177.966 126.986 177.291C126.983 175.944 126.979 174.473 126.976 172.879C126.97 169.689 126.963 166.009 126.955 161.869C126.938 145.293 126.914 121.322 126.884 91.7032C126.875 76.8907 126.866 60.6667 126.856 43.2495C126.853 34.5404 126.849 25.5342 126.845 16.2563C126.844 13.9366 126.843 11.6007 126.842 9.24762C126.829 8.08372 126.872 6.86424 126.81 5.73267C126.703 4.59906 126.309 3.50789 125.685 2.62283C125.056 1.74385 124.209 1.07904 123.265 0.748657C122.329 0.402115 121.302 0.524368 120.265 0.503159C118.205 0.504166 116.132 0.505173 114.045 0.506195C80.6644 0.512253 43.9659 0.519318 5.44622 0.526398C4.29154 0.531448 3.14891 1.00529 2.26029 1.86508C1.37426 2.7269 0.75862 3.95042 0.540771 5.26991C0.419361 5.92462 0.45636 6.60861 0.44861 7.31888V9.42039C0.44861 10.8197 0.44861 12.218 0.44861 13.6133C0.447749 19.1944 0.447769 24.7381 0.447769 30.2424C0.446047 41.251 0.445183 52.097 0.444322 62.755C0.440016 84.0711 0.434858 104.631 0.431414 124.219C0.42797 134.012 0.424495 143.562 0.421912 152.84C0.42019 157.479 0.417622 162.051 0.4159 166.551C0.415039 168.801 0.414196 171.034 0.413335 173.249C0.412474 174.355 0.412473 175.458 0.411611 176.555C0.416778 177.664 0.35819 178.742 0.63373 179.745C1.15898 181.762 2.65206 183.348 4.38108 183.767C5.23439 183.977 6.15575 183.873 7.05815 183.9C7.96226 183.901 8.8612 183.901 9.75671 183.903C13.3379 183.905 16.8527 183.908 20.2978 183.911C27.188 183.916 33.801 183.922 40.1126 183.927C65.3555 183.962 85.7834 183.991 99.9082 184.011C106.963 184.032 112.443 184.049 116.165 184.06C118.019 184.071 119.435 184.08 120.393 184.086C121.346 184.095 121.833 184.113 121.833 184.113C121.833 184.113 121.346 184.131 120.393 184.14C119.435 184.146 118.019 184.155 116.165 184.166C112.443 184.177 106.963 184.194 99.9082 184.216C85.7834 184.235 65.3555 184.264 40.1126 184.3C33.801 184.305 27.188 184.311 20.2978 184.316C16.8527 184.319 13.3379 184.321 9.75671 184.324C8.8612 184.325 7.96226 184.325 7.05815 184.326C6.16006 184.298 5.24645 184.412 4.30531 184.186C2.448 183.739 0.844723 182.04 0.279004 179.873C-0.0197843 178.782 0.0439293 177.634 0.0370408 176.555C0.0361798 175.458 0.0361781 174.355 0.035317 173.249C0.034456 171.034 0.0335713 168.801 0.0327103 166.551C0.0309882 162.051 0.029303 157.479 0.0275809 152.84C0.0241367 143.562 0.0215232 134.012 0.0180789 124.219C0.0137736 104.631 0.00947673 84.0711 0.00517142 62.755C0.0034493 52.097 0.00258487 41.251 0.00172381 30.2424C0.000862744 24.7381 0.000882925 19.1944 0.000882925 13.6133C0.000882925 12.218 0.000861063 10.8197 0 9.42039V7.31888C0.00861063 6.63084 -0.0309848 5.89734 0.0998967 5.17091C0.33755 3.73219 1.00918 2.39854 1.97443 1.45892C2.9414 0.522354 4.19079 0.00405884 5.44622 1.52588e-05C43.9659 0.00808716 80.6644 0.0141449 114.045 0.021225C116.132 0.0222321 118.205 0.0222321 120.265 0.0232391L121.807 0.0242615C122.338 0.0384064 122.872 0.110123 123.382 0.291992C124.403 0.649643 125.316 1.36902 125.996 2.31973C126.669 3.27551 127.095 4.4566 127.209 5.68214C127.276 6.91475 127.227 8.06049 127.242 9.24762C127.241 11.6007 127.24 13.9366 127.239 16.2563C127.236 25.5342 127.231 34.5404 127.228 43.2495C127.219 60.6667 127.209 76.8907 127.2 91.7032C127.17 121.322 127.146 145.293 127.129 161.869C127.122 166.009 127.114 169.689 127.109 172.879C127.105 174.473 127.101 175.944 127.098 177.291C127.101 177.961 127.094 178.614 126.99 179.219C126.874 179.819 126.708 180.372 126.487 180.858C125.576 182.823 124.158 183.619 123.262 183.903C122.8 184.05 122.437 184.094 122.197 184.106C121.956 184.115 121.833 184.113 121.833 184.113Z" fill="#17282F"/>
<path d="M13.1357 11.037C13.1357 12.9425 11.8192 14.4873 10.196 14.4873C8.57206 14.4873 7.25549 12.9425 7.25549 11.037C7.25549 9.13253 8.57206 7.58771 10.196 7.58771C11.8192 7.58771 13.1357 9.13253 13.1357 11.037Z" fill="white"/>
<path d="M21.6139 11.037C21.6139 12.9425 20.2973 14.4873 18.6733 14.4873C17.0502 14.4873 15.7336 12.9425 15.7336 11.037C15.7336 9.13253 17.0502 7.58771 18.6733 7.58771C20.2973 7.58771 21.6139 9.13253 21.6139 11.037Z" fill="white"/>
<path d="M30.0908 11.037C30.0908 12.9425 28.7752 14.4873 27.1512 14.4873C25.5273 14.4873 24.2107 12.9425 24.2107 11.037C24.2107 9.13253 25.5273 7.58771 27.1512 7.58771C28.7752 7.58771 30.0908 9.13253 30.0908 11.037Z" fill="white"/>
<path d="M80.0635 75.3926H51.7621C49.9349 75.3926 48.4539 73.6548 48.4539 71.5109V38.3031C48.4539 36.1592 49.9349 34.4214 51.7621 34.4214H80.0635C81.8906 34.4214 83.3725 36.1592 83.3725 38.3031V71.5109C83.3725 73.6548 81.8906 75.3926 80.0635 75.3926Z" fill="#F2575D"/>
<path d="M59.1114 49.147H72.723L71.4607 57.5167H60.1989C60.0206 57.5167 59.876 57.6864 59.876 57.8955C59.876 58.1047 60.0206 58.2744 60.1989 58.2744H71.7311C71.8878 58.2744 72.0213 58.1431 72.0488 57.9622L73.4265 48.8338C73.4429 48.7227 73.417 48.6106 73.3559 48.5247C73.2939 48.4378 73.2044 48.3893 73.1088 48.3893H59.1114C58.9331 48.3893 58.7885 48.558 58.7885 48.7682C58.7885 48.9773 58.9331 49.147 59.1114 49.147Z" fill="white"/>
<path d="M55.2296 46.7171H58.4732L60.0456 61.0932C60.0662 61.2811 60.2023 61.4226 60.3641 61.4236L71.3478 61.468C71.5261 61.469 71.6716 61.2993 71.6725 61.0901C71.6725 60.881 71.5286 60.7113 71.3504 60.7103L60.65 60.6668L59.0769 46.2897C59.0562 46.0998 58.9193 45.9593 58.7565 45.9593H55.2296C55.0505 45.9593 54.9067 46.1281 54.9067 46.3382C54.9067 46.5473 55.0505 46.7171 55.2296 46.7171Z" fill="white"/>
<path d="M63.5242 64.0707H63.2013C63.2004 64.7466 62.7337 65.2942 62.1577 65.2952C61.5808 65.2942 61.1141 64.7466 61.1132 64.0707C61.1141 63.3938 61.5808 62.8462 62.1577 62.8452C62.7337 62.8462 63.2004 63.3938 63.2013 64.0707H63.5242H63.8471C63.8471 62.9745 63.0911 62.0874 62.1577 62.0874C61.2234 62.0874 60.4674 62.9745 60.4674 64.0707C60.4674 65.1659 61.2234 66.053 62.1577 66.053C63.0911 66.053 63.8471 65.1659 63.8471 64.0707H63.5242Z" fill="white"/>
<path d="M71.1059 64.0707H70.783C70.7822 64.7466 70.3155 65.2942 69.7386 65.2952C69.1617 65.2942 68.695 64.7466 68.6941 64.0707C68.695 63.3938 69.1617 62.8462 69.7386 62.8452C70.3155 62.8462 70.7822 63.3938 70.783 64.0707H71.1059H71.4288C71.4288 62.9745 70.672 62.0874 69.7386 62.0874C68.8052 62.0874 68.0483 62.9745 68.0483 64.0707C68.0483 65.1659 68.8052 66.053 69.7386 66.053C70.672 66.053 71.4288 65.1659 71.4288 64.0707H71.1059Z" fill="white"/>
<path d="M62.9681 49.0862L63.4365 57.9196C63.4477 58.1278 63.6009 58.2864 63.7792 58.2743C63.9574 58.2611 64.0926 58.0813 64.0814 57.8721L63.6121 49.0388C63.6018 48.8296 63.4485 48.671 63.2703 48.6841C63.092 48.6973 62.9569 48.8771 62.9681 49.0862Z" fill="white"/>
<path d="M68.0741 49.0409L67.6539 57.8742C67.6435 58.0834 67.7804 58.2622 67.9578 58.2744C68.136 58.2855 68.2885 58.1258 68.2988 57.9167L68.719 49.0833C68.7285 48.8742 68.5924 48.6953 68.4142 48.6842C68.236 48.6721 68.0844 48.8327 68.0741 49.0409Z" fill="white"/>
<path d="M59.5411 53.8581L72.4225 53.7106C72.6016 53.7086 72.7446 53.5369 72.7429 53.3277C72.7411 53.1186 72.5948 52.9509 72.4165 52.9529L59.535 53.1004C59.3568 53.1024 59.2139 53.2732 59.2156 53.4823C59.2173 53.6924 59.3628 53.8602 59.5411 53.8581Z" fill="white"/>
<path d="M77.5949 47.2789C77.5949 49.7209 75.9072 51.7012 73.826 51.7012C71.7439 51.7012 70.0563 49.7209 70.0563 47.2789C70.0563 44.8359 71.7439 42.8567 73.826 42.8567C75.9072 42.8567 77.5949 44.8359 77.5949 47.2789Z" fill="white"/>
<path d="M59.0139 93.4685H20.0344V87.36H59.0139V93.4685Z" fill="#DADBD8"/>
<path d="M107.232 93.4685H92.0605V87.36H107.232V93.4685Z" fill="#DADBD8"/>
<path d="M70.4169 106.441H20.0344V100.332H70.4169V106.441Z" fill="#DADBD8"/>
<path d="M107.232 106.441H92.0605V100.332H107.232V106.441Z" fill="#DADBD8"/>
<path d="M43.6233 119.413H20.0344V113.304H43.6233V119.413Z" fill="#DADBD8"/>
<path d="M107.232 119.413H92.0605V113.304H107.232V119.413Z" fill="#DADBD8"/>
<path d="M107.232 131.759H92.0605V125.65H107.232V131.759Z" fill="#33535F"/>
<path d="M76.2498 167.47H48.0646C43.5483 167.47 39.8871 163.175 39.8871 157.875V156.842C39.8871 151.542 43.5483 147.247 48.0646 147.247H76.2498C80.7661 147.247 84.4273 151.542 84.4273 156.842V157.875C84.4273 163.175 80.7661 167.47 76.2498 167.47Z" fill="#F2575D"/>
<path d="M74.4087 50.7565C74.0284 50.7565 73.668 50.6964 73.3276 50.5763C72.9923 50.4512 72.722 50.286 72.5168 50.0808L72.7796 49.6528C72.9497 49.828 73.1775 49.9732 73.4628 50.0883C73.7531 50.2034 74.0684 50.261 74.4087 50.261C74.8442 50.261 75.177 50.1659 75.4073 49.9757C75.6425 49.7855 75.7601 49.5302 75.7601 49.2099C75.7601 48.8895 75.645 48.6343 75.4148 48.4441C75.1896 48.2539 74.8317 48.1588 74.3412 48.1588H73.9658V47.7609L75.5875 45.7263L75.6625 45.9365H72.7345V45.456H76.113V45.8389L74.4913 47.8735L74.2286 47.7008H74.4313C75.0619 47.7008 75.5324 47.841 75.8427 48.1212C76.1581 48.4015 76.3157 48.7619 76.3157 49.2024C76.3157 49.4977 76.2456 49.7629 76.1055 49.9982C75.9654 50.2334 75.7526 50.4186 75.4673 50.5538C75.1871 50.6889 74.8342 50.7565 74.4087 50.7565Z" fill="#F2575D"/>
<path d="M182.646 165.941L222.949 210.179L214.508 220.923L178.514 171.512L182.646 165.941Z" fill="#398AB9"/>
<path d="M214.508 220.923L187.287 224.897L165.814 178.022L178.514 171.512L214.508 220.923Z" fill="#DADBD8"/>
<path d="M180.64 168.624C180.731 168.527 188.095 177.892 197.084 189.54C206.076 201.191 213.289 210.713 213.197 210.811C213.106 210.908 205.743 201.545 196.751 189.893C187.763 178.246 180.548 168.722 180.64 168.624Z" fill="#17282F"/>
<path d="M194.493 223.845L178.375 177.406L175.011 178.283L174.163 175.976L173.029 176.261L173.23 178.747L173.029 176.261L167.611 177.101L178.514 171.512L214.487 220.894C214.494 220.913 214.502 220.923 214.507 220.923H214.508L208.64 221.78L179.447 176.632L178.375 177.406L194.493 223.845Z" fill="#8F9192"/>
<path d="M212.817 228.24L200.346 240.712L178.375 177.406L179.447 176.632L212.817 228.24Z" fill="#33535F"/>
<path d="M200.346 240.712L180.467 234.965L165.431 180.78L178.375 177.406L200.346 240.712Z" fill="#33535F"/>
<path d="M200.346 240.712L180.467 234.965L178.667 228.479L191.547 223.235L175.011 178.283L178.375 177.406L200.346 240.712Z" fill="#20353D"/>
<path d="M200.346 240.712C200.316 240.704 200.353 240.339 200.447 239.685C200.541 239.032 200.691 238.09 200.884 236.929C201.274 234.605 201.841 231.405 202.495 227.875C202.596 227.334 202.695 226.8 202.79 226.293L202.836 226.049L203.046 226.092C205.761 226.656 208.161 227.179 209.881 227.578C211.6 227.977 212.639 228.252 212.628 228.318C212.619 228.384 211.562 228.23 209.829 227.922C208.097 227.615 205.687 227.154 202.969 226.606L203.225 226.404C203.132 226.912 203.033 227.445 202.933 227.988C202.279 231.517 201.663 234.705 201.194 237.008C200.96 238.159 200.764 239.089 200.617 239.729C200.471 240.369 200.376 240.719 200.346 240.712Z" fill="#17282F"/>
<path d="M178.882 177.152C178.989 177.08 184.477 188.035 191.138 201.619C197.802 215.206 203.115 226.276 203.008 226.349C202.9 226.422 197.413 215.468 190.75 201.88C184.089 188.297 178.774 177.225 178.882 177.152Z" fill="#17282F"/>
<path d="M174.163 175.977L191.547 223.235L177.307 229.033L173.029 176.262L174.163 175.977Z" fill="#F2575D"/>
<path d="M177.307 229.033L164.099 225.529L162.288 177.927L173.029 176.262L177.307 229.033Z" fill="#F2575D"/>
<path d="M177.307 229.033L164.099 225.529L162.288 177.927L173.029 176.262L177.307 229.033Z" fill="#CC4341"/>
<path d="M177.307 229.033C177.259 228.987 177.872 228.024 178.9 226.507C179.928 224.988 181.372 222.915 182.989 220.645C183.169 220.392 183.348 220.141 183.516 219.906L183.615 219.768L183.76 219.826C185.965 220.719 187.921 221.54 189.321 222.152C190.721 222.765 191.566 223.17 191.547 223.235C191.528 223.301 190.649 223.013 189.223 222.488C187.796 221.964 185.824 221.203 183.615 220.322L183.859 220.242C183.691 220.478 183.512 220.729 183.332 220.982C181.716 223.252 180.234 225.288 179.143 226.745C178.052 228.202 177.354 229.08 177.307 229.033Z" fill="#17282F"/>
<path d="M173.609 176.116C173.728 176.078 176.081 185.889 178.864 198.025C181.648 210.166 183.807 220.036 183.687 220.074C183.567 220.112 181.215 210.304 178.431 198.162C175.648 186.025 173.49 176.153 173.609 176.116Z" fill="#17282F"/>
<path d="M182.646 165.941L168.066 173.799L169.534 176.116L178.514 171.512L182.646 165.941Z" fill="#17282F"/>
<path d="M179.447 176.632L174.828 177.784L175.038 178.276L178.375 177.406L179.447 176.632Z" fill="#17282F"/>
<path d="M174.578 109.114C174.578 109.114 179.469 116.524 179.997 121.217C180.434 125.097 182.823 146.122 184.039 156.023C184.536 160.066 183.701 164.25 181.484 167.398C179.377 170.39 176.192 172.498 171.882 168.955C168.921 166.521 161.343 156.575 161.343 156.575L173.805 110.771L174.578 109.114Z" fill="#F2575D"/>
<path d="M161.083 45.6773C158.671 44.8023 155.961 45.1307 153.753 46.5654C152.524 44.7114 150.411 43.7243 148.433 44.08C146.454 44.4346 144.689 46.1178 143.988 48.3183C141.884 47.3211 139.224 48.381 138.071 50.6754C136.919 52.9689 137.419 56.2131 139.181 57.8903C137.461 58.7278 136.105 60.5323 135.611 62.6388C135.117 64.7464 135.496 67.1106 136.609 68.8625C134.767 69.9112 134.452 72.8372 134.724 75.2185C134.995 77.5999 135.58 80.151 134.669 82.303C133.967 83.966 132.518 84.9935 131.526 86.4393C130.535 87.8851 130.188 90.3746 131.531 91.3546C129.243 91.7163 127.477 94.5746 127.895 97.2378C128.313 99.9021 130.832 101.834 133.079 101.216C132.33 103.09 132.653 105.399 133.636 107.117C134.62 108.835 136.182 110.009 137.842 110.714C142.614 112.742 148.404 110.827 151.57 106.17L166.704 51.2645C165.572 48.6184 163.494 46.5522 161.083 45.6773Z" fill="#17282F"/>
<path d="M168.28 60.89L168.482 57.9277L153.474 53.4681C148.823 52.5568 143.479 57.7034 142.901 63.1946C142.257 69.296 141.678 76.7745 142.062 81.3877C142.834 90.6636 148.776 92.2569 148.776 92.2569L148.342 101.38L165.646 102.858L168.28 60.89Z" fill="#B96357"/>
<path d="M144.735 71.945C144.684 72.5664 145.09 73.1281 145.642 73.2029C146.193 73.2767 146.681 72.8341 146.731 72.2128C146.782 71.5924 146.377 71.0297 145.826 70.9549C145.274 70.8812 144.785 71.3247 144.735 71.945Z" fill="#17282F"/>
<path d="M144.356 67.2159C144.473 67.3776 145.268 66.7714 146.348 66.8502C147.428 66.9118 148.187 67.62 148.313 67.4725C148.374 67.4089 148.261 67.1219 147.932 66.8027C147.606 66.4854 147.041 66.1581 146.368 66.1146C145.695 66.0712 145.113 66.3218 144.772 66.5966C144.425 66.8724 144.298 67.1422 144.356 67.2159Z" fill="#17282F"/>
<path d="M154.211 72.6331C154.161 73.2534 154.568 73.8161 155.119 73.8899C155.67 73.9637 156.158 73.5221 156.209 72.9008C156.26 72.2794 155.853 71.7167 155.302 71.6429C154.751 71.5692 154.262 72.0117 154.211 72.6331Z" fill="#17282F"/>
<path d="M154.966 68.202C155.084 68.3636 155.879 67.7574 156.959 67.8372C158.039 67.8979 158.798 68.6061 158.924 68.4596C158.984 68.3949 158.873 68.109 158.542 67.7887C158.217 67.4715 157.652 67.1451 156.979 67.1007C156.305 67.0572 155.724 67.3078 155.383 67.5826C155.036 67.8584 154.909 68.1292 154.966 68.202Z" fill="#17282F"/>
<path d="M150.562 77.3283C150.572 77.2565 149.906 77.0737 148.826 76.8332C148.551 76.7807 148.294 76.6978 148.259 76.4735C148.205 76.2351 148.339 75.8936 148.492 75.5268C148.792 74.761 149.105 73.9588 149.435 73.1182C150.748 69.6881 151.717 66.8592 151.598 66.7985C151.48 66.7379 150.319 69.4689 149.006 72.9C148.689 73.7456 148.386 74.5529 148.098 75.3248C147.974 75.6855 147.773 76.0896 147.889 76.5857C147.951 76.8322 148.144 77.0221 148.319 77.0908C148.492 77.1666 148.647 77.1807 148.783 77.1999C149.875 77.3464 150.554 77.4 150.562 77.3283Z" fill="#17282F"/>
<path d="M148.778 92.2811C148.778 92.2811 154.294 93.052 159.702 89.7391C159.702 89.7391 156.727 95.986 148.666 94.5726L148.778 92.2811Z" fill="#6F3430"/>
<path d="M155.216 63.8249C155.323 64.1705 156.404 64.0068 157.674 64.1856C158.947 64.3362 159.971 64.7716 160.14 64.4625C160.215 64.3139 160.036 63.9896 159.622 63.6552C159.212 63.3208 158.557 63.0035 157.794 62.9035C157.032 62.8065 156.334 62.9479 155.872 63.1692C155.405 63.3895 155.17 63.6612 155.216 63.8249Z" fill="#17282F"/>
<path d="M144.617 64.0746C144.791 64.3777 145.552 64.1393 146.447 64.1979C147.344 64.2191 148.088 64.5252 148.28 64.2383C148.366 64.0979 148.263 63.7998 147.948 63.5008C147.638 63.2027 147.105 62.937 146.489 62.9087C145.873 62.8814 145.325 63.0997 144.996 63.3694C144.663 63.6392 144.542 63.9271 144.617 64.0746Z" fill="#17282F"/>
<path d="M142.93 56.588C144.696 53.8743 147.258 51.889 150.079 51.0494L162.757 52.9195L163.837 52.8973C164.075 51.9607 165.422 51.4687 165.422 51.4687C166.614 50.3977 170.74 50.3391 173.617 53.8672C174.655 55.1392 175.392 58.34 175.415 60.101C175.424 60.7678 174.816 61.6822 175.291 62.0479C175.457 62.1762 176.827 62.1429 177.022 62.1924C180.246 63.0209 182.261 66.3752 181.677 71.3915C181.648 71.6451 181.572 71.8967 181.608 72.1493C181.665 72.5453 181.938 72.8423 182.173 73.1343C183.709 75.0418 184.081 78.1082 183.061 80.4421C182.747 81.1625 182.309 81.8364 182.199 82.6355C182.004 84.0662 182.894 85.3412 183.584 86.5435C185.653 90.1474 186.097 95.383 183.669 98.6635C183.078 99.4607 182.318 100.172 182.097 101.196C181.989 101.697 182.024 102.222 182.027 102.738C182.043 105.356 180.866 108.285 178.685 108.838C177.475 109.144 176.005 108.743 175.143 109.787C174.768 110.242 174.609 110.877 174.371 111.444C173.458 113.61 171.123 114.789 169.157 114.078C167.189 113.366 166.537 104.001 166.822 101.609C164.439 100.592 162.676 100.411 162.787 97.44C162.787 97.44 163.155 92.3247 162.45 89.8322C161.745 87.3407 163.159 82.0384 163.966 79.4631C164.773 76.8888 163.812 70.8924 163.596 68.509C163.558 68.0927 163.627 67.3714 163.765 66.4702L163.763 66.4722L163.765 66.4651C163.853 65.8852 163.969 65.2325 164.105 64.5333C164.155 63.8817 164.612 60.4031 164.604 59.7938C164.573 57.5398 162.189 58.7451 160.369 59.4635C159.929 59.6372 159.467 59.7363 159.003 59.7514C157.505 59.7999 156.004 58.9654 155.087 57.5741C153.368 59.7241 150.591 60.6163 148.178 59.7908C147.199 61.3942 146.203 63.0178 144.902 64.2646C143.598 65.5113 141.928 66.356 140.258 66.1377C140.205 62.7238 141.164 59.3008 142.93 56.588Z" fill="#17282F"/>
<path d="M151.345 80.4048C151.7 79.7905 152.355 79.4268 153.021 79.4712C153.484 79.5026 153.96 79.7349 154.258 80.1583C154.556 80.5816 154.641 81.202 154.405 81.6354C154.139 82.1244 153.546 82.2689 153.033 82.1294C152.52 81.99 152.068 81.6253 151.638 81.2606C151.519 81.1595 151.397 81.0544 151.32 80.911C151.242 80.7675 151.218 80.5755 151.302 80.4482" fill="#6F3430"/>
<path d="M153.924 78.1104C153.752 78.1084 153.807 79.4592 152.863 80.4746C151.922 81.4941 150.689 81.4142 150.688 81.6032C150.675 81.689 150.972 81.8497 151.49 81.8356C151.998 81.8265 152.732 81.591 153.309 80.9697C153.885 80.3473 154.11 79.5481 154.125 78.9914C154.145 78.4256 154.003 78.0983 153.924 78.1104Z" fill="#17282F"/>
<path d="M129.866 320.143L131.293 337.579C131.293 337.579 115.096 344.679 114.92 348.192L145.542 348.29L145.525 345.661L144.24 336.692L142.348 319.269L129.866 320.143Z" fill="#33535F"/>
<path d="M140.511 334.873C141.117 335.066 141.538 335.865 141.4 336.584C141.26 337.304 140.571 337.813 139.962 337.632C139.352 337.452 138.822 336.512 139.029 335.815C139.236 335.119 140.072 334.572 140.627 334.919" fill="#DADBD8"/>
<path d="M145.542 348.29L145.525 345.661L116.154 346.323C116.154 346.323 114.76 347.039 114.92 348.192L145.542 348.29Z" fill="#17282F"/>
<path d="M130.785 337.393C130.79 337.573 131.556 337.652 132.309 338.227C133.076 338.779 133.467 339.556 133.607 339.484C133.748 339.449 133.517 338.376 132.594 337.698C131.676 337.011 130.752 337.228 130.785 337.393Z" fill="#17282F"/>
<path d="M127.501 338.998C127.467 339.172 128.13 339.475 128.652 340.233C129.192 340.974 129.325 341.794 129.477 341.786C129.621 341.814 129.724 340.761 129.061 339.834C128.404 338.899 127.505 338.827 127.501 338.998Z" fill="#17282F"/>
<path d="M125.645 343.62C125.783 343.657 125.995 342.76 125.6 341.778C125.211 340.792 124.488 340.406 124.424 340.555C124.338 340.704 124.804 341.23 125.117 342.043C125.447 342.845 125.492 343.602 125.645 343.62Z" fill="#17282F"/>
<path d="M129.699 333.201C129.763 333.365 130.465 333.114 131.329 333.181C132.196 333.226 132.87 333.566 132.949 333.411C133.038 333.281 132.379 332.618 131.359 332.557C130.34 332.487 129.623 333.06 129.699 333.201Z" fill="#17282F"/>
<path d="M167.497 320.635L168.808 337.775C168.808 337.775 152.86 344.635 152.669 348.085L182.751 348.397L182.748 345.816L181.532 336.996L179.762 319.866L167.497 320.635Z" fill="#33535F"/>
<path d="M177.878 335.182C178.473 335.376 178.882 336.163 178.741 336.87C178.601 337.576 177.922 338.071 177.324 337.889C176.725 337.708 176.21 336.78 176.416 336.097C176.624 335.414 177.448 334.883 177.991 335.228" fill="#DADBD8"/>
<path d="M182.751 348.397L182.748 345.816L153.89 346.258C153.89 346.258 152.518 346.952 152.669 348.085L182.751 348.397Z" fill="#17282F"/>
<path d="M168.31 337.589C168.315 337.766 169.066 337.849 169.803 338.419C170.554 338.967 170.933 339.733 171.072 339.663C171.21 339.63 170.99 338.574 170.086 337.902C169.188 337.22 168.278 337.428 168.31 337.589Z" fill="#17282F"/>
<path d="M165.076 339.143C165.041 339.314 165.691 339.616 166.2 340.364C166.727 341.095 166.853 341.902 167.002 341.895C167.144 341.923 167.251 340.891 166.604 339.974C165.964 339.052 165.08 338.974 165.076 339.143Z" fill="#17282F"/>
<path d="M163.228 343.669C163.364 343.707 163.576 342.827 163.194 341.86C162.816 340.888 162.108 340.504 162.044 340.651C161.959 340.796 162.414 341.316 162.718 342.116C163.038 342.908 163.079 343.651 163.228 343.669Z" fill="#17282F"/>
<path d="M167.264 333.463C167.327 333.623 168.018 333.383 168.867 333.455C169.717 333.506 170.378 333.843 170.457 333.692C170.544 333.565 169.901 332.909 168.899 332.842C167.898 332.766 167.191 333.323 167.264 333.463Z" fill="#17282F"/>
<path d="M129.204 168.507C129.204 168.507 121.946 193.172 121.697 211.52C121.446 229.869 121.196 259.046 124.45 291.232C127.704 323.417 129.204 336.35 129.204 336.35H145.723C145.723 336.35 147.475 316.197 147.225 298.149C146.975 280.102 145.772 274.387 147.25 254.534C148.726 234.682 151.064 222.757 153.525 216.741C153.525 216.741 160.343 207.231 160.844 194.186C161.344 181.14 157.409 169.929 157.409 169.929L129.204 168.507Z" fill="#398AB9"/>
<path d="M143.884 203.111C144.158 204.102 149.06 244.54 152.636 262.375C156.212 280.212 160.191 284.932 160.888 299.441C161.691 316.129 165.595 336.35 165.595 336.35H183.184C183.184 336.35 180.711 305.505 178.238 281.392C175.764 257.28 172.191 227.553 172.741 218.635C173.291 209.717 174.665 198.703 172.741 186.209C170.817 173.714 166.658 170.42 166.658 170.42L151.736 169.627L143.884 203.111Z" fill="#398AB9"/>
<path d="M90.5107 118.142C93.5443 120.271 99.0232 122.262 99.0232 122.262L105.163 116.503C105.163 116.503 100.77 107.083 99.3564 104.413C98.9741 103.692 98.392 102.329 98.2112 101.563C97.7359 99.5577 96.4822 100.411 96.2515 101.991C96.186 102.437 96.4538 103.952 96.6338 104.534C97.1814 106.31 97.0617 107.588 97.0617 107.588C97.0617 107.588 96.6139 107.141 95.5101 106.268C94.308 105.319 90.243 101.343 88.526 99.6779C85.9609 97.1905 84.6684 98.7322 85.0034 99.6941C85.4193 100.889 91.786 106.12 91.5587 107.016C91.5587 107.016 90.3325 107.833 90.1595 108.765C89.9864 109.696 90.1715 110.618 90.1715 110.618C90.1715 110.618 89.0229 110.749 88.7155 111.615C88.4081 112.481 88.8024 113.699 88.8024 113.699C88.8024 113.699 87.7381 113.816 87.615 114.495C87.4927 115.173 88.2298 116.541 90.5107 118.142Z" fill="#B96357"/>
<path d="M104.052 114.607C104.16 114.927 117.959 130.004 117.959 130.004C117.959 130.004 128.182 115.085 131.251 109.63C134.32 104.174 139.047 97.4385 143.323 96.0178C147.598 94.597 153.771 97.588 153.771 97.588L146.968 116.464L138.015 132.547C138.015 132.547 128.272 148.466 123.407 151.08C118.541 153.693 113.505 150.505 111.262 148.009C109.02 145.513 95.3885 123.673 95.3885 123.673L104.052 114.607Z" fill="#F2575D"/>
<path d="M176.991 103.308L146.901 97.1905C146.901 97.1905 138.546 114.449 135.42 132.585C132.295 150.72 128.733 168.839 128.733 168.839L156.527 172.857C159.421 173.275 162.349 173.228 165.233 172.716L168.129 172.203L165.749 160.687C169.721 149.048 172.619 139.104 174.341 130.893C178.077 113.076 176.991 103.308 176.991 103.308Z" fill="#F2575D"/>
<path d="M146.202 120.554C146.22 120.574 146.046 120.848 145.713 121.327C145.33 121.876 144.858 122.552 144.302 123.349C143.11 125.056 141.494 127.443 139.706 130.08C137.916 132.716 136.265 135.078 135.02 136.738C134.398 137.569 133.885 138.231 133.517 138.675C133.151 139.119 132.94 139.356 132.921 139.337C132.902 139.316 133.077 139.042 133.41 138.564C133.793 138.015 134.264 137.339 134.821 136.541C136.013 134.834 137.628 132.447 139.417 129.81C141.207 127.174 142.858 124.812 144.103 123.152C144.724 122.32 145.238 121.659 145.606 121.215C145.972 120.771 146.183 120.534 146.202 120.554Z" fill="#17282F"/>
<path d="M165.291 161.211C165.302 161.263 164.59 161.546 163.403 161.849C162.218 162.152 160.552 162.447 158.698 162.533C156.843 162.615 155.163 162.471 153.961 162.275C152.758 162.081 152.029 161.863 152.037 161.812C152.047 161.746 152.788 161.858 153.988 161.974C155.188 162.091 156.85 162.186 158.684 162.105C160.517 162.02 162.167 161.776 163.356 161.551C164.544 161.327 165.277 161.148 165.291 161.211Z" fill="#17282F"/>
<path d="M117.014 139.304C116.913 139.303 116.856 137.3 116.886 134.832C116.916 132.361 117.023 130.362 117.124 130.364C117.224 130.365 117.281 132.367 117.252 134.838C117.222 137.306 117.115 139.306 117.014 139.304Z" fill="#17282F"/>
<path d="M175.53 124.573H176.369V118.751H175.53V124.573Z" fill="#CC4341"/>
<path d="M172.039 126.824C171.761 126.824 171.483 126.793 171.212 126.732C169.78 126.404 168.531 125.291 167.707 123.879C167.082 122.807 166.583 121.464 165.54 121.023C165.065 120.823 164.546 120.85 164.042 120.804C162.007 120.623 160.089 119.152 159.131 117.039C158.171 114.925 158.203 112.236 159.212 110.155C157.545 109.639 156.537 107.203 157.221 105.347L176.022 107.315C176.354 111.113 176.47 114.936 176.369 118.751C176.152 120.544 175.877 122.487 175.53 124.573C175.425 124.789 175.305 124.996 175.168 125.192C174.417 126.264 173.225 126.825 172.039 126.824Z" fill="#F2575D"/>
<path d="M134.284 137.772C134.385 137.636 134.486 137.499 134.588 137.36C134.567 137.477 134.546 137.594 134.526 137.711C134.445 137.732 134.365 137.753 134.284 137.772Z" fill="#A7A9A8"/>
<path d="M134.526 137.711C134.546 137.594 134.567 137.477 134.588 137.36C134.806 137.061 135.023 136.754 135.241 136.441C136.458 134.802 138.021 132.563 139.706 130.08C141.494 127.443 143.11 125.057 144.302 123.349C144.523 123.033 144.73 122.735 144.925 122.457C144.929 125.92 143.922 129.377 142.103 132.105C140.226 134.92 137.498 136.934 134.526 137.711ZM140.459 128.284C141.874 126.051 143.345 123.832 144.913 121.837C144.916 121.917 144.918 121.996 144.92 122.077C144.675 122.392 144.401 122.753 144.103 123.152C143.104 124.485 141.843 126.269 140.459 128.284Z" fill="#F2575D"/>
<path d="M135.241 136.441C136.95 133.986 138.66 131.124 140.459 128.283C141.843 126.269 143.104 124.485 144.103 123.152C144.401 122.753 144.675 122.392 144.92 122.077C144.923 122.203 144.925 122.331 144.925 122.457C144.73 122.735 144.523 123.033 144.302 123.349C143.11 125.056 141.494 127.443 139.706 130.08C138.021 132.562 136.458 134.802 135.241 136.441Z" fill="#F2575D"/>
<path d="M180.341 93.7169L164.297 72.7665C164.884 78.0829 163.177 83.373 161.126 88.163C159.958 90.8899 158.655 94.1321 159.882 96.8236C158.879 98.1351 157.863 99.4727 157.231 101.07C156.6 102.668 156.399 104.595 157.059 106.177C157.719 107.76 159.393 108.796 160.794 108.165C160.131 110.301 160.68 112.88 162.12 114.4C163.561 115.921 165.805 116.288 167.545 115.288C167.982 117.451 168.978 119.523 170.545 120.773C172.111 122.022 174.287 122.314 175.919 121.185C177.551 120.056 178.379 117.403 177.503 115.432C181.034 114.517 183.239 110.052 183.343 105.812C183.447 101.571 181.93 97.5278 180.341 93.7169Z" fill="#17282F"/>
<path d="M147.16 59.1674C147.164 59.1816 147.074 59.224 146.895 59.2927C146.715 59.3452 146.436 59.4069 146.078 59.3584C145.38 59.2856 144.3 58.7501 143.65 57.3983C143.321 56.7355 143.186 55.8555 143.314 54.9674C143.442 54.0783 143.828 53.1893 144.416 52.4568C144.998 51.7212 145.81 51.1504 146.718 50.9049C147.626 50.6483 148.611 50.6766 149.562 50.9382C150.117 51.0948 150.646 51.3211 151.125 51.5899L150.878 51.7021C151.554 49.7632 152.871 48.3558 154.239 47.6385C155.618 46.8979 157.032 46.8878 158.114 47.1646C159.208 47.4404 160.003 47.9759 160.494 48.3983C160.742 48.6094 160.921 48.7943 161.032 48.9287C161.145 49.0631 161.2 49.1368 161.191 49.1469C161.17 49.1732 160.925 48.9064 160.42 48.5265C159.916 48.1527 159.127 47.6738 158.066 47.4455C157.016 47.2151 155.673 47.2596 154.374 47.984C153.083 48.6852 151.844 50.036 151.215 51.8607L151.142 52.0708L150.969 51.9738C150.51 51.7192 150.006 51.504 149.479 51.3555C148.575 51.1069 147.647 51.0797 146.801 51.3131C145.952 51.5384 145.21 52.0516 144.66 52.7296C144.108 53.4014 143.742 54.2178 143.612 55.0301C143.484 55.8444 143.589 56.6355 143.877 57.2549C144.448 58.5218 145.442 59.0765 146.097 59.1927C146.776 59.326 147.152 59.1108 147.16 59.1674Z" fill="#33535F"/>
<path d="M181.174 72.3443C181.146 72.3282 181.309 71.9563 181.48 71.234C181.647 70.5176 181.802 69.4204 181.622 68.0908C181.447 66.7753 180.898 65.2103 179.743 64.0303C178.616 62.8522 176.923 62.0581 175.149 62.2753L174.88 62.3076L174.955 62.0015C175.105 61.3993 175.203 60.7416 175.232 60.0687C175.329 57.7399 174.608 55.5212 173.49 53.9996C172.379 52.4437 170.89 51.6405 169.631 51.2909C168.352 50.9373 167.268 51.0333 166.546 51.1788C165.82 51.3313 165.435 51.5081 165.423 51.4687C165.418 51.4556 165.511 51.4031 165.694 51.3152C165.875 51.2222 166.153 51.1192 166.518 51.0151C167.245 50.8171 168.357 50.6686 169.686 50.9949C170.995 51.3172 172.562 52.1224 173.745 53.742C174.933 55.3252 175.698 57.6429 175.597 60.09C175.567 60.7972 175.462 61.4893 175.303 62.1248L175.11 61.852C177.005 61.6277 178.783 62.4875 179.958 63.7474C181.165 65.0133 181.716 66.6804 181.863 68.0494C182.018 69.4366 181.817 70.5611 181.607 71.2794C181.502 71.6421 181.397 71.9129 181.314 72.0867C181.232 72.2625 181.185 72.3514 181.174 72.3443Z" fill="#33535F"/>
<path d="M165.853 108.229C165.846 108.241 165.769 108.186 165.63 108.069C165.487 107.956 165.295 107.762 165.059 107.494C164.6 106.953 163.998 106.055 163.587 104.753C163.18 103.466 162.989 101.74 163.444 99.9587C163.897 98.1957 165.006 96.464 166.596 95.4243C167.224 95.0101 167.899 94.7231 168.566 94.5797L168.466 94.9303C167.398 93.534 167.05 91.681 167.241 90.1423C167.421 88.5712 168.167 87.3628 168.916 86.6344C169.673 85.8898 170.436 85.5664 170.956 85.4301C171.218 85.3603 171.426 85.332 171.566 85.328C171.706 85.3209 171.779 85.324 171.78 85.3381C171.783 85.3725 171.491 85.4008 170.989 85.5766C170.493 85.7534 169.774 86.106 169.072 86.8445C168.377 87.571 167.703 88.7217 167.555 90.1918C167.395 91.6356 167.741 93.3653 168.732 94.6454L168.949 94.9262L168.632 94.9959C168.005 95.1344 167.368 95.4061 166.775 95.7981C165.269 96.7812 164.21 98.4159 163.765 100.076C163.319 101.749 163.469 103.401 163.831 104.653C164.195 105.919 164.746 106.817 165.163 107.381C165.589 107.94 165.875 108.198 165.853 108.229Z" fill="#33535F"/>
<path d="M165.589 62.1339L165.089 59.4777C163.388 63.2674 162.812 67.7341 163.477 71.9452C163.787 73.9022 164.342 76.0027 163.62 77.8042C163.127 79.0347 162.116 79.8764 161.536 81.0544C160.804 82.5447 161.344 86.4698 161.156 87.2427C160.728 89.0028 159.274 90.1272 158.932 92.255C158.589 94.3818 159.025 96.9521 160.654 97.9695C163.72 92.0348 166.857 85.8687 167.579 78.9812C168.173 73.3092 167.071 67.5775 165.589 62.1339Z" fill="#17282F"/>
<path d="M174.885 76.3553C174.885 76.3695 174.795 76.3776 174.624 76.3725C174.453 76.3664 174.201 76.3452 173.88 76.2816C173.248 76.1492 172.282 75.8714 171.368 74.956C170.922 74.4953 170.511 73.8679 170.271 73.0839C170.03 72.313 169.97 71.3471 170.308 70.4681C170.634 69.6083 171.308 68.8324 172.201 68.6172C172.642 68.5232 173.128 68.5586 173.552 68.8435C173.98 69.1142 174.292 69.7154 174.207 70.3378C174.166 70.65 174.009 70.9318 173.795 71.1147C173.577 71.2915 173.325 71.3612 173.09 71.3764C172.616 71.3986 172.172 71.245 171.782 71.0096C171.019 70.555 170.373 69.9296 169.864 69.2325C168.832 67.8382 168.39 66.1701 168.347 64.7971C168.293 63.4109 168.576 62.3157 168.83 61.6165C168.962 61.2659 169.085 61.0063 169.177 60.8366C169.27 60.6688 169.325 60.585 169.336 60.5931C169.364 60.6113 169.179 60.973 168.963 61.6782C168.755 62.3794 168.52 63.4513 168.605 64.7789C168.678 66.0944 169.125 67.6634 170.118 68.9728C170.607 69.6275 171.223 70.2125 171.944 70.6348C172.288 70.8429 172.686 70.9713 173.07 70.9511C173.456 70.942 173.793 70.6853 173.847 70.2691C173.901 69.8548 173.696 69.4184 173.372 69.2133C173.047 68.99 172.638 68.9526 172.269 69.0294C171.518 69.2011 170.909 69.874 170.615 70.6308C170.311 71.3926 170.347 72.2534 170.557 72.9667C170.764 73.6901 171.135 74.2872 171.541 74.7307C172.375 75.6188 173.298 75.9411 173.908 76.1179C174.531 76.2887 174.889 76.32 174.885 76.3553Z" fill="#33535F"/>
<path d="M167.564 171.53C167.543 171.535 167.465 171.253 167.335 170.72C167.195 170.113 167.017 169.341 166.8 168.396C166.346 166.304 165.73 163.457 164.995 160.068L164.982 160.008L164.999 159.946C165.896 156.554 167.045 152.567 168.352 148.345C170.287 142.086 172.161 136.476 173.533 132.424C174.21 130.462 174.769 128.845 175.186 127.639C175.373 127.125 175.528 126.699 175.656 126.348C175.769 126.055 175.834 125.903 175.849 125.91C175.864 125.916 175.826 126.08 175.741 126.386C175.634 126.747 175.505 127.184 175.349 127.713C174.966 128.934 174.452 130.571 173.829 132.558C172.532 136.644 170.706 142.273 168.774 148.524C167.468 152.742 166.299 156.711 165.366 160.083L165.371 159.962C166.042 163.368 166.605 166.232 167.019 168.334C167.194 169.291 167.337 170.073 167.45 170.686C167.543 171.231 167.584 171.524 167.564 171.53Z" fill="#17282F"/>
<path d="M172.108 155.371C172.18 155.383 172.047 156.679 172.034 158.781C172.011 160.882 172.118 163.793 172.525 166.96C172.948 170.121 173.614 172.936 174.414 174.801C175.179 176.695 176.013 177.59 175.948 177.663C175.926 177.689 175.719 177.472 175.356 177.048C175.011 176.612 174.559 175.915 174.131 174.971C173.237 173.098 172.51 170.241 172.082 167.04C171.669 163.832 171.612 160.888 171.718 158.769C171.761 157.71 171.85 156.856 171.929 156.27C172.015 155.684 172.078 155.365 172.108 155.371Z" fill="#17282F"/>
<path d="M172.196 154.922C172.223 154.95 172.077 155.209 171.851 155.677C171.656 156.174 171.398 156.903 171.197 157.858C170.771 159.756 170.448 162.465 170.371 165.471C170.27 168.479 170.471 171.205 170.746 173.143C171.02 175.085 171.408 176.225 171.334 176.262C171.305 176.275 171.191 176 171.005 175.483C170.903 175.227 170.815 174.902 170.722 174.52C170.621 174.14 170.514 173.704 170.435 173.213C170.074 171.261 169.821 168.498 169.922 165.454C170.001 162.412 170.378 159.669 170.893 157.754C171.137 156.793 171.45 156.056 171.7 155.575C171.985 155.115 172.179 154.9 172.196 154.922Z" fill="#17282F"/>
<path d="M172.586 155.88C172.474 155.944 171.569 153.819 170.564 151.135C169.558 148.45 168.836 146.231 168.952 146.178C169.067 146.125 169.972 148.249 170.974 150.923C171.976 153.597 172.697 155.816 172.586 155.88Z" fill="#17282F"/>
</svg>
