<svg width="500" height="415" viewBox="0 0 500 415" fill="none" xmlns="http://www.w3.org/2000/svg">
<path d="M489.136 119.574C490.383 129.638 484.424 138.985 475.827 140.451C467.231 141.917 459.251 134.947 458.004 124.882C456.758 114.82 462.717 105.473 471.314 104.007C479.911 102.541 487.89 109.51 489.136 119.574" fill="#F3F2F1"/>
<path d="M485.433 120.206C486.382 127.875 481.842 134.998 475.29 136.115C468.739 137.232 462.658 131.921 461.708 124.252C460.759 116.583 465.299 109.46 471.85 108.342C478.401 107.226 484.483 112.537 485.433 120.206Z" fill="#E7E8E5"/>
<path d="M485.376 119.77C485.304 119.785 485.178 119.183 484.855 118.15C484.529 117.123 483.979 115.652 482.958 114.117C482.448 113.354 481.825 112.577 481.075 111.856C480.321 111.144 479.447 110.476 478.455 109.956C477.96 109.694 477.44 109.46 476.894 109.279C476.348 109.094 475.782 108.941 475.196 108.856C474.613 108.767 474.012 108.714 473.404 108.732C472.795 108.75 472.179 108.818 471.563 108.941C470.947 109.075 470.348 109.26 469.772 109.489C469.195 109.717 468.647 110.009 468.124 110.328C467.6 110.646 467.113 111.018 466.655 111.411C466.195 111.802 465.775 112.232 465.387 112.678C464.609 113.568 463.984 114.547 463.486 115.52C462.993 116.5 462.635 117.481 462.381 118.404C461.873 120.257 461.79 121.86 461.784 122.956C461.784 124.056 461.843 124.672 461.772 124.687C461.718 124.699 461.54 124.106 461.427 122.978C461.322 121.858 461.304 120.176 461.758 118.19C461.985 117.201 462.329 116.142 462.824 115.079C463.326 114.022 463.969 112.955 464.788 111.98C465.195 111.491 465.639 111.019 466.129 110.589C466.616 110.157 467.137 109.75 467.699 109.399C468.26 109.049 468.849 108.729 469.471 108.479C470.093 108.226 470.739 108.026 471.403 107.883C472.067 107.749 472.732 107.677 473.389 107.662C474.047 107.647 474.693 107.709 475.323 107.812C475.953 107.913 476.563 108.086 477.147 108.295C477.732 108.5 478.288 108.764 478.814 109.058C479.868 109.643 480.785 110.385 481.567 111.175C482.343 111.974 482.977 112.829 483.481 113.665C484.491 115.346 484.967 116.932 485.197 118.026C485.423 119.131 485.429 119.76 485.376 119.77" fill="#DADBD8"/>
<path d="M476.674 125.712C476.571 124.955 475.981 124.645 475.145 124.469L475.552 127.451C476.44 127.041 476.769 126.403 476.674 125.712V125.712ZM472.797 121.101L472.378 118.033C471.439 118.476 471.137 119.175 471.235 119.888C471.338 120.644 471.946 120.951 472.797 121.101ZM475.94 130.302L476.271 132.721L474.43 133.066L474.109 130.712C472.269 130.925 470.429 130.585 469.289 129.845L469.942 127.02C470.972 127.647 472.376 127.98 473.723 127.883L473.231 124.275C471.107 124.077 468.716 123.706 468.295 120.617C467.982 118.327 469.132 116.097 471.986 115.161L471.659 112.763L473.5 112.417L473.822 114.772C475.22 114.643 476.622 114.822 477.738 115.387L477.18 118.217C476.156 117.768 475.149 117.58 474.21 117.622L474.712 121.295C476.831 121.473 479.186 121.85 479.602 124.896C479.908 127.142 478.775 129.348 475.94 130.302" fill="#398AB9"/>
<path d="M65.7973 14.4496C66.94 23.675 61.4774 32.2436 53.5969 33.5874C45.7156 34.9311 38.4009 28.5418 37.2583 19.3164C36.1156 10.09 41.5782 1.52235 49.4587 0.178599C57.34 -1.16616 64.6547 5.22422 65.7973 14.4496Z" fill="#F3F2F1"/>
<path d="M62.4021 15.0285C63.2727 22.0584 59.1103 28.5882 53.1044 29.6127C47.0993 30.6372 41.5239 25.7674 40.6534 18.7374C39.7829 11.7065 43.9461 5.17667 49.9512 4.15218C55.9571 3.12871 61.5316 7.99757 62.4021 15.0285Z" fill="#E7E8E5"/>
<path d="M62.3504 14.6295C62.2841 14.6436 62.1687 14.0909 61.8725 13.1442C61.5729 12.2026 61.07 10.8538 60.134 9.44744C59.6665 8.74627 59.0947 8.03499 58.4067 7.37423C57.7153 6.72054 56.9154 6.10931 56.0061 5.63243C55.5523 5.39197 55.0753 5.17673 54.5741 5.01104C54.0747 4.84231 53.5555 4.7029 53.0182 4.62308C52.4835 4.54226 51.9332 4.49377 51.3753 4.51095C50.8173 4.52611 50.2525 4.58874 49.6867 4.7029C49.1227 4.82516 48.5742 4.99287 48.0456 5.20403C47.516 5.41317 47.014 5.68089 46.5352 5.97288C46.0548 6.26487 45.6079 6.60536 45.1885 6.96605C44.7666 7.32371 44.3817 7.71877 44.0261 8.12695C43.3123 8.94229 42.7405 9.84048 42.2833 10.7326C41.8321 11.6308 41.5032 12.53 41.2698 13.3767C40.8049 15.075 40.7282 16.5451 40.7231 17.5483C40.7239 18.5577 40.7773 19.1235 40.711 19.1356C40.6628 19.1467 40.4992 18.6031 40.3959 17.5696C40.2994 16.542 40.2831 15.0013 40.699 13.1807C40.9073 12.2744 41.2225 11.3035 41.6763 10.3285C42.1361 9.35956 42.7259 8.38051 43.4768 7.48636C43.8496 7.03878 44.2569 6.60637 44.7055 6.21234C45.1524 5.81629 45.6303 5.44246 46.1452 5.12218C46.6592 4.79989 47.2 4.50791 47.77 4.27756C48.34 4.04619 48.9324 3.86333 49.5404 3.73198C50.15 3.60973 50.7596 3.54305 51.3615 3.52992C51.9643 3.51577 52.5575 3.57231 53.1344 3.66627C53.7122 3.75922 54.271 3.91788 54.8058 4.10884C55.3431 4.29777 55.8528 4.53921 56.3342 4.80897C57.3011 5.34445 58.1424 6.02541 58.8588 6.74982C59.57 7.48131 60.1512 8.26536 60.6136 9.03221C61.5384 10.574 61.975 12.0269 62.1859 13.0311C62.3934 14.0425 62.3986 14.6204 62.3504 14.6295" fill="#DADBD8"/>
<path d="M54.3728 20.0764C54.2781 19.3823 53.7382 19.0984 52.9718 18.9377L53.3447 21.6697C54.1584 21.2938 54.4597 20.7099 54.3728 20.0764V20.0764ZM50.8192 15.8491L50.4351 13.0373C49.5732 13.4425 49.2977 14.084 49.3864 14.7377C49.4811 15.4298 50.0391 15.7117 50.8192 15.8491ZM53.7003 24.2834L54.0034 26.5021L52.3157 26.8184L52.0212 24.6602C50.3344 24.8552 48.6476 24.5431 47.604 23.8651L48.2016 21.2756C49.1461 21.8495 50.4334 22.1557 51.6682 22.0657L51.2161 18.7589C49.2701 18.577 47.0779 18.2376 46.6913 15.4056C46.4054 13.3071 47.4585 11.2612 50.0761 10.4044L49.7764 8.20591L51.4641 7.88865L51.7586 10.0478C53.0399 9.92854 54.3254 10.0922 55.3484 10.6115L54.8378 13.2061C53.8983 12.7929 52.9753 12.6211 52.1151 12.6605L52.574 16.0269C54.5174 16.1896 56.6761 16.5361 57.0576 19.3277C57.3383 21.3868 56.299 23.4105 53.7003 24.2834" fill="#F2575D"/>
<path d="M393.278 314.894C386.107 325.158 373.188 326.644 364.42 318.213C355.653 309.782 354.356 294.626 361.526 284.362C368.694 274.097 381.614 272.612 390.382 281.043C399.15 289.474 400.446 304.63 393.278 314.894Z" fill="#F3F2F1"/>
<path d="M389.499 311.262C384.036 319.083 374.191 320.216 367.508 313.79C360.827 307.367 359.84 295.816 365.302 287.994C370.767 280.172 380.612 279.04 387.293 285.465C393.975 291.89 394.962 303.44 389.499 311.262Z" fill="#E7E8E5"/>
<path d="M389.807 310.815C389.731 310.747 390.115 310.074 390.679 308.8C391.236 307.527 391.961 305.613 392.323 303.107C392.502 301.858 392.591 300.47 392.523 298.987C392.445 297.508 392.224 295.933 391.779 294.354C391.559 293.564 391.293 292.769 390.961 291.991C390.633 291.213 390.26 290.438 389.816 289.701C389.375 288.962 388.89 288.238 388.339 287.565C387.79 286.892 387.191 286.255 386.547 285.667C385.896 285.089 385.218 284.573 384.523 284.124C383.827 283.672 383.106 283.309 382.384 282.998C381.661 282.685 380.927 282.462 380.201 282.29C379.476 282.113 378.753 282.017 378.045 281.972C376.63 281.874 375.277 282.029 374.039 282.322C372.8 282.627 371.68 283.085 370.698 283.609C368.728 284.666 367.339 285.982 366.434 286.94C365.53 287.908 365.076 288.517 365.001 288.448C364.944 288.399 365.275 287.675 366.102 286.556C366.93 285.451 368.294 283.951 370.324 282.717C371.337 282.104 372.508 281.56 373.818 281.186C375.128 280.822 376.571 280.611 378.092 280.678C378.851 280.709 379.63 280.796 380.413 280.971C381.197 281.143 381.99 281.374 382.772 281.701C383.554 282.026 384.335 282.412 385.089 282.895C385.842 283.375 386.575 283.93 387.276 284.554C387.971 285.189 388.615 285.877 389.205 286.607C389.796 287.337 390.315 288.124 390.784 288.926C391.255 289.727 391.65 290.568 391.992 291.412C392.338 292.255 392.611 293.116 392.832 293.968C393.279 295.675 393.477 297.366 393.516 298.945C393.543 300.524 393.398 301.995 393.154 303.301C392.662 305.921 391.778 307.854 391.082 309.078C390.374 310.305 389.862 310.865 389.807 310.815" fill="#DADBD8"/>
<path d="M377.271 306.202C377.802 305.42 377.537 304.481 376.947 303.381L374.856 306.463C375.974 307.107 376.786 306.917 377.271 306.202ZM377.647 297.761L379.798 294.589C378.608 293.916 377.768 294.191 377.269 294.927C376.738 295.709 377.021 296.667 377.647 297.761V297.761ZM372.856 309.411L371.159 311.914L369.256 310.136L370.907 307.702C369.113 305.808 367.775 303.427 367.378 301.489L370.273 299.742C370.665 301.457 371.626 303.339 372.892 304.775L375.421 301.045C373.716 298.47 371.916 295.439 374.083 292.245C375.689 289.877 378.533 289.213 381.812 291.618L383.494 289.139L385.398 290.916L383.746 293.351C385.084 294.818 386.17 296.562 386.687 298.321L383.872 300.181C383.34 298.627 382.608 297.323 381.747 296.299L379.172 300.097C380.892 302.65 382.654 305.646 380.518 308.795C378.942 311.118 376.132 311.778 372.856 309.411" fill="#F2575D"/>
<path d="M387.523 30.0392C384.83 31.6669 381.523 30.4262 380.135 27.2678C378.747 24.1085 379.804 20.2278 382.497 18.5992C385.189 16.9715 388.496 18.2112 389.884 21.3705C391.272 24.5289 390.215 28.4095 387.523 30.0392ZM443.203 76.744L412.086 17.9162C411.24 16.2703 409.843 15.1165 408.237 14.7376L380.734 8.25333C377.766 7.55317 374.835 9.62939 373.98 13.0363L366.056 44.6113C365.593 46.4552 365.811 48.4425 366.658 50.0883L397.774 108.917C399.441 112.157 403.031 113.199 405.793 111.243L441.22 86.1533C443.982 84.1973 444.87 79.9852 443.203 76.744" fill="#F2575D"/>
<path d="M421.467 62.0265C419.684 58.6621 417.93 58.1003 416.596 59.0733C415.263 60.0462 414.916 62.1407 416.699 65.5061C418.483 68.8715 420.237 69.4323 421.571 68.4593C422.904 67.4874 423.251 65.3929 421.467 62.0265ZM411.851 69.0433C408.812 63.3076 410.008 57.6356 414.209 54.5692C418.411 51.5039 423.317 52.7243 426.356 58.46C429.421 64.2442 428.159 69.898 423.957 72.9634C419.755 76.0298 414.916 74.8275 411.851 69.0433V69.0433ZM402.913 41.7096L408.731 37.4652L407.004 84.7409L401.186 88.9863L402.913 41.7096ZM393.218 60.9454C391.434 57.579 389.72 56.9879 388.346 57.9912C387.054 58.9349 386.666 61.0576 388.45 64.424C390.234 67.7895 392.028 68.3209 393.321 67.3773C394.695 66.375 395.001 64.3119 393.218 60.9454V60.9454ZM383.601 67.9602C380.561 62.2235 381.798 56.5232 385.96 53.4871C390.161 50.4218 395.067 51.6423 398.106 57.3789C401.172 63.1631 399.909 68.816 395.708 71.8813C391.546 74.9174 386.666 73.7444 383.601 67.9602Z" fill="#398AB9"/>
<path d="M491.373 214.4L469.047 206.861C468.669 206.733 468.451 206.271 468.559 205.827C468.669 205.383 469.063 205.128 469.441 205.255L491.192 212.601L497.557 197.354L471.277 188.479C470.899 188.352 470.681 187.889 470.79 187.446C470.899 187.002 471.292 186.746 471.671 186.874L498.767 196.023C498.969 196.092 499.136 196.262 499.222 196.488C499.306 196.713 499.303 196.972 499.21 197.194L492.209 213.965C492.058 214.329 491.705 214.513 491.373 214.4" fill="#398AB9"/>
<path d="M489.117 220.333L489.115 220.332L467.872 213.066C467.529 212.949 467.313 212.551 467.368 212.136L471.142 183.34L464.914 181.237C464.536 181.109 464.319 180.647 464.427 180.203C464.536 179.759 464.93 179.503 465.308 179.632L472.138 181.937C472.481 182.054 472.699 182.452 472.645 182.868L468.87 211.667L489.514 218.729C489.891 218.857 490.108 219.321 489.998 219.764C489.888 220.206 489.494 220.46 489.117 220.333" fill="#F2575D"/>
<path d="M470.669 216.989C469.587 216.624 468.453 217.36 468.141 218.63C467.83 219.899 468.457 221.229 469.539 221.595C470.621 221.96 471.755 221.224 472.066 219.954C472.378 218.685 471.75 217.355 470.669 216.989V216.989ZM469.145 223.2C467.308 222.58 466.244 220.323 466.773 218.167C467.301 216.012 469.226 214.763 471.062 215.383C472.899 216.004 473.963 218.261 473.435 220.417C472.906 222.572 470.982 223.821 469.145 223.2Z" fill="#F2575D"/>
<path d="M485.346 221.945C484.264 221.58 483.129 222.316 482.818 223.585C482.507 224.855 483.134 226.186 484.216 226.551C485.298 226.916 486.432 226.18 486.743 224.911C487.055 223.642 486.427 222.31 485.346 221.945ZM483.822 228.157C481.985 227.537 480.921 225.279 481.449 223.124C481.978 220.967 483.903 219.719 485.739 220.339C487.577 220.959 488.641 223.217 488.112 225.373C487.584 227.529 485.659 228.777 483.822 228.157Z" fill="#F2575D"/>
<path d="M475.939 209.188C475.581 209.068 475.36 208.638 475.442 208.205L478.728 190.798C478.813 190.347 479.193 190.062 479.577 190.162C479.967 190.263 480.203 190.709 480.118 191.159L476.832 208.567C476.747 209.017 476.367 209.301 475.983 209.201L475.939 209.188" fill="#398AB9"/>
<path d="M484.104 211.945L484.066 211.931C483.694 211.78 483.499 211.303 483.629 210.867L488.637 194.041C488.766 193.605 489.172 193.374 489.543 193.528C489.915 193.68 490.111 194.156 489.981 194.592L484.973 211.418C484.848 211.838 484.465 212.067 484.104 211.945Z" fill="#398AB9"/>
<path d="M469.865 197.878C469.49 197.752 469.272 197.294 469.376 196.853C469.481 196.407 469.873 196.148 470.252 196.271L495.26 204.407L495.267 204.409C495.641 204.536 495.86 204.993 495.756 205.436C495.651 205.88 495.258 206.14 494.879 206.018L469.871 197.881L469.865 197.878" fill="#398AB9"/>
<path d="M310.219 340.051C310.219 340.051 303.922 340.478 303.413 341.77C303.413 341.77 303.332 347.208 307.787 352.688L306.909 354.917L306.904 358.544C308.975 353.831 311.288 346.613 311.288 346.613C311.288 346.613 311.391 341.542 310.219 340.051Z" fill="#33535F"/>
<path d="M309.08 351.667H309.044C307.911 346.88 309.994 340.532 309.994 340.532C311.149 343.513 310.834 346.585 310.286 348.805C309.856 349.654 309.447 350.605 309.08 351.667Z" fill="#20353D"/>
<path d="M319.898 349.071C319.898 349.071 316.975 342.511 315.764 342.498C315.764 342.498 311.505 344.648 309.08 351.667L306.988 351.643C306.988 351.643 305.875 346.009 300.282 342.909C300.282 342.909 297.088 349.661 296.978 349.594C296.869 349.529 299.656 352.854 304.169 353.131C308.681 353.407 315.24 352.913 315.24 352.913C315.24 352.913 319.222 350.938 319.898 349.071Z" fill="#33535F"/>
<path d="M305.645 352.641L302.334 352.604C299.58 351.846 297.365 349.658 297.365 349.658C297.536 349.645 297.707 349.638 297.881 349.638C301.592 349.638 305.902 352.557 305.902 352.557C305.816 352.587 305.731 352.615 305.645 352.641Z" fill="#20353D"/>
<path d="M313.234 352.725L310.29 352.692C312.258 350.698 315.22 349.774 317.235 349.356L317.123 351.211C315.811 352.077 314.424 352.512 313.234 352.725Z" fill="#20353D"/>
<path d="M329.083 352.898L327.414 382.325L288.699 381.9L288.396 352.452L329.083 352.898Z" fill="#F2575D"/>
<path d="M327.414 382.325L321.499 382.261L327.414 382.325L327.427 382.095L327.414 382.325Z" fill="#0F191D"/>
<path d="M327.414 382.325L321.499 382.261L321.501 382.067H327.428L327.427 382.095L327.414 382.325" fill="#CC4341"/>
<path d="M326.172 352.866L324.951 382.299L323.607 382.284L323.842 352.841L326.172 352.866Z" fill="#33535F"/>
<path d="M306.994 352.656L306.759 382.099L303.532 382.064L303.768 352.621L306.994 352.656Z" fill="#33535F"/>
<path d="M328.211 368.278H288.529V365.422H328.211V368.278Z" fill="#33535F"/>
<path d="M348.354 324.726C348.263 324.757 348.252 321.992 347.159 318.013C346.609 316.048 345.75 313.795 344.416 311.849C343.104 309.901 341.179 308.452 339.06 308.44C336.942 308.427 335.01 309.858 333.69 311.795C332.349 313.73 331.484 315.979 330.929 317.94C329.826 321.912 329.809 324.678 329.719 324.645C329.707 324.643 329.707 324.475 329.719 324.155C329.727 323.835 329.752 323.364 329.811 322.762C329.929 321.562 330.153 319.813 330.7 317.79C331.234 315.773 332.094 313.452 333.467 311.43C334.819 309.405 336.841 307.881 339.062 307.897C341.281 307.906 343.296 309.451 344.64 311.487C346.007 313.518 346.859 315.845 347.389 317.865C347.93 319.891 348.151 321.64 348.266 322.842C348.324 323.444 348.348 323.916 348.356 324.236C348.366 324.556 348.366 324.724 348.354 324.726" fill="#17282F"/>
<path d="M351.572 324.726C351.482 324.757 351.47 321.992 350.377 318.013C349.827 316.048 348.968 313.795 347.634 311.849C346.322 309.901 344.397 308.452 342.278 308.44C340.16 308.427 338.228 309.858 336.908 311.795C335.567 313.73 334.702 315.979 334.147 317.94C333.044 321.912 333.027 324.678 332.937 324.645C332.925 324.643 332.925 324.475 332.937 324.155C332.945 323.835 332.97 323.364 333.029 322.762C333.147 321.562 333.371 319.813 333.918 317.79C334.452 315.773 335.312 313.452 336.685 311.43C338.037 309.405 340.059 307.881 342.28 307.897C344.499 307.906 346.514 309.451 347.858 311.487C349.225 313.518 350.077 315.845 350.608 317.865C351.148 319.891 351.369 321.64 351.484 322.842C351.542 323.444 351.566 323.916 351.574 324.236C351.584 324.556 351.584 324.724 351.572 324.726" fill="#17282F"/>
<path d="M318.902 321.814L355.242 321.475L356.035 382.067H315.256L318.902 321.814Z" fill="#F2575D"/>
<path d="M355.242 321.475H359.804L363.731 382.067H356.035L355.242 321.475Z" fill="#F2575D"/>
<path d="M349.045 348.179H325.254V342.057H349.045V348.179Z" fill="white"/>
<path d="M363.731 382.067H356.035L355.242 321.475H359.804L363.731 382.067" fill="#CC4341"/>
<path d="M315.256 382.067C315.133 382.058 315.634 371.588 316.376 358.686C317.118 345.779 317.819 335.327 317.943 335.337C318.066 335.346 317.565 345.814 316.823 358.721C316.081 371.623 315.38 382.077 315.256 382.067" fill="#17282F"/>
<path d="M336.735 40.4971H10.1933C4.56363 40.4971 0 45.8509 0 52.4564V323.085C0 329.691 4.56363 335.046 10.1933 335.046H135.519L129.443 382.325H220.31L215.236 335.046H336.737C342.365 335.046 346.929 329.691 346.929 323.086V52.4574C346.929 45.8508 342.365 40.4971 336.735 40.4971Z" fill="#61A1C7"/>
<path d="M177.824 306.583C182.266 314.033 175.314 322.19 168.964 316.98C168.755 316.807 168.564 316.584 168.419 316.337C163.989 308.89 170.932 300.744 177.278 305.943C177.487 306.115 177.678 306.338 177.824 306.583" fill="#17282F"/>
<path d="M337.837 285.536H9.13232V60.6261C9.13232 55.2157 12.8711 50.8288 17.482 50.8288H329.487C334.098 50.8288 337.837 55.2157 337.837 60.6261V285.536Z" fill="#17282F"/>
<path d="M248.928 335.05C248.928 335.181 221.554 335.287 187.795 335.287C154.024 335.287 126.656 335.181 126.656 335.05C126.656 334.919 154.024 334.813 187.795 334.813C221.554 334.813 248.928 334.919 248.928 335.05Z" fill="#17282F"/>
<path d="M18.0452 275.833H329.313V60.5323H18.0452V275.833Z" fill="white"/>
<path d="M329.313 78.4221H18.0452V60.5321H329.313V78.4221Z" fill="#DADBD8"/>
<path d="M30.1441 69.8524C30.1441 71.2224 29.1651 72.3337 27.9578 72.3337C26.7498 72.3337 25.7708 71.2224 25.7708 69.8524C25.7708 68.4824 26.7498 67.371 27.9578 67.371C29.1651 67.371 30.1441 68.4824 30.1441 69.8524Z" fill="white"/>
<path d="M36.6625 69.8524C36.6625 71.2224 35.6835 72.3337 34.4763 72.3337C33.2691 72.3337 32.29 71.2224 32.29 69.8524C32.29 68.4824 33.2691 67.371 34.4763 67.371C35.6835 67.371 36.6625 68.4824 36.6625 69.8524Z" fill="white"/>
<path d="M42.861 69.8524C42.861 71.2224 41.882 72.3337 40.6748 72.3337C39.4667 72.3337 38.4885 71.2224 38.4885 69.8524C38.4885 68.4824 39.4667 67.371 40.6748 67.371C41.882 67.371 42.861 68.4824 42.861 69.8524Z" fill="white"/>
<path d="M329.373 182.042H17.9858V105.066H329.373V182.042Z" fill="#DADBD8"/>
<path d="M274.41 95.9111H252.378V86.8151H274.41V95.9111Z" fill="#DADBD8"/>
<path d="M238.391 95.6687H216.359V86.5736H238.391V95.6687Z" fill="#DADBD8"/>
<path d="M162.062 171.323C162.062 173.057 160.823 174.464 159.294 174.464C157.766 174.464 156.527 173.057 156.527 171.323C156.527 169.589 157.766 168.182 159.294 168.182C160.823 168.182 162.062 169.589 162.062 171.323Z" fill="#F2575D"/>
<path d="M173.082 171.323C173.082 173.057 171.843 174.464 170.315 174.464C168.787 174.464 167.547 173.057 167.547 171.323C167.547 169.589 168.787 168.182 170.315 168.182C171.843 168.182 173.082 169.589 173.082 171.323Z" fill="white"/>
<path d="M183.604 171.323C183.604 173.057 182.365 174.464 180.837 174.464C179.308 174.464 178.069 173.057 178.069 171.323C178.069 169.589 179.308 168.182 180.837 168.182C182.365 168.182 183.604 169.589 183.604 171.323Z" fill="white"/>
<path d="M125.561 171.561H44.1157V161.981H125.561V171.561Z" fill="#F2575D"/>
<path d="M97.7522 244.21H50.6865V196.037H97.7522V244.21Z" fill="#DADBD8"/>
<path d="M152.086 241.735H191.77V195.172H152.086V241.735Z" fill="#DADBD8"/>
<path d="M243.095 243.167H285.219V193.74H243.095V243.167Z" fill="#DADBD8"/>
<path d="M103.173 208.033C103.173 208.033 91.376 192.386 89.8898 191.39C89.1433 190.889 87.8 190.525 86.6479 190.286C86.1381 190.143 85.4553 190.037 84.689 189.953C84.6054 189.942 84.5521 189.936 84.5521 189.936L84.5529 189.938C80.9442 189.566 75.4627 189.745 75.4627 189.745C75.4627 189.745 75.3688 195.401 69.2303 197.767C62.9179 199.383 60.3906 194.566 60.3906 194.566C60.3906 194.566 55.5902 197.674 52.6419 200.144L52.6411 200.142L52.5309 200.239C51.9066 200.766 51.3641 201.265 50.987 201.692C50.0975 202.583 49.0978 203.697 48.6707 204.573C47.8209 206.317 44.4231 226.823 44.4231 226.823L57.0514 229.789L58.3336 219.687L65.1523 252.6L80.1667 247.798L81.4436 247.39L96.6293 242.533L88.0996 210.167L93.5725 218.108L103.173 208.033" fill="#F2575D"/>
<path d="M60.2123 227.773C60.1589 227.789 59.8688 226.671 59.4339 224.818C59 222.964 58.4205 220.375 57.7902 217.448L57.8272 217.538C57.5904 217.17 57.3398 216.781 57.0867 216.388C55.3663 213.706 53.8284 211.263 52.7331 209.479C52.1846 208.588 51.7472 207.861 51.4527 207.351C51.1583 206.842 51.0067 206.55 51.0308 206.529C51.0541 206.509 51.2513 206.76 51.5871 207.233C51.9229 207.706 52.3973 208.4 52.9768 209.264C54.135 210.993 55.7116 213.402 57.4311 216.083C57.6842 216.478 57.9331 216.867 58.169 217.235L58.1957 217.277L58.2061 217.325C58.8243 220.256 59.3521 222.861 59.7129 224.736C60.0728 226.611 60.2657 227.758 60.2123 227.773" fill="#17282F"/>
<path d="M89.9149 218.274C89.8624 218.292 89.5317 217.19 89.0315 215.359C88.5312 213.528 87.8604 210.97 87.1251 208.077L87.113 208.028L87.1182 207.977C87.1621 207.519 87.2077 207.035 87.2551 206.545C87.578 203.211 87.8949 200.196 88.1446 198.017C88.2703 196.927 88.3788 196.047 88.464 195.438C88.5484 194.831 88.6096 194.498 88.6388 194.502C88.669 194.506 88.6638 194.846 88.6302 195.461C88.5975 196.075 88.5347 196.962 88.4485 198.057C88.2755 200.247 88.0068 203.267 87.6839 206.602C87.6357 207.092 87.5883 207.576 87.5436 208.033L87.5358 207.934C88.2591 210.832 88.8799 213.408 89.307 215.263C89.7341 217.119 89.9683 218.256 89.9149 218.274Z" fill="#17282F"/>
<path d="M82.7628 217.265L81.8596 217.553C79.5907 218.275 77.2529 216.702 76.6372 214.041L75.0649 207.244L84.1845 204.341L85.7559 211.137C86.3716 213.798 85.0317 216.542 82.7628 217.265" fill="white"/>
<path d="M75.0915 207.262L76.6578 214.034C76.954 215.315 77.6574 216.384 78.6382 217.043C79.6198 217.703 80.7607 217.877 81.8534 217.528L82.7575 217.24C85.0109 216.522 86.3464 213.787 85.7351 211.143L84.1688 204.372L75.0915 207.262ZM80.7375 217.754C80.0004 217.754 79.2737 217.528 78.6175 217.087C77.6264 216.421 76.9152 215.341 76.6164 214.047L75.0381 207.227L75.0596 207.22L84.1989 204.309L84.205 204.334L85.7764 211.13C86.3938 213.801 85.0445 216.563 82.7687 217.289L81.8646 217.577C81.4918 217.695 81.1138 217.754 80.7375 217.754" fill="#17282F"/>
<path d="M83.0349 217.102C83.0237 217.063 83.3389 216.972 83.8392 216.629C84.3257 216.287 85.0214 215.635 85.4244 214.49C85.6233 213.925 85.7386 213.25 85.7008 212.525C85.662 211.81 85.4097 211.04 85.2246 210.202C84.8259 208.525 84.3842 206.671 83.9115 204.683L84.1638 204.852C82.5898 205.359 80.8857 205.909 79.1154 206.478C77.8401 206.885 76.5985 207.28 75.4136 207.656L75.5617 207.353C76.0612 209.549 76.5296 211.607 76.9549 213.475C77.0617 213.939 77.153 214.399 77.2787 214.795C77.4104 215.2 77.599 215.559 77.8048 215.883C78.2336 216.516 78.7701 216.968 79.3117 217.223C80.4113 217.77 81.3946 217.533 82.0249 217.336C82.6724 217.157 83.028 217.073 83.0349 217.102C83.0418 217.131 82.6991 217.271 82.0636 217.502C81.4549 217.749 80.4009 218.064 79.2118 217.519C78.6237 217.266 78.0321 216.797 77.5525 216.119C77.3218 215.773 77.1099 215.386 76.9584 214.946C76.8086 214.498 76.7147 214.049 76.6019 213.588C76.1611 211.725 75.6745 209.672 75.1553 207.483L75.0994 207.245L75.3034 207.18C76.4865 206.799 77.7273 206.401 79.0025 205.99C80.7738 205.428 82.4804 204.886 84.0553 204.386L84.255 204.323L84.3076 204.556C84.7605 206.551 85.1816 208.411 85.563 210.094C85.7318 210.929 85.9772 211.702 86.0082 212.505C86.0323 213.292 85.8893 214.016 85.6603 214.611C85.1945 215.816 84.4298 216.462 83.9055 216.772C83.6377 216.927 83.4189 217.017 83.2674 217.057C83.1167 217.1 83.0384 217.116 83.0349 217.102" fill="#17282F"/>
<path d="M95.392 260.696H54.3357V254.261H95.392V260.696" fill="#DADBD8"/>
<path d="M191.52 260.696H150.464V254.261H191.52V260.696" fill="#DADBD8"/>
<path d="M285.626 260.533H246.647V254.424H285.626V260.533" fill="#DADBD8"/>
<path d="M293.809 233.319C293.319 231.313 291.094 231.278 289.464 230.439C285.362 228.324 281.512 225.536 278.06 222.183L243.129 219.358L243 221.009C250.981 234.496 265.718 244.462 279.692 243.589C283.429 243.356 287.221 242.487 290.437 240.24C292.263 238.965 294.394 235.717 293.809 233.319" fill="#F2575D"/>
<path d="M277.978 243.643C264.527 243.642 250.655 233.945 243 221.009L243.129 219.358L278.06 222.183C281.512 225.536 285.362 228.324 289.464 230.438C291.094 231.278 293.319 231.312 293.809 233.319C293.876 233.596 293.907 233.883 293.907 234.178C293.907 236.439 292.052 239.111 290.437 240.24C288.817 241.371 287.051 242.153 285.219 242.682C284.542 242.877 283.855 243.036 283.164 243.167C282.014 243.384 280.85 243.517 279.692 243.589C279.121 243.625 278.55 243.643 277.978 243.643" fill="#CC4341"/>
<path d="M279.93 211.525C278.178 206.671 275.739 202.115 271.137 199.7C265.244 196.608 258.476 197.643 253.251 201.206C248.026 204.77 243.909 213.631 243.033 220.006C255.03 232.864 278.994 235.159 282.739 227.233C283.197 222.217 281.681 216.379 279.93 211.525" fill="#F2575D"/>
<path d="M293.702 232.569C293.213 230.563 291.344 229.578 289.715 228.738C285.613 226.624 281.762 223.836 278.31 220.483L243.033 220.006C251.015 233.493 265.968 242.762 279.943 241.889C283.68 241.655 287.471 240.786 290.687 238.539C292.513 237.264 294.287 234.967 293.702 232.569Z" fill="#F2575D"/>
<path d="M283.126 224.601C283.14 224.604 283.129 224.789 283.079 225.135C283.023 225.48 282.923 225.989 282.713 226.615C282.303 227.85 281.325 229.595 279.495 230.759C278.595 231.346 277.523 231.791 276.345 232.085C275.753 232.212 275.14 232.338 274.503 232.393C273.869 232.479 273.213 232.541 272.54 232.547C269.848 232.649 266.886 232.318 263.849 231.587C257.755 230.127 252.59 227.349 249.066 225.017C247.314 223.815 245.948 222.745 245.037 221.954C244.621 221.578 244.28 221.269 244.004 221.018C243.771 220.799 243.653 220.678 243.663 220.664C243.672 220.648 243.808 220.742 244.058 220.932C244.346 221.161 244.703 221.444 245.137 221.786C246.075 222.523 247.46 223.539 249.221 224.693C252.762 226.927 257.904 229.626 263.94 231.072C266.947 231.795 269.873 232.137 272.529 232.063C273.194 232.063 273.839 232.01 274.464 231.932C275.093 231.886 275.692 231.771 276.272 231.658C277.423 231.389 278.466 230.977 279.343 230.431C281.125 229.351 282.101 227.718 282.552 226.535C283.002 225.33 283.082 224.589 283.126 224.601" fill="#17282F"/>
<path d="M275.26 232.076C275.245 232.075 275.238 231.827 275.238 231.355C275.244 230.83 275.252 230.145 275.262 229.292C275.326 227.503 275.293 224.912 275.154 221.721C274.951 218.541 274.6 214.737 273.589 210.694C273.326 209.689 273.059 208.658 272.673 207.654C272.348 206.621 271.877 205.644 271.422 204.638C270.448 202.683 269.129 200.805 267.395 199.577C267.201 199.436 266.984 199.318 266.809 199.235L266.929 199.242C264.95 199.727 263.126 200.685 261.631 202.056C260.126 203.415 258.904 205.055 257.795 206.65C255.547 209.83 253.97 213.068 252.866 215.897C251.758 218.727 251.048 221.113 250.524 222.744C250.273 223.52 250.073 224.143 249.918 224.621C249.775 225.048 249.693 225.27 249.678 225.263C249.664 225.257 249.718 225.024 249.834 224.587C249.968 224.101 250.143 223.466 250.361 222.676C250.836 221.025 251.501 218.615 252.58 215.744C253.653 212.879 255.227 209.572 257.476 206.349C258.584 204.73 259.816 203.057 261.364 201.649C262.901 200.227 264.807 199.223 266.833 198.729L266.9 198.712L266.953 198.736C267.187 198.845 267.402 198.967 267.616 199.119C269.461 200.427 270.804 202.37 271.801 204.377C272.265 205.406 272.742 206.41 273.068 207.462C273.457 208.487 273.723 209.535 273.985 210.557C274.988 214.662 275.307 218.498 275.471 221.7C275.569 224.91 275.554 227.508 275.436 229.299C275.391 230.151 275.356 230.836 275.328 231.36C275.299 231.831 275.276 232.077 275.26 232.076" fill="#17282F"/>
<path d="M268.063 199.708L265.913 199.272L266.043 198.385C266.135 197.762 266.642 197.343 267.174 197.451L267.398 197.496C267.93 197.604 268.286 198.199 268.194 198.822L268.063 199.708" fill="#17282F"/>
<path d="M266.388 218.465L265.489 223.117C265.489 223.117 270.737 226.475 275.67 225.327C278.943 224.565 280.281 222.298 280.281 222.298L279.949 218.272C279.949 218.272 278.544 220.16 274.311 220.276C271.21 220.361 266.388 218.465 266.388 218.465" fill="white"/>
<path d="M292.076 237.153C292.086 237.166 291.992 237.274 291.805 237.468C291.613 237.658 291.342 237.959 290.943 238.265C290.17 238.919 288.963 239.741 287.362 240.441C284.174 241.851 279.42 242.822 274.226 242.188C269.032 241.528 264.575 239.506 261.516 237.809C259.981 236.954 258.773 236.184 257.953 235.622C257.54 235.348 257.23 235.114 257.018 234.959C256.808 234.8 256.701 234.71 256.709 234.694C256.725 234.66 257.193 234.938 258.036 235.443C258.879 235.948 260.105 236.664 261.649 237.47C264.724 239.073 269.151 241.015 274.273 241.664C279.392 242.29 284.087 241.391 287.254 240.09C290.458 238.802 292.018 237.043 292.076 237.153Z" fill="#17282F"/>
<path d="M147.057 210.329C147.057 210.329 151.751 199.936 157.454 199.246C157.454 199.246 167.964 206.327 169.576 205.866C171.189 205.405 168.847 201.849 171.057 199.83C173.266 197.811 175.497 200.073 176.399 201.634C177.301 203.196 183.637 220.166 189.003 224.493C194.369 228.819 202.797 237.489 201.437 241.385C200.419 244.3 200.689 243.231 195.932 244.284C191.175 245.337 175.443 236.441 170.366 230.383C162.408 220.887 152.288 210.838 147.057 210.329" fill="#F2575D"/>
<path d="M199.525 245.423C200.612 244.785 200.036 242.797 198.843 243.068C198.584 243.127 198.305 243.166 198.006 243.178C194.792 243.301 190.65 241.848 185.507 239.232C180.364 236.615 178.5 234.887 171.99 229.111C165.479 223.336 160.075 213.341 154.948 211.61C150.724 210.183 148.106 210.238 147.313 210.301C147.147 210.315 146.993 210.367 146.851 210.468C143.287 212.986 136.706 222.96 140.124 225.597C142.489 227.422 150.688 228.61 156.435 230.947C162.182 233.284 174.926 239.85 182.133 242.786C189.34 245.722 196.675 247.029 199.443 245.469L199.525 245.423" fill="white"/>
<path d="M199.525 245.423C199.529 245.434 199.42 245.505 199.193 245.612C198.973 245.74 198.622 245.856 198.156 245.983C197.22 246.21 195.805 246.291 194.003 246.119C190.401 245.783 185.244 244.456 179.217 241.738C173.172 239.102 166.121 235.521 158.174 231.948C154.221 230.103 149.822 229.123 145.304 227.878C144.175 227.56 143.035 227.235 141.901 226.796C141.338 226.561 140.768 226.336 140.228 225.965C139.675 225.633 139.175 224.976 139.042 224.219C138.755 222.699 139.219 221.255 139.708 219.949C140.224 218.631 140.889 217.402 141.616 216.225C142.349 215.05 143.147 213.945 144.003 212.915C144.877 211.894 145.749 210.928 146.854 210.17C147.215 209.984 147.533 210.041 147.827 210.016C148.13 210.011 148.433 210.019 148.733 210.037C149.334 210.07 149.93 210.139 150.52 210.231C151.7 210.414 152.854 210.697 153.984 211.037C155.111 211.335 156.247 211.856 157.222 212.576C158.215 213.281 159.082 214.153 159.932 215.014C161.601 216.778 163.089 218.662 164.554 220.475C167.46 224.133 170.297 227.508 173.391 230.082C176.412 232.759 179.202 235.311 182.037 237.08C187.754 240.486 192.741 242.566 196.313 243.002C197.203 243.107 198.006 243.128 198.683 243.01C199.02 242.945 199.398 242.96 199.649 243.188C199.901 243.401 200.043 243.702 200.102 243.98C200.226 244.554 200.015 245 199.835 245.186C199.746 245.289 199.666 245.346 199.609 245.376L199.525 245.423C199.513 245.403 199.641 245.356 199.803 245.149C199.965 244.958 200.144 244.535 200.015 244.007C199.953 243.753 199.816 243.48 199.586 243.297C199.349 243.101 199.045 243.096 198.704 243.165C198.007 243.303 197.199 243.296 196.297 243.206C194.49 243.023 192.321 242.416 189.898 241.428C187.48 240.42 184.761 239.16 181.888 237.409C179.011 235.64 176.196 233.091 173.167 230.429C171.643 229.119 170.088 227.668 168.629 226.024C167.155 224.394 165.719 222.623 164.254 220.809C162.785 219 161.297 217.125 159.646 215.388C158.808 214.543 157.954 213.687 156.995 213.01C156.038 212.314 155.013 211.84 153.875 211.536C152.759 211.203 151.62 210.925 150.461 210.746C149.883 210.656 149.299 210.59 148.712 210.558C148.42 210.541 148.126 210.534 147.833 210.539C147.539 210.556 147.232 210.531 147.041 210.646C146.076 211.311 145.161 212.293 144.324 213.283C143.484 214.293 142.698 215.381 141.979 216.535C141.264 217.69 140.613 218.895 140.116 220.168C139.635 221.421 139.225 222.82 139.474 224.088C139.707 225.4 140.984 225.844 142.042 226.303C143.148 226.733 144.282 227.059 145.406 227.377C149.902 228.624 154.337 229.622 158.319 231.494C166.277 235.101 173.305 238.713 179.329 241.389C185.324 244.145 190.441 245.518 194.018 245.915C195.807 246.117 197.21 246.069 198.14 245.879C198.602 245.77 198.953 245.672 199.176 245.561C199.406 245.472 199.525 245.423 199.525 245.423" fill="#17282F"/>
<path d="M182.71 215.35C182.722 215.504 181.608 215.704 180.337 216.292C179.059 216.866 178.123 217.599 178.043 217.476C177.965 217.375 178.825 216.409 180.174 215.801C181.519 215.182 182.709 215.214 182.71 215.35Z" fill="white"/>
<path d="M184.969 219.003C185.03 219.13 184.073 219.902 182.83 220.728C181.588 221.555 180.532 222.121 180.471 221.995C180.41 221.869 181.367 221.097 182.609 220.27C183.852 219.444 184.908 218.876 184.969 219.003" fill="white"/>
<path d="M187.513 222.638C187.592 222.753 186.889 223.571 186.022 224.571C185.154 225.568 184.444 226.378 184.348 226.282C184.255 226.191 184.824 225.212 185.709 224.195C186.591 223.176 187.437 222.527 187.513 222.638" fill="white"/>
<path d="M152.708 222.634L146.825 220.647C146.37 220.494 146.106 219.935 146.238 219.4L146.29 219.183C146.422 218.648 146.898 218.339 147.354 218.493L153.237 220.48C153.692 220.633 153.956 221.192 153.824 221.727L153.771 221.944C153.639 222.479 153.163 222.787 152.708 222.634Z" fill="#F2575D"/>
<path d="M156.196 200.069C156.077 199.214 155.79 198.393 155.365 197.685C155.173 197.366 154.926 197.052 154.599 196.984C154.245 196.911 153.903 197.145 153.599 197.369C153.324 197.571 153.049 197.774 152.776 197.976C152.605 198.102 152.417 198.259 152.398 198.494C152.383 198.667 152.467 198.83 152.549 198.977C152.948 199.697 153.347 200.416 153.746 201.137" fill="#F2575D"/>
<path d="M157.454 199.246C157.475 199.333 156.685 199.598 155.519 200.296C154.351 200.981 152.829 202.158 151.378 203.767C149.919 205.369 148.834 207.087 148.139 208.387C147.445 209.692 147.113 210.571 147.043 210.537C146.998 210.519 147.228 209.58 147.865 208.199C148.503 206.825 149.575 205.024 151.071 203.384C152.557 201.736 154.152 200.574 155.384 199.96C156.615 199.331 157.445 199.193 157.454 199.246" fill="#17282F"/>
<path d="M154.276 200.857C154.15 200.889 153.937 200.208 153.453 199.569C152.98 198.917 152.435 198.575 152.48 198.433C152.505 198.297 153.227 198.457 153.791 199.223C154.36 199.985 154.395 200.846 154.276 200.857" fill="#17282F"/>
<path d="M168.171 205.557C168.17 205.557 168.169 205.556 168.168 205.556C168.168 205.556 168.169 205.556 168.171 205.557ZM170.021 205.544C170.038 205.504 170.052 205.462 170.064 205.415C170.067 205.404 170.073 205.398 170.081 205.398C170.084 205.398 170.088 205.399 170.092 205.401C170.072 205.452 170.049 205.499 170.021 205.544Z" fill="#8F9192"/>
<path d="M177.872 217.25C174.419 214.267 170.882 209.451 168.168 205.556C168.169 205.556 168.17 205.557 168.171 205.557C168.212 205.581 168.84 205.934 169.369 205.934C169.646 205.934 169.896 205.837 170.021 205.544C170.049 205.499 170.072 205.452 170.092 205.401C170.497 205.565 174.878 213.928 177.872 217.25" fill="#CC4341"/>
<path d="M189.077 226.808C189.088 226.835 188.878 226.995 188.45 227.156C188.024 227.308 187.367 227.442 186.562 227.341C185.761 227.24 184.817 226.919 183.9 226.273C182.981 225.637 182.101 224.716 181.3 223.651C180.898 223.119 180.528 222.58 180.182 222.052C179.86 221.512 179.546 220.99 179.243 220.486C178.674 219.518 178.148 218.623 177.674 217.817C176.792 216.289 176.271 215.324 176.322 215.282C176.373 215.24 176.984 216.129 177.93 217.597C178.425 218.38 178.976 219.25 179.572 220.192C179.88 220.689 180.199 221.203 180.529 221.734C180.876 222.254 181.242 222.782 181.635 223.301C182.418 224.342 183.253 225.233 184.114 225.859C184.969 226.491 185.851 226.831 186.603 226.972C188.133 227.25 189.059 226.709 189.077 226.808" fill="#17282F"/>
<path d="M181.092 215.737C181.066 215.742 180.98 215.392 180.903 214.74C180.823 214.089 180.757 213.134 180.816 211.955C180.87 210.777 181.056 209.375 181.466 207.883C181.667 207.136 181.935 206.373 182.259 205.609C182.424 205.222 182.588 204.858 182.806 204.46C182.923 204.268 183.059 204.074 183.257 203.923C183.45 203.769 183.74 203.696 183.987 203.801C184.515 204.043 184.637 204.627 184.717 205.061C184.775 205.536 184.786 205.947 184.788 206.382C184.792 207.239 184.733 208.066 184.608 208.837C184.367 210.385 183.924 211.716 183.447 212.758C182.973 213.804 182.471 214.565 182.099 215.056C181.726 215.549 181.484 215.779 181.466 215.759C181.393 215.691 182.302 214.668 183.164 212.589C183.593 211.554 183.99 210.253 184.2 208.755C184.31 208.008 184.358 207.211 184.349 206.388C184.346 205.985 184.326 205.539 184.279 205.156C184.223 204.776 184.069 204.375 183.847 204.3C183.621 204.195 183.363 204.432 183.171 204.76C182.989 205.09 182.806 205.48 182.651 205.843C182.332 206.578 182.064 207.315 181.857 208.035C181.438 209.476 181.225 210.835 181.132 211.984C180.946 214.288 181.179 215.727 181.092 215.737" fill="white"/>
<path d="M181.138 215.525C181.116 215.501 181.305 215.199 181.674 214.678C182.042 214.158 182.587 213.414 183.308 212.544C184.031 211.678 184.936 210.677 186.083 209.77C186.658 209.319 187.293 208.897 187.988 208.549C188.328 208.373 188.707 208.196 189.131 208.148C189.541 208.083 190.088 208.244 190.361 208.748C190.629 209.226 190.625 209.817 190.487 210.289C190.347 210.768 190.111 211.151 189.878 211.503C189.401 212.21 188.835 212.779 188.258 213.234C187.092 214.145 185.89 214.613 184.886 214.908C183.877 215.202 183.048 215.336 182.477 215.425C181.905 215.509 181.586 215.535 181.581 215.5C181.564 215.404 182.835 215.184 184.804 214.549C185.779 214.213 186.93 213.722 188.024 212.833C188.568 212.39 189.094 211.846 189.533 211.184C189.975 210.551 190.348 209.694 189.987 209.039C189.824 208.743 189.509 208.626 189.171 208.67C188.83 208.706 188.494 208.852 188.159 209.024C187.49 209.351 186.874 209.749 186.311 210.175C185.187 211.033 184.273 211.985 183.53 212.809C182.055 214.476 181.193 215.583 181.138 215.525" fill="white"/>
<path d="M310.256 102.009H300.334C300.097 102.009 299.904 101.783 299.904 101.503C299.904 101.225 300.097 100.998 300.334 100.998H309.895L310.926 94.1562H299.399C299.162 94.1562 298.969 93.9299 298.969 93.651C298.969 93.3722 299.162 93.1459 299.399 93.1459H311.44C311.567 93.1459 311.688 93.2115 311.769 93.3267C311.852 93.4409 311.886 93.5914 311.864 93.7389L310.679 101.592C310.643 101.834 310.464 102.009 310.256 102.009Z" fill="white"/>
<path d="M309.927 104.756H309.926L300.476 104.718C300.26 104.717 300.079 104.528 300.051 104.277L298.716 92.0658H296.059C295.822 92.0658 295.629 91.8405 295.629 91.5606C295.629 91.2818 295.822 91.0554 296.059 91.0554H299.094C299.311 91.0554 299.493 91.2444 299.522 91.496L300.857 103.709L309.929 103.745C310.167 103.746 310.359 103.974 310.358 104.252C310.357 104.531 310.164 104.756 309.927 104.756" fill="white"/>
<path d="M303.398 102.009C303.172 102.009 302.982 101.802 302.968 101.536L302.565 93.936C302.549 93.6571 302.73 93.4176 302.968 93.4005C303.225 93.3944 303.408 93.5955 303.424 93.8733L303.828 101.472C303.842 101.751 303.662 101.99 303.425 102.008L303.398 102.009" fill="white"/>
<path d="M50.031 151.757C48.0127 151.234 46.381 150.554 45.135 149.719L47.8947 141.936C49.0219 142.737 50.3574 143.365 51.9012 143.816C53.4443 144.27 54.9425 144.496 56.3969 144.496C57.5541 144.496 58.3627 144.383 58.8233 144.157C59.2831 143.93 59.513 143.591 59.513 143.137C59.513 142.686 59.2237 142.373 58.6451 142.198C58.0665 142.024 57.1236 141.85 55.8182 141.675C53.83 141.397 52.138 141.04 50.7431 140.604C49.3482 140.169 48.1238 139.325 47.0715 138.072C46.0176 136.818 45.4906 135.024 45.4906 132.692C45.4906 130.846 45.9651 129.192 46.9157 127.729C47.8646 126.267 49.2819 125.101 51.1668 124.23C53.0508 123.36 55.3128 122.925 57.9545 122.925C59.7946 122.925 61.5977 123.125 63.3637 123.525C65.1289 123.926 66.6349 124.509 67.8817 125.275L65.122 133.057C62.9857 131.665 60.6402 130.968 58.0888 130.968C55.8923 130.968 54.7944 131.42 54.7944 132.326C54.7944 132.779 55.0906 133.101 55.6848 133.292C56.278 133.484 57.2131 133.666 58.4892 133.84C60.4774 134.12 62.1617 134.485 63.5419 134.937C64.9214 135.39 66.1381 136.243 67.192 137.497C68.2451 138.75 68.7721 140.545 68.7721 142.877C68.7721 144.652 68.2976 146.271 67.3479 147.734C66.3972 149.197 64.973 150.363 63.0744 151.234C61.1749 152.103 58.8741 152.54 56.1738 152.54C54.097 152.54 52.0493 152.278 50.031 151.757" fill="white"/>
<path d="M95.9482 126.11C97.7728 128.234 98.6855 131.438 98.6855 135.721V152.017H88.6248V137.758C88.6248 134.485 87.6303 132.848 85.643 132.848C84.515 132.848 83.6023 133.31 82.9048 134.232C82.2074 135.156 81.8595 136.608 81.8595 138.594V152.017H71.7988V113.262H81.8595V125.744C83.7289 123.864 86.0132 122.924 88.7144 122.924C91.7109 122.924 94.1227 123.986 95.9482 126.11" fill="white"/>
<path d="M119.206 141.858C119.948 140.865 120.32 139.482 120.32 137.706C120.32 135.93 119.948 134.555 119.206 133.58C118.464 132.605 117.515 132.117 116.357 132.117C115.2 132.117 114.25 132.605 113.509 133.58C112.767 134.555 112.395 135.93 112.395 137.706C112.395 139.482 112.767 140.865 113.509 141.858C114.25 142.85 115.2 143.347 116.357 143.347C117.515 143.347 118.464 142.85 119.206 141.858ZM109.079 150.633C106.928 149.362 105.243 147.603 104.027 145.358C102.81 143.112 102.202 140.561 102.202 137.706C102.202 134.851 102.81 132.299 104.027 130.054C105.243 127.808 106.928 126.058 109.079 124.804C111.23 123.551 113.657 122.925 116.357 122.925C119.088 122.925 121.528 123.551 123.68 124.804C125.831 126.058 127.509 127.808 128.711 130.054C129.913 132.299 130.513 134.851 130.513 137.706C130.513 140.561 129.913 143.112 128.711 145.358C127.509 147.603 125.831 149.362 123.68 150.633C121.528 151.905 119.088 152.54 116.357 152.54C113.657 152.54 111.23 151.905 109.079 150.633Z" fill="#398AB9"/>
<path d="M150.367 141.884C151.108 140.909 151.48 139.534 151.48 137.758C151.48 135.982 151.108 134.598 150.367 133.606C149.624 132.612 148.676 132.116 147.517 132.116C146.361 132.116 145.41 132.612 144.669 133.606C143.927 134.598 143.556 135.982 143.556 137.758C143.556 139.534 143.927 140.909 144.669 141.884C145.41 142.859 146.361 143.346 147.517 143.346C148.676 143.346 149.624 142.859 150.367 141.884ZM155.82 124.726C157.615 125.927 159.039 127.66 160.093 129.923C161.146 132.187 161.673 134.799 161.673 137.758C161.673 140.717 161.146 143.321 160.093 145.566C159.039 147.812 157.615 149.536 155.82 150.737C154.024 151.938 152.059 152.539 149.921 152.539C147.221 152.539 145.159 151.722 143.734 150.084V162.15H133.674V123.447H143.245V125.797C144.698 123.882 146.924 122.924 149.921 122.924C152.059 122.924 154.024 123.524 155.82 124.726Z" fill="white"/>
<path d="M275.458 140.409L231.748 158.617C230.91 158.965 229.992 158.453 229.694 157.47C229.397 156.487 229.834 155.409 230.672 155.059L273.112 137.381L268.401 104.392L217.163 125.735C216.325 126.084 215.407 125.571 215.109 124.588C214.812 123.605 215.249 122.528 216.087 122.178L269.134 100.082C269.581 99.896 270.077 99.9505 270.486 100.233C270.899 100.516 271.18 100.997 271.258 101.548L276.505 138.319C276.636 139.223 276.193 140.104 275.458 140.409" fill="white"/>
<path d="M277.672 153.114L277.666 153.117L235.985 170.287C235.224 170.6 234.384 170.203 234.018 169.358L211.696 117.639L199.66 122.653C198.822 123.002 197.903 122.489 197.606 121.506C197.308 120.523 197.745 119.445 198.583 119.096L211.956 113.526C212.719 113.208 213.562 113.603 213.929 114.452L236.252 166.178L276.602 149.555C277.44 149.209 278.357 149.728 278.652 150.712C278.945 151.693 278.507 152.767 277.672 153.114" fill="white"/>
<path d="M244.413 172.843C242.391 173.686 241.332 176.302 242.05 178.674C242.768 181.046 244.994 182.29 247.016 181.447C249.038 180.606 250.101 177.992 249.383 175.62C248.665 173.247 246.434 172.002 244.413 172.843V172.843ZM248.092 185.005C244.401 186.542 240.329 184.268 239.018 179.937C237.707 175.601 239.645 170.825 243.336 169.287C247.031 167.747 251.102 170.021 252.414 174.357C253.725 178.688 251.787 183.466 248.092 185.005Z" fill="white"/>
<path d="M273.146 160.875C271.124 161.717 270.065 164.332 270.783 166.705C271.501 169.078 273.727 170.321 275.749 169.479C277.771 168.636 278.834 166.023 278.116 163.65C277.398 161.278 275.168 160.032 273.146 160.875ZM276.826 173.036C273.134 174.574 269.062 172.3 267.752 167.967C266.44 163.633 268.379 158.855 272.07 157.317C275.765 155.779 279.836 158.053 281.147 162.388C282.458 166.719 280.52 171.496 276.826 173.036Z" fill="white"/>
<path d="M245.245 152.995C244.448 153.327 243.563 152.878 243.227 151.958L231.319 119.217C230.969 118.26 231.35 117.151 232.166 116.74C233.015 116.253 233.928 116.781 234.276 117.735L246.186 150.475C246.535 151.432 246.155 152.542 245.338 152.952L245.245 152.995Z" fill="white"/>
<path d="M261.227 146.337L261.14 146.369C260.289 146.661 259.396 146.091 259.146 145.088L250.609 110.943C250.361 109.947 250.788 108.847 251.702 108.603C252.553 108.31 253.445 108.881 253.696 109.884L262.233 144.03C262.474 144.992 262.027 146.005 261.227 146.337" fill="white"/>
<path d="M224.181 142.916C223.349 143.263 222.437 142.758 222.133 141.786C221.826 140.806 222.256 139.724 223.09 139.365L271.744 118.473L271.759 118.467C272.591 118.12 273.504 118.623 273.808 119.596C274.114 120.575 273.685 121.658 272.85 122.017L224.196 142.91L224.181 142.916Z" fill="white"/>
<path d="M297.866 90.4098C297.866 92.3153 296.549 93.8601 294.926 93.8601C293.302 93.8601 291.985 92.3153 291.985 90.4098C291.985 88.5053 293.302 86.9605 294.926 86.9605C296.549 86.9605 297.866 88.5053 297.866 90.4098Z" fill="white"/>
<path d="M314.821 90.4098C314.821 92.3153 313.505 93.8601 311.881 93.8601C310.257 93.8601 308.941 92.3153 308.941 90.4098C308.941 88.5053 310.257 86.9605 311.881 86.9605C313.505 86.9605 314.821 88.5053 314.821 90.4098Z" fill="white"/>
<path d="M343.744 172.841H304.764V166.733H343.744V172.841Z" fill="#DADBD8"/>
<path d="M355.147 185.814H304.764V179.704H355.147V185.814Z" fill="#DADBD8"/>
<path d="M328.353 198.786H304.764V192.677H328.353V198.786Z" fill="#DADBD8"/>
<path d="M149.073 397.059H147.524V386.557C147.524 386.386 147.606 386.248 147.708 386.248H148.888C148.99 386.248 149.073 386.386 149.073 386.557V397.059ZM149.073 409.452C149.073 409.621 148.99 409.76 148.888 409.76H147.708C147.606 409.76 147.524 409.621 147.524 409.452V398.949H149.073V409.452V409.452ZM146.175 397.059H144.626V386.557C144.626 386.386 144.709 386.248 144.81 386.248H145.99C146.092 386.248 146.175 386.386 146.175 386.557V397.059V397.059ZM146.175 409.452C146.175 409.621 146.092 409.76 145.99 409.76H144.81C144.709 409.76 144.626 409.621 144.626 409.452V398.949H146.175V409.452V409.452ZM143.276 397.059H141.728V386.557C141.728 386.386 141.81 386.248 141.911 386.248H143.092C143.193 386.248 143.276 386.386 143.276 386.557V397.059V397.059ZM143.276 409.452C143.276 409.621 143.193 409.76 143.092 409.76H141.911C141.81 409.76 141.728 409.621 141.728 409.452V398.949H143.276V409.452V409.452ZM137.478 397.059H135.93V386.557C135.93 386.386 136.012 386.248 136.114 386.248H137.295C137.396 386.248 137.478 386.386 137.478 386.557V397.059V397.059ZM137.478 409.452C137.478 409.621 137.396 409.76 137.295 409.76H136.114C136.012 409.76 135.93 409.621 135.93 409.452V398.949H137.478V409.452V409.452ZM134.581 397.059H133.032V386.557C133.032 386.386 133.114 386.248 133.216 386.248H134.396C134.498 386.248 134.581 386.386 134.581 386.557V397.059V397.059ZM134.581 409.452C134.581 409.621 134.498 409.76 134.396 409.76H133.216C133.114 409.76 133.032 409.621 133.032 409.452V398.949H134.581V409.452V409.452ZM131.682 397.059H130.133V386.557C130.133 386.386 130.214 386.248 130.317 386.248H131.497C131.599 386.248 131.682 386.386 131.682 386.557V397.059V397.059ZM131.682 409.452C131.682 409.621 131.599 409.76 131.497 409.76H130.317C130.214 409.76 130.133 409.621 130.133 409.452V398.949H131.682V409.452V409.452ZM128.784 397.059H127.234V386.557C127.234 386.386 127.317 386.248 127.419 386.248H128.598C128.701 386.248 128.784 386.386 128.784 386.557V397.059V397.059ZM128.784 409.452C128.784 409.621 128.701 409.76 128.598 409.76H127.419C127.317 409.76 127.234 409.621 127.234 409.452V398.949H128.784V409.452V409.452ZM125.886 397.059H124.336V386.557C124.336 386.386 124.418 386.248 124.52 386.248H125.701C125.801 386.248 125.886 386.386 125.886 386.557V397.059V397.059ZM125.886 409.452C125.886 409.621 125.801 409.76 125.701 409.76H124.52C124.418 409.76 124.336 409.621 124.336 409.452V398.949H125.886V409.452V409.452ZM122.987 397.059H121.438V386.557C121.438 386.386 121.519 386.248 121.621 386.248H122.802C122.903 386.248 122.987 386.386 122.987 386.557V397.059V397.059ZM122.987 409.452C122.987 409.621 122.903 409.76 122.802 409.76H121.621C121.519 409.76 121.438 409.621 121.438 409.452V398.949H122.987V409.452V409.452ZM120.088 397.059H118.538V386.557C118.538 386.386 118.62 386.248 118.724 386.248H119.902C120.005 386.248 120.088 386.386 120.088 386.557V397.059V397.059ZM120.088 409.452C120.088 409.621 120.005 409.76 119.902 409.76H118.724C118.62 409.76 118.538 409.621 118.538 409.452V398.949H120.088V409.452V409.452ZM117.189 397.059H115.641V386.557C115.641 386.386 115.723 386.248 115.824 386.248H117.005C117.106 386.248 117.189 386.386 117.189 386.557V397.059V397.059ZM117.189 409.452C117.189 409.621 117.106 409.76 117.005 409.76H115.824C115.723 409.76 115.641 409.621 115.641 409.452V398.949H117.189V409.452V409.452ZM111.392 397.059H109.843V386.557C109.843 386.386 109.925 386.248 110.028 386.248H111.207C111.309 386.248 111.392 386.386 111.392 386.557V397.059V397.059ZM111.392 409.452C111.392 409.621 111.309 409.76 111.207 409.76H110.028C109.925 409.76 109.843 409.621 109.843 409.452V398.949H111.392V409.452V409.452ZM108.494 397.059H106.944V386.557C106.944 386.386 107.027 386.248 107.129 386.248H108.308C108.411 386.248 108.494 386.386 108.494 386.557V397.059V397.059ZM108.494 409.452C108.494 409.621 108.411 409.76 108.308 409.76H107.129C107.027 409.76 106.944 409.621 106.944 409.452V398.949H108.494V409.452V409.452ZM105.595 397.059H104.046V386.557C104.046 386.386 104.128 386.248 104.23 386.248H105.41C105.512 386.248 105.595 386.386 105.595 386.557V397.059V397.059ZM105.595 409.452C105.595 409.621 105.512 409.76 105.41 409.76H104.23C104.128 409.76 104.046 409.621 104.046 409.452V398.949H105.595V409.452V409.452ZM156.095 378.412C136.405 378.412 116.715 378.412 97.0239 378.412C95.5033 378.412 94.4881 379.399 94.7533 380.618C97.0747 391.249 99.3979 401.88 101.721 412.512C101.987 413.729 103.131 414.717 104.278 414.717C119.133 414.717 133.987 414.717 148.841 414.717C149.988 414.717 151.132 413.729 151.398 412.512C153.721 401.88 156.043 391.249 158.365 380.618C158.632 379.399 157.615 378.412 156.095 378.412" fill="#F2575D"/>
<path d="M163.214 380.331C163.214 380.876 162.867 381.318 162.441 381.318H93.0377C92.6124 381.318 92.2671 380.876 92.2671 380.331V376.708C92.2671 376.162 92.6124 375.72 93.0377 375.72H162.441C162.867 375.72 163.214 376.162 163.214 376.708V380.331Z" fill="#F2575D"/>
<path d="M161.814 381.306C161.814 381.436 146.677 381.541 128.008 381.541C109.333 381.541 94.1985 381.436 94.1985 381.306C94.1985 381.177 109.333 381.073 128.008 381.073C146.677 381.073 161.814 381.177 161.814 381.306Z" fill="#17282F"/>
<path d="M128.316 384.336C127.542 384.336 126.772 384.332 126.01 384.324C116.18 384.22 107.569 383.339 97.9526 381.414C103.572 381.489 114.921 381.54 128.008 381.54C141.411 381.54 152.994 381.487 158.462 381.408C148.912 383.643 138.209 384.336 128.316 384.336Z" fill="#CC4341"/>
<path d="M128.008 381.541C114.921 381.541 103.572 381.489 97.9527 381.414C97.7753 381.379 97.5988 381.342 97.4214 381.306H158.891C158.749 381.34 158.605 381.375 158.462 381.408C152.994 381.487 141.411 381.541 128.008 381.541" fill="#0F191D"/>
<path d="M128.885 380.129C127.985 380.576 126.946 380.083 126.565 379.027L116.05 349.895C115.668 348.839 116.089 347.62 116.989 347.174C117.889 346.726 118.927 347.219 119.308 348.275L129.823 377.407C130.205 378.463 129.784 379.682 128.885 380.129" fill="#17282F"/>
<path d="M129.402 378.194C129.402 379.002 128.844 379.656 128.156 379.656C127.468 379.656 126.91 379.002 126.91 378.194C126.91 377.386 127.468 376.731 128.156 376.731C128.844 376.731 129.402 377.386 129.402 378.194Z" fill="#33535F"/>
<path d="M212.039 350.896C212.071 350.95 212.515 350.626 213.123 350.416C213.729 350.199 214.253 350.182 214.254 350.116C214.26 350.06 213.711 349.977 213.07 350.205C212.428 350.428 212.008 350.853 212.039 350.896" fill="#F57F62"/>
<path d="M214.406 341.235C214.494 341.069 214.718 340.999 214.927 341.041L214.907 341.033L214.989 341.057L215.024 341.067C215.18 341.122 215.328 341.216 215.422 341.369C215.541 341.561 215.551 341.855 215.405 342.02C215.325 342.11 215.212 342.149 215.102 342.162C214.885 342.19 214.652 342.122 214.498 341.939C214.344 341.757 214.292 341.453 214.406 341.235" fill="white"/>
</svg>
