<svg xmlns="http://www.w3.org/2000/svg" width="60" height="54" viewBox="0 0 60 54" fill="none">
<path d="M4.10558 26.7613L19.2901 52L33.984 26.7613C39.7727 14.4822 31.7678 6.35371 26.6366 3.62582C21.1506 0.681304 14.8814 2.39894 12.4326 3.62582C-0.89063 9.93549 1.32991 21.6785 4.10558 26.7613Z" stroke="#C85C5C" stroke-width="3"/>
<path d="M20.5044 20.3516V29.333H18.4956V20.3516H20.5044ZM18.3628 17.9941C18.3628 17.6898 18.4624 17.438 18.6616 17.2388C18.8664 17.034 19.1486 16.9316 19.5083 16.9316C19.8625 16.9316 20.1419 17.034 20.3467 17.2388C20.5514 17.438 20.6538 17.6898 20.6538 17.9941C20.6538 18.293 20.5514 18.542 20.3467 18.7412C20.1419 18.9404 19.8625 19.04 19.5083 19.04C19.1486 19.04 18.8664 18.9404 18.6616 18.7412C18.4624 18.542 18.3628 18.293 18.3628 17.9941Z" fill="#FF5555"/>
<path d="M28.3333 20.0005C28.3333 26.1896 23.8979 31.0005 18.6667 31.0005C13.4354 31.0005 9 26.1896 9 20.0005C9 13.8114 13.4354 9.00049 18.6667 9.00049C23.8979 9.00049 28.3333 13.8114 28.3333 20.0005Z" stroke="#398AB9" stroke-width="2"/>
</svg>