<svg width="294" height="260" viewBox="0 0 294 260" fill="none" xmlns="http://www.w3.org/2000/svg">
<path d="M250.171 259.764H146.725C142.172 259.764 139.257 255.304 141.395 251.604L151.916 233.383C152.964 231.569 155.013 230.435 157.247 230.435H243.616C246.219 230.435 248.528 231.971 249.345 234.244L255.901 252.465C257.195 256.059 254.285 259.764 250.171 259.764" fill="#E7D8EA"/>
<path d="M173.096 228.319C173.096 233.394 168.983 237.507 163.908 237.507C158.834 237.507 154.72 233.394 154.72 228.319C154.72 223.244 158.834 219.131 163.908 219.131C168.983 219.131 173.096 223.244 173.096 228.319Z" fill="#6F3885"/>
<path d="M169.433 228.319C169.433 231.37 166.958 233.844 163.908 233.844C160.856 233.844 158.382 231.37 158.382 228.319C158.382 225.267 160.856 222.794 163.908 222.794C166.958 222.794 169.433 225.267 169.433 228.319Z" fill="#37213E"/>
<path d="M160.274 227.314L163.425 219.004C163.594 218.559 164.021 218.263 164.497 218.263H175.454C176.454 218.263 176.976 219.455 176.296 220.19L166.429 230.839C165.606 231.726 164.344 232.052 163.194 231.678L162.208 231.355C160.529 230.806 159.648 228.966 160.274 227.314" fill="#FCD8A0"/>
<path d="M166.024 228.319C166.024 229.487 165.075 230.435 163.907 230.435C162.738 230.435 161.792 229.487 161.792 228.319C161.792 227.15 162.738 226.202 163.907 226.202C165.075 226.202 166.024 227.15 166.024 228.319Z" fill="#6F3885"/>
<path d="M226.32 228.319C226.32 233.394 230.433 237.507 235.509 237.507C240.582 237.507 244.696 233.394 244.696 228.319C244.696 223.244 240.582 219.131 235.509 219.131C230.433 219.131 226.32 223.244 226.32 228.319Z" fill="#6F3885"/>
<path d="M229.983 228.319C229.983 231.37 232.456 233.844 235.51 233.844C238.56 233.844 241.034 231.37 241.034 228.319C241.034 225.267 238.56 222.794 235.51 222.794C232.456 222.794 229.983 225.267 229.983 228.319Z" fill="#37213E"/>
<path d="M239.141 227.314L235.991 219.004C235.821 218.559 235.396 218.263 234.919 218.263H223.96C222.96 218.263 222.44 219.455 223.12 220.19L232.987 230.839C233.809 231.726 235.071 232.052 236.221 231.678L237.208 231.355C238.887 230.806 239.768 228.966 239.141 227.314" fill="#FCD8A0"/>
<path d="M233.392 228.319C233.392 229.487 234.34 230.435 235.509 230.435C236.676 230.435 237.624 229.487 237.624 228.319C237.624 227.15 236.676 226.202 235.509 226.202C234.34 226.202 233.392 227.15 233.392 228.319Z" fill="#6F3885"/>
<path d="M139.874 142.949C139.346 142.949 138.845 142.643 138.624 142.128C135.509 134.92 130.321 123.169 129.39 121.7C127.998 120.688 117.512 116.952 108.013 113.869C107.452 113.688 107.072 113.165 107.072 112.576C107.072 111.984 107.452 111.463 108.013 111.28L124.89 105.812C125.145 105.731 125.413 105.723 125.669 105.792C127.284 106.232 141.53 110.179 144.594 113.028C147.029 115.288 154.208 130.26 155.622 133.239C155.945 133.919 155.656 134.729 154.977 135.052C154.294 135.373 153.485 135.087 153.162 134.407C149.976 127.695 144.326 116.495 142.741 115.021C140.845 113.257 131.236 110.155 125.342 108.528L112.825 112.584C121.542 115.476 130.558 118.708 131.524 119.997C132.654 121.504 139.718 137.799 141.124 141.048C141.421 141.739 141.104 142.54 140.413 142.837C140.237 142.915 140.054 142.949 139.874 142.949Z" fill="#F14A3B"/>
<path d="M136.185 136.056L151.55 126.515L270.037 132.312L272.754 139.741L136.185 136.056Z" fill="white"/>
<path d="M136.185 136.056L136.837 137.106L151.874 127.768L269.157 133.508L270.968 138.456L136.218 134.82L136.185 136.056L136.837 137.106L136.185 136.056L136.152 137.292L272.721 140.977C273.13 140.988 273.52 140.794 273.758 140.462C273.997 140.13 274.056 139.7 273.916 139.316L271.198 131.888C271.028 131.421 270.593 131.102 270.097 131.077L151.61 125.28C151.358 125.266 151.113 125.33 150.898 125.464L135.533 135.005C135.069 135.293 134.849 135.853 134.992 136.378C135.134 136.905 135.606 137.277 136.152 137.292L136.185 136.056" fill="#F14A3B"/>
<path d="M135.064 136.298L152.995 195.437C153.532 197.209 155.192 198.401 157.043 198.344L256.227 195.276C258.069 195.218 259.649 193.936 260.083 192.144L272.755 139.741L135.064 136.298Z" fill="#F34B52"/>
<path d="M161.733 161.034C168.143 174.369 182.319 177.057 195.816 176.388C224.793 174.952 250.113 163.637 267.083 139.598L161.575 136.961C160.016 136.938 159.249 147.06 159.172 148.373C158.916 152.745 159.849 157.114 161.733 161.034Z" fill="#F4716C"/>
<path d="M255.985 228.06C254.774 223.216 252.28 218.369 250.473 215.917C249.536 214.645 248 213.185 244.398 213.185H162.268C160.974 213.185 158.658 212.972 157.677 211.534C156.758 210.188 157.285 208.06 157.888 206.513C160.309 200.308 162.47 196.38 162.492 196.342L159.282 196.61C159.192 196.776 157.844 199.134 155.35 205.524C154.126 208.662 154.153 211.201 155.429 213.07C156.698 214.926 159.064 215.908 162.268 215.908H166.668V217.75C166.668 218.893 167.593 219.82 168.737 219.82H170.31C171.453 219.82 172.38 218.893 172.38 217.75V215.908H226.685V217.75C226.685 218.893 227.612 219.82 228.754 219.82H230.328C231.47 219.82 232.397 218.893 232.397 217.75V215.908H244.398C246.877 215.908 247.701 216.745 248.28 217.532C249.985 219.846 252.273 224.433 253.344 228.72C253.585 229.682 253.518 230.418 253.148 230.902C252.405 231.877 250.526 231.994 249.968 232.006C230.937 232.433 189.893 232.2 167.842 232.073C161.288 232.033 156.322 232.006 153.957 232.006C150.614 232.006 148.125 231.049 146.95 229.312C145.818 227.638 145.85 225.182 147.042 222.208C149.669 215.666 157.385 196.184 157.385 196.184L154.854 195.181C154.854 195.181 147.141 214.656 144.517 221.196C142.565 226.06 143.537 229.124 144.696 230.836C146.393 233.346 149.682 234.729 153.957 234.729C155.509 234.729 158.197 234.741 161.701 234.76V236.541C161.701 237.685 162.626 238.612 163.77 238.612H165.342C166.485 238.612 167.413 237.685 167.413 236.541V235.205C167.572 235.044 167.658 234.957 167.818 234.794C180.385 234.866 199.114 234.974 216.438 234.974C221.141 234.974 225.736 234.966 230.078 234.946V236.541C230.078 237.685 231.006 238.612 232.149 238.612H233.722C234.864 238.612 235.79 237.685 235.79 236.541V234.916C241.23 234.876 246.1 234.816 250.029 234.729C251.406 234.697 253.926 234.373 255.313 232.553C256.212 231.377 256.437 229.866 255.985 228.06" fill="#F14A3B"/>
<path d="M268.785 138.634L256.492 189.329C256.154 190.725 254.914 191.733 253.478 191.776L207.164 193.208C210.756 189.329 214.322 185.424 217.856 181.489C218.116 181.2 218.2 180.838 218.037 180.67C217.869 180.496 217.5 180.593 217.213 180.89C213.4 184.826 209.62 188.794 205.872 192.79L205.865 192.798C205.729 192.945 205.64 193.102 205.573 193.257L164.686 194.522C168.501 190.406 172.288 186.262 176.041 182.089C176.314 181.785 176.408 181.414 176.246 181.245C176.078 181.069 175.7 181.18 175.398 181.489C171.409 185.616 167.453 189.773 163.528 193.958L163.52 193.968C163.34 194.16 163.225 194.37 163.16 194.57L159.464 194.684C158.041 194.738 156.72 193.794 156.3 192.412L148.138 165.502C150.248 163.214 152.328 160.901 154.376 158.556C154.524 158.385 154.516 158.124 154.35 157.96C154.178 157.789 153.902 157.788 153.733 157.957C151.704 159.996 149.708 162.068 147.732 164.156L138.964 135.25L137.661 135.645L154.997 192.809C155.581 194.732 157.364 196.046 159.365 196.046L159.508 196.045L253.52 193.138C255.568 193.074 257.334 191.64 257.816 189.649L270.109 138.956L268.785 138.634" fill="white"/>
<path d="M155.453 157.425C155.82 157.197 156.111 156.896 156.408 156.601C156.681 156.284 156.961 155.975 157.163 155.591C157.241 155.44 157.24 155.252 157.143 155.096C156.995 154.864 156.689 154.791 156.457 154.933C156.091 155.163 155.8 155.464 155.504 155.757C155.231 156.075 154.951 156.385 154.748 156.768C154.669 156.919 154.671 157.108 154.769 157.264C154.916 157.496 155.223 157.569 155.453 157.425" fill="white"/>
<path d="M157.98 154.714C158.14 154.708 158.223 154.63 158.312 154.558C158.377 154.465 158.451 154.376 158.445 154.216V154.202C158.425 153.833 158.109 153.545 157.74 153.558C157.58 153.565 157.497 153.644 157.408 153.714C157.343 153.81 157.271 153.897 157.275 154.057L157.276 154.074C157.296 154.442 157.612 154.729 157.98 154.714" fill="white"/>
<path d="M169.314 142.536C172.078 139.723 174.812 136.879 177.513 134.005L177.517 134.001C177.745 133.756 177.726 133.367 177.476 133.136C177.225 132.904 176.837 132.916 176.609 133.161C173.93 136.057 171.285 138.981 168.672 141.937C168.52 142.108 168.529 142.372 168.697 142.536C168.87 142.707 169.146 142.707 169.314 142.536Z" fill="white"/>
<path d="M167.888 144.129C168.048 144.122 168.13 144.044 168.22 143.972C168.285 143.877 168.357 143.789 168.353 143.629L168.352 143.613C168.332 143.245 168.016 142.957 167.648 142.973C167.488 142.978 167.405 143.057 167.316 143.129C167.249 143.222 167.177 143.312 167.182 143.472V143.484C167.202 143.854 167.517 144.142 167.888 144.129" fill="white"/>
<path d="M166.383 145.744C166.543 145.737 166.626 145.658 166.715 145.586C166.78 145.492 166.852 145.404 166.848 145.244L166.847 145.226C166.827 144.858 166.511 144.572 166.143 144.586C165.983 144.592 165.9 144.67 165.811 144.744C165.744 144.837 165.672 144.925 165.678 145.086V145.098C165.698 145.469 166.012 145.756 166.383 145.744" fill="white"/>
<path d="M164.877 147.357C165.037 147.352 165.12 147.272 165.209 147.2C165.274 147.106 165.346 147.018 165.342 146.858V146.841C165.321 146.473 165.006 146.186 164.637 146.2C164.477 146.206 164.394 146.285 164.305 146.358C164.238 146.452 164.166 146.538 164.172 146.7L164.173 146.713C164.192 147.082 164.508 147.37 164.877 147.357" fill="white"/>
<path d="M159.712 152.897C160.424 152.3 161.057 151.63 161.697 150.968C162.315 150.281 162.937 149.602 163.483 148.852C163.611 148.677 163.605 148.43 163.457 148.257C163.285 148.053 162.981 148.025 162.779 148.194C162.067 148.792 161.433 149.461 160.793 150.124C160.176 150.809 159.553 151.488 159.007 152.24C158.88 152.413 158.885 152.658 159.032 152.833C159.205 153.037 159.509 153.066 159.712 152.897" fill="white"/>
<path d="M177.105 180.078C177.213 180.352 177.605 180.332 177.981 180.033C178.58 179.556 179.1 179.008 179.628 178.465C180.133 177.901 180.644 177.342 181.077 176.712C181.246 176.465 181.321 176.194 181.248 176.01C181.14 175.737 180.748 175.756 180.372 176.054C179.773 176.532 179.253 177.08 178.725 177.622C178.22 178.186 177.709 178.745 177.276 179.374C177.105 179.624 177.032 179.894 177.105 180.078Z" fill="white"/>
<path d="M182.556 175.126C182.78 175.052 182.925 174.906 183.077 174.766C183.205 174.605 183.343 174.45 183.399 174.221L183.404 174.202C183.527 173.681 183.208 173.396 182.695 173.565C182.471 173.638 182.325 173.784 182.173 173.924C182.044 174.086 181.909 174.241 181.852 174.469L181.845 174.492C181.725 175.012 182.043 175.296 182.556 175.126" fill="white"/>
<path d="M203.088 153.084C208.033 147.932 212.947 142.749 217.828 137.537L217.835 137.532C218.248 137.085 218.38 136.536 218.128 136.306C217.877 136.074 217.339 136.249 216.924 136.694C212.065 141.928 207.239 147.192 202.445 152.484C202.168 152.792 202.073 153.166 202.237 153.334C202.408 153.508 202.788 153.396 203.088 153.084" fill="white"/>
<path d="M200.48 155.944C200.703 155.869 200.848 155.724 201 155.585C201.129 155.423 201.264 155.267 201.323 155.039L201.328 155.016C201.45 154.496 201.131 154.212 200.618 154.381C200.395 154.456 200.25 154.601 200.096 154.741C199.968 154.903 199.832 155.059 199.775 155.287L199.769 155.305C199.648 155.827 199.966 156.112 200.48 155.944" fill="white"/>
<path d="M197.755 158.866C197.977 158.793 198.123 158.646 198.275 158.506C198.404 158.345 198.539 158.19 198.597 157.962L198.603 157.938C198.724 157.418 198.405 157.136 197.892 157.305C197.669 157.378 197.524 157.525 197.371 157.664C197.243 157.825 197.107 157.98 197.049 158.208L197.044 158.228C196.923 158.749 197.24 159.034 197.755 158.866" fill="white"/>
<path d="M195.029 161.789C195.252 161.715 195.398 161.569 195.549 161.429C195.678 161.268 195.814 161.112 195.872 160.885L195.877 160.861C195.998 160.341 195.68 160.057 195.166 160.228C194.944 160.301 194.798 160.447 194.646 160.588C194.517 160.749 194.381 160.904 194.324 161.132L194.318 161.151C194.197 161.672 194.514 161.959 195.029 161.789Z" fill="white"/>
<path d="M185.676 171.818C186.899 170.676 188.041 169.46 189.191 168.25C190.317 167.018 191.451 165.792 192.507 164.494C192.751 164.194 192.843 163.844 192.711 163.653C192.555 163.429 192.148 163.513 191.801 163.837C190.58 164.98 189.437 166.197 188.287 167.406C187.16 168.638 186.027 169.864 184.972 171.161C184.728 171.462 184.635 171.812 184.767 172.002C184.923 172.225 185.329 172.144 185.676 171.818Z" fill="white"/>
<path d="M219.708 179.526C220.284 179.076 220.781 178.552 221.286 178.033C221.766 177.494 222.254 176.961 222.665 176.356C222.825 176.118 222.892 175.856 222.816 175.674C222.704 175.405 222.32 175.416 221.96 175.698C221.384 176.149 220.886 176.673 220.381 177.192C219.901 177.73 219.413 178.264 219.004 178.869C218.842 179.108 218.776 179.369 218.85 179.55C218.964 179.82 219.348 179.81 219.708 179.526Z" fill="white"/>
<path d="M224.077 174.841C224.293 174.774 224.432 174.636 224.579 174.502C224.701 174.348 224.831 174.2 224.881 173.978L224.885 173.96C224.993 173.453 224.676 173.168 224.176 173.32C223.96 173.388 223.82 173.526 223.675 173.66C223.552 173.814 223.424 173.964 223.372 174.184L223.367 174.206C223.26 174.712 223.579 174.996 224.077 174.841Z" fill="white"/>
<path d="M243.678 153.794C248.405 148.877 253.1 143.932 257.761 138.956L257.766 138.949C258.162 138.524 258.278 137.99 258.026 137.76C257.776 137.529 257.252 137.688 256.856 138.113C252.218 143.11 247.612 148.138 243.037 153.196C242.773 153.488 242.689 153.852 242.853 154.02C243.024 154.193 243.394 154.092 243.678 153.794" fill="white"/>
<path d="M241.191 156.527C241.408 156.46 241.548 156.32 241.693 156.188C241.816 156.033 241.945 155.884 241.996 155.663L242.001 155.64C242.108 155.136 241.789 154.852 241.291 155.005C241.075 155.073 240.935 155.212 240.788 155.344C240.667 155.499 240.537 155.647 240.487 155.868L240.483 155.887C240.375 156.393 240.691 156.68 241.191 156.527" fill="white"/>
<path d="M238.589 159.316C238.805 159.251 238.945 159.111 239.091 158.979C239.213 158.823 239.343 158.675 239.395 158.453L239.399 158.431C239.507 157.925 239.187 157.643 238.688 157.797C238.472 157.864 238.333 158.003 238.187 158.136C238.065 158.291 237.936 158.439 237.884 158.659L237.88 158.677C237.772 159.184 238.089 159.471 238.589 159.316" fill="white"/>
<path d="M235.986 162.108C236.204 162.04 236.342 161.903 236.489 161.768C236.612 161.613 236.74 161.465 236.79 161.245L236.796 161.221C236.902 160.717 236.585 160.432 236.086 160.588C235.87 160.653 235.73 160.793 235.584 160.925C235.461 161.081 235.333 161.229 235.282 161.451L235.278 161.469C235.17 161.976 235.486 162.26 235.986 162.108" fill="white"/>
<path d="M227.057 171.684C228.226 170.596 229.318 169.434 230.417 168.28C231.492 167.104 232.573 165.933 233.577 164.692C233.81 164.404 233.894 164.062 233.76 163.874C233.602 163.653 233.205 163.724 232.873 164.033C231.704 165.122 230.612 166.282 229.512 167.437C228.438 168.613 227.356 169.784 226.352 171.028C226.12 171.313 226.036 171.653 226.17 171.842C226.328 172.064 226.725 171.993 227.057 171.684" fill="white"/>
<path d="M171.08 232.09L175.91 214.998H227.118L229.909 232.09H171.08Z" fill="#F4716C"/>
<path d="M168.564 248.969C168.564 254.93 163.731 259.764 157.768 259.764C151.805 259.764 146.972 254.93 146.972 248.969C146.972 243.006 151.805 238.172 157.768 238.172C163.731 238.172 168.564 243.006 168.564 248.969Z" fill="#6F3885"/>
<path d="M164.259 248.969C164.259 252.553 161.353 255.46 157.768 255.46C154.183 255.46 151.276 252.553 151.276 248.969C151.276 245.383 154.183 242.477 157.768 242.477C161.353 242.477 164.259 245.383 164.259 248.969Z" fill="#37213E"/>
<path d="M153.5 247.788L157.201 238.024C157.4 237.5 157.901 237.154 158.46 237.154H171.336C172.51 237.154 173.121 238.554 172.322 239.417L160.73 251.928C159.764 252.972 158.281 253.356 156.93 252.914L155.77 252.534C153.798 251.89 152.764 249.728 153.5 247.788" fill="#FCD8A0"/>
<path d="M160.255 248.969C160.255 250.341 159.141 251.455 157.768 251.455C156.395 251.455 155.281 250.341 155.281 248.969C155.281 247.595 156.395 246.481 157.768 246.481C159.141 246.481 160.255 247.595 160.255 248.969Z" fill="#6F3885"/>
<path d="M229.451 248.969C229.451 254.93 234.284 259.764 240.245 259.764C246.209 259.764 251.043 254.93 251.043 248.969C251.043 243.006 246.209 238.172 240.245 238.172C234.284 238.172 229.451 243.006 229.451 248.969Z" fill="#6F3885"/>
<path d="M233.754 248.969C233.754 252.553 236.661 255.46 240.245 255.46C243.832 255.46 246.737 252.553 246.737 248.969C246.737 245.383 243.832 242.477 240.245 242.477C236.661 242.477 233.754 245.383 233.754 248.969Z" fill="#37213E"/>
<path d="M244.513 247.788L240.812 238.024C240.614 237.5 240.113 237.154 239.553 237.154H226.678C225.504 237.154 224.892 238.554 225.69 239.417L237.285 251.928C238.249 252.972 239.733 253.356 241.084 252.914L242.242 252.534C244.216 251.89 245.25 249.728 244.513 247.788" fill="#FCD8A0"/>
<path d="M237.76 248.969C237.76 250.341 238.874 251.455 240.246 251.455C241.62 251.455 242.732 250.341 242.732 248.969C242.732 247.595 241.62 246.481 240.246 246.481C238.874 246.481 237.76 247.595 237.76 248.969Z" fill="#6F3885"/>
<path d="M293.053 134.924C293.053 148.417 282.117 159.353 268.624 159.353C255.133 159.353 244.197 148.417 244.197 134.924C244.197 121.433 255.133 110.497 268.624 110.497C282.117 110.497 293.053 121.433 293.053 134.924Z" fill="#FBD03E"/>
<path d="M273.16 121.913V143.463H277.254C278.06 143.463 278.404 144.036 278.404 145.376V146.028C278.404 147.367 278.06 147.94 277.254 147.94H262.405C261.601 147.94 261.257 147.367 261.257 146.028V145.376C261.257 144.036 261.601 143.463 262.405 143.463H267.496V126.276L262.29 127.041C261.294 127.041 261.065 124.899 261.065 123.827C261.065 123.253 261.409 122.869 262.061 122.756L271.59 120.995C272.204 120.995 273.16 121.453 273.16 121.913" fill="#6F3885"/>
<path d="M170.758 116.533V135.777L216.201 136.961V114.564L170.758 116.533Z" fill="#FAB63E"/>
<path d="M216.201 114.564V136.961L237.859 137.653V118.479L216.201 114.564Z" fill="#F68530"/>
<path d="M169.433 112.892L217.258 110.941V117.197L169.433 119.187V112.892Z" fill="#FBD03E"/>
<path d="M217.258 117.197L239.433 120.995V115.064L217.258 110.941V117.197Z" fill="#FAB63E"/>
<path d="M65.72 252.57C29.424 252.57 0 250.876 0 248.788C0 246.699 29.424 245.007 65.72 245.007C102.017 245.007 131.441 246.699 131.441 248.788C131.441 250.876 102.017 252.57 65.72 252.57Z" fill="#E7D8EA"/>
<path d="M97.4555 205.402C98.5168 215.966 107.395 231.423 110.842 240.043C111.857 242.583 116.664 241.163 116.12 238.483C114.269 229.354 113 210.864 112.153 201.432C111.158 190.328 96.4448 195.347 97.4555 205.402" fill="#F8A35E"/>
<path d="M110.974 240.004C110.974 240.004 109.948 242.904 111.698 246.818C111.381 246.96 111.62 248.262 112.192 248.538C112.865 248.864 117.736 248.783 118.725 248.011C118.942 247.643 118.693 247.138 118.693 247.138C118.693 247.138 119.912 247.599 123.377 246.946C126.842 246.291 128.7 245.287 130.046 244.434C130.454 244.175 130.173 243.252 129.713 243.4C129.713 243.4 129.416 240.995 127.404 241.126C123.281 241.392 120.326 239.714 118.217 238.439C117.173 237.81 116.121 237.283 115.476 237.248C113.814 237.159 111.66 238.138 110.974 240.004" fill="#EC1737"/>
<path d="M111.699 246.818C114.624 247.154 118.707 246.707 118.707 246.707C118.707 246.707 126.604 246.571 129.713 243.4C132.823 240.23 135.511 243.607 135.511 243.607L122.587 253.899L114.145 253.239L110.375 250.056C110.375 250.056 110.064 246.631 111.699 246.818" fill="#F799C3"/>
<path d="M110.353 240.234C110.353 240.234 111.485 242.207 113.81 241.715C116.134 241.223 116.37 239.795 115.844 237.311C115.317 234.824 107.912 236.466 110.353 240.234Z" fill="#F8A35E"/>
<path d="M62.8973 129.804C62.8973 129.804 78.0813 157.12 83.0986 168.284C88.1146 179.448 94.4613 207.019 94.4613 207.019C94.4613 207.019 106.948 209.644 113.489 203.787C113.489 203.787 111.393 174.696 107.831 161.634C104.267 148.57 90.728 116.502 90.728 116.502C85.2906 104.988 57.46 118.291 62.8973 129.804Z" fill="#053955"/>
<path d="M75.3198 151.172C75.4972 150.996 76.5331 146.191 79.6091 140.808C82.2865 136.124 88.7492 132.447 89.4585 133.019C90.6785 133.999 81.0358 141.16 79.1678 146.331C79.1678 146.331 89.9025 138.523 90.6492 139.552C91.3465 140.515 79.5425 146.956 75.3198 151.172" fill="#37213E"/>
<path d="M73.7187 62.4711C76.2254 74.0177 80.1134 89.4017 88.6827 96.9124C97.2521 104.423 115.857 108.59 116.743 108.59C118.815 109.068 121.035 98.1324 119.393 96.8671C117.751 95.6031 103.115 89.6951 100.517 87.1897C95.8734 82.7084 97.8521 55.4324 92.5934 49.4804C87.3347 43.5297 70.7974 49.0124 73.7187 62.4711" fill="#398AB9"/>
<path d="M120.49 98.839C120.49 98.839 127.013 104.259 127.4 105.735C127.788 107.211 127.63 109.644 127.097 110.26C126.565 110.878 122.58 112.874 121.057 111.828C119.534 110.783 117.437 108.4 117.437 108.4L118.156 105.732C118.156 105.732 117.666 107.56 113.714 105.083C109.764 102.604 116.736 95.0937 120.49 98.839Z" fill="#F28441"/>
<path d="M29.5916 197.56C21.7249 204.691 14.5649 221.015 9.67688 228.908C8.23822 231.234 12.2342 234.256 14.0675 232.227C20.3129 225.315 34.4316 213.31 41.5169 207.027C49.8569 199.63 37.0796 190.775 29.5916 197.56" fill="#F8A35E"/>
<path d="M10.5587 228.113C10.5587 228.113 7.56673 228.833 5.24006 232.433C4.94806 232.246 3.98672 233.155 4.06672 233.785C4.16139 234.527 6.88406 238.567 8.07073 238.977C8.49873 238.957 8.78541 238.471 8.78541 238.471C8.78541 238.471 9.06272 239.746 11.5001 242.294C13.9374 244.842 15.7921 245.853 17.2414 246.517C17.6801 246.718 18.3014 245.978 17.9254 245.673C17.9254 245.673 19.7801 244.113 18.5734 242.497C16.1041 239.187 15.8987 235.794 15.8174 233.331C15.7774 232.113 15.6454 230.943 15.3214 230.383C14.4907 228.943 12.4974 227.669 10.5587 228.113" fill="#EC1737"/>
<path d="M5.23988 232.432C6.55321 235.07 9.15322 238.25 9.15322 238.25C9.15322 238.25 13.5732 244.794 17.9252 245.672C22.2786 246.551 20.9132 250.646 20.9132 250.646L5.23988 245.422L1.19189 237.984L1.80254 233.09C1.80254 233.09 4.50654 230.962 5.23988 232.432" fill="#F799C3"/>
<path d="M10.0267 227.716C10.0267 227.716 8.98934 229.743 10.6693 231.423C12.348 233.101 13.6747 232.522 15.4707 230.726C17.2667 228.928 11.8547 223.615 10.0267 227.716" fill="#F8A35E"/>
<path d="M46.8159 119.555C46.8159 119.555 48.9199 159.61 44.4239 170.099C39.9279 180.59 28.2466 197.665 28.2466 197.665C28.2466 197.665 31.4506 207.605 43.2959 209.031C43.2959 209.031 61.1572 196.451 68.1652 177.398C75.1732 158.345 81.0479 137.374 78.2092 121.838C76.6159 113.113 49.0706 106.794 46.8159 119.555Z" fill="#045987"/>
<path d="M51.7037 119.19C51.7037 119.195 51.7197 121.214 51.7197 124.459C51.7197 134.378 51.573 155.722 50.4037 165.404C49.6744 171.539 44.5064 180.435 39.5131 187.74C37.0184 191.396 34.5691 194.664 32.7437 197.016C31.8317 198.192 31.0744 199.14 30.5464 199.794C30.0184 200.447 29.7211 200.803 29.7197 200.804L30.2304 201.231C30.2344 201.226 35.0517 195.458 40.0624 188.115C45.0717 180.764 50.2837 171.875 51.0637 165.484C52.2411 155.718 52.3837 134.392 52.3837 124.459C52.3837 121.211 52.369 119.184 52.369 119.184L51.7037 119.19" fill="white"/>
<path d="M91.6532 50.3949C94.7385 56.5349 89.2345 79.8375 89.2345 90.0175C89.2345 98.2962 90.5932 112.138 91.8199 117.363C92.1465 118.755 91.5265 120.184 90.2932 120.91C85.5319 123.71 79.1905 125.183 75.2785 125.559C60.2025 127.01 52.9199 124.368 49.4932 123.07C47.6439 122.368 46.5359 120.488 46.8279 118.532C47.5892 113.44 49.7358 100.987 47.8985 89.5322C45.4918 74.5402 41.5652 54.1495 48.5985 47.8562C55.6318 41.5642 68.8012 37.6455 68.8012 37.6455C68.8012 37.6455 87.8425 42.8135 91.6532 50.3949" fill="white"/>
<path d="M71.9851 31.2642C71.9851 31.2642 68.6025 30.7002 63.9638 24.9375C60.9251 21.1588 56.6958 4.06815 70.1011 1.48148C83.5064 -1.10519 87.4544 7.95614 88.0664 13.8801C88.6798 19.8055 82.0305 24.6895 79.0198 26.8268C76.0091 28.9655 71.9851 31.2642 71.9851 31.2642Z" fill="#37213E"/>
<path d="M68.7173 24.379C68.7173 24.379 68.3093 29.5563 66.7813 33.595C65.2533 37.635 63.6146 38.875 61.6839 40.591C59.7546 42.3083 69.3866 52.5377 77.9613 55.1323C77.9613 55.1323 84.1813 47.5577 81.3293 43.335C78.4773 39.1123 76.2186 38.739 77.2399 33.1003C78.1292 28.1857 78.6613 25.4603 78.6613 25.4603L68.7173 24.379" fill="#F8A35E"/>
<path fill-rule="evenodd" clip-rule="evenodd" d="M68.7173 24.3789C68.7173 24.3789 68.2853 28.2056 69.828 29.847C71.3707 31.487 74.1307 35.4496 80.4267 34.9883C88.8347 34.3736 85.5693 21.031 85.5693 21.031C85.5693 21.031 86.448 15.8976 85.568 11.6803C84.6893 7.46429 76.364 5.25496 69.5853 7.31896C69.5853 7.31896 67.6387 9.1723 68.3853 17.4576C68.3853 17.4576 67.1347 15.9536 65.168 17.0256C63.676 17.839 63.5173 19.7643 64.0253 21.5789C64.632 23.7563 66.9027 25.6323 68.7173 24.3789" fill="#F8A35E"/>
<path d="M68.0156 23.5776L67.2756 21.6083L68.5383 21.0856C68.5383 21.0856 67.7183 17.4043 65.6663 18.7603C63.9796 19.8763 65.9076 24.3269 68.0156 23.5776" fill="#E56A46"/>
<path d="M68.9094 20.6455C68.9094 20.6455 68.0814 25.8215 68.2068 28.1308C68.3321 30.4402 70.6094 37.6282 81.1388 36.9882C91.5961 36.3508 87.8508 25.0175 86.0801 24.2402C86.1454 24.9935 85.7708 26.2082 85.0361 26.7402C84.6121 25.6815 83.3775 24.9268 81.6641 25.2882C80.1668 24.4415 78.4494 24.9669 76.6428 26.0442L75.3414 26.9562C72.0868 26.1535 70.4001 24.0148 69.9908 20.7855L68.9094 20.6455" fill="#37213E"/>
<path d="M77.9653 27.1536C77.9653 27.1536 83.4934 27.1536 83.624 27.5296C83.756 27.9043 82.9667 28.6562 80.7947 28.6562C78.6227 28.6562 77.9653 27.1536 77.9653 27.1536" fill="white"/>
<path d="M78.1186 27.2538L78.1399 27.0938L78.1479 27.1138L78.1679 27.1511L78.2092 27.2271L78.3065 27.3778L78.5359 27.6578C78.7012 27.8365 78.8972 27.9858 79.1065 28.1138C79.5319 28.3631 80.0252 28.4898 80.5239 28.5245C81.5052 28.5551 82.6332 28.5138 83.3985 27.8978C83.8959 27.4071 83.0252 27.4898 82.5906 27.4085C82.0799 27.3672 81.5652 27.3485 81.0519 27.3325L79.5092 27.3072L78.7359 27.3191L78.3506 27.3271L78.1572 27.3325C78.1119 27.3018 77.9559 27.4098 78.1186 27.2538V27.2538ZM77.8105 27.0525C78.1012 26.8965 78.0746 27.0058 78.1586 26.9765L78.3519 26.9831L78.7399 26.9978L79.5132 27.0325L81.0612 27.0911C81.5772 27.1178 82.0932 27.1472 82.6092 27.2005C82.8679 27.2285 83.1252 27.2591 83.3879 27.3178L83.5932 27.3871L83.7292 27.6271C83.7159 27.7991 83.6199 27.9205 83.5239 28.0218C82.6612 28.7338 81.5372 28.7645 80.5092 28.7631C79.9812 28.7391 79.4465 28.6138 78.9732 28.3525C78.7345 28.2285 78.5079 28.0738 78.3092 27.8858L78.0306 27.5845L77.9079 27.4165L77.8519 27.3271L77.8239 27.2805L77.8105 27.2565V27.0525" fill="#E56A46"/>
<path d="M78.6862 20.3244C78.6476 20.7911 78.0356 20.8244 77.2876 20.7617C76.5396 20.7004 75.9409 20.5644 75.9809 20.0977C76.0196 19.6311 76.6569 19.3044 77.4036 19.3671C78.1516 19.4284 78.7262 19.8577 78.6862 20.3244Z" fill="#37213E"/>
<path d="M73.737 18.095C73.7143 18.1644 75.865 17.4204 76.5463 17.4284C77.229 17.4364 79.801 17.847 80.017 17.5964C80.233 17.347 80.4023 16.483 80.4023 16.483C80.4023 16.483 76.8983 16.1417 76.1757 16.3244C75.453 16.5084 73.933 17.5017 73.737 18.095" fill="#37213E"/>
<path d="M85.537 20.8976C85.4984 21.3643 84.885 21.3977 84.137 21.335C83.3904 21.2723 82.7917 21.1377 82.8304 20.671C82.8691 20.2043 83.5077 19.8763 84.2544 19.939C85.0024 20.0017 85.5757 20.431 85.537 20.8976" fill="#37213E"/>
<path d="M86.4904 19.1619C86.4971 19.2339 85.5677 18.0512 85.1051 17.9632C84.6411 17.8766 82.4104 18.0659 82.2997 17.7885C82.1877 17.5099 82.1944 16.6339 82.1944 16.6339C82.1944 16.6339 85.1731 16.8592 85.6371 17.1419C86.1011 17.4232 86.4411 18.5485 86.4904 19.1619" fill="#37213E"/>
<path d="M81.6892 24.8872C81.6892 24.8872 79.9612 24.8285 80.0012 24.3552C80.0318 23.9885 82.2132 23.5939 83.2839 23.5939C83.5945 23.5939 83.8119 23.6259 83.8572 23.7032C84.0559 24.0446 82.4665 24.6699 81.6892 24.8872" fill="#F38751"/>
<path d="M81.9879 17.7004C81.9879 17.7004 81.4812 19.8657 81.7412 20.6457C82.0012 21.4244 83.5866 23.1818 83.6212 23.5538C83.6546 23.9244 81.8239 24.8324 81.6892 24.8871C81.5559 24.9404 84.2985 24.5204 84.2172 23.6684C84.1372 22.8164 82.0972 20.6791 82.0252 20.2618C81.9519 19.8444 81.9879 17.7004 81.9879 17.7004Z" fill="#E56A46"/>
<path d="M69.6613 21.2819C70.1986 20.9192 71.0799 17.7939 70.1426 14.7872C69.3026 12.0939 71.4279 10.1019 72.9253 9.93789C74.6399 9.75123 80.1999 11.3285 82.3986 11.0592C87.2186 10.4672 90.9533 9.04455 90.9453 8.15521C90.9373 7.26455 87.4093 8.18855 87.4093 8.18855C87.4093 8.18855 92.7826 6.81788 92.296 2.32188C92.296 2.32188 88.2573 2.61787 84.6479 1.38187C81.0399 0.145874 72.4026 -1.28878 67.8079 2.12321C64.8013 4.35521 62.6666 11.6326 66.6493 15.3339C68.4639 17.0192 68.6346 21.9765 69.6613 21.2819" fill="#37213E"/>
<path d="M90.4852 124.348C89.1598 123.944 88.0145 123.323 87.0278 122.54C88.0185 122.119 88.9838 121.651 89.8972 121.138C90.2518 123.154 90.4852 124.348 90.4852 124.348Z" fill="#382243"/>
<path d="M87.0276 122.541C80.2636 117.175 80.8435 104.147 80.4022 100.402C79.8969 96.1072 82.1942 50.4965 82.1942 50.4965C82.1942 50.4965 87.1489 71.9658 86.4902 86.2592C85.9796 97.3498 88.6662 114.161 89.8969 121.138C88.9836 121.651 88.0182 122.119 87.0276 122.541" fill="#BDC4C3"/>
<path d="M78.8677 40.1725C78.8677 40.1725 83.3463 54.4551 83.0983 73.0751C82.849 91.6951 82.093 129.887 95.873 129C95.873 129 90.065 105.536 90.4197 97.0138C90.7744 88.4898 95.389 57.1644 93.693 51.7964C91.2384 44.0204 78.8677 40.1725 78.8677 40.1725Z" fill="#398AB9"/>
<path d="M63.0531 39.5003C63.0531 39.5003 72.3438 54.0376 75.3198 78.6763C76.7398 90.423 75.1477 109.035 73.3744 120.922C71.3344 134.603 44.5504 134.582 42.8317 130.994C41.1144 127.407 48.7851 104.68 46.3944 91.7656C44.0024 78.8536 42.5918 57.7683 45.4464 50.8336C48.3024 43.8989 63.0531 39.5003 63.0531 39.5003" fill="#398AB9"/>
<path d="M49.2905 64.2575C49.2919 64.2602 49.5425 65.4682 49.9199 67.4735C51.0505 73.4895 53.3132 86.6642 53.3118 95.6122C53.3118 96.3735 53.2959 97.1029 53.2612 97.7949C52.9719 103.592 51.8998 112.378 50.8998 119.704C50.4012 123.37 49.9185 126.671 49.5625 129.055C49.2065 131.44 48.9745 132.904 48.9745 132.908C48.9452 133.09 49.0692 133.26 49.2505 133.288C49.4319 133.318 49.6025 133.194 49.6305 133.012C49.6319 133.006 53.3399 109.502 53.9252 97.8282C53.9599 97.1229 53.9772 96.3828 53.9772 95.6122C53.9745 83.5535 49.9425 64.1335 49.9425 64.1229C49.9052 63.9429 49.7292 63.8269 49.5492 63.8642C49.3692 63.9015 49.2545 64.0775 49.2905 64.2575" fill="white"/>
<path d="M46.4078 52.6015C45.8358 53.9922 45.4425 55.9775 45.1958 58.3508C47.7065 77.5255 58.4918 99.0148 75.0558 106.729C75.6025 100.5 75.9318 93.9242 75.8424 88.0255C64.7438 76.9722 56.2585 62.6028 49.7611 48.4402C48.2545 49.6882 47.0344 51.0802 46.4078 52.6015" fill="#398AB9"/>
<path d="M111.282 102.667C111.282 102.667 119.54 104.597 120.546 105.745C121.553 106.892 123.242 110.816 123.041 111.608C122.841 112.399 118.474 114.123 116.646 113.868C114.816 113.613 112.825 112.584 112.825 112.584C113.098 111.609 113.025 110.735 112.01 110.42C110.94 110.087 109.801 110.665 107.933 111.505C103.68 113.42 106.25 100.995 111.282 102.667" fill="#F8A35E"/>
<path d="M45.0717 62.7017C47.2917 75.007 63.0277 93.3617 69.761 99.139C75.665 104.203 104.813 112.799 106.098 112.867C109.085 113.502 112.885 102.751 110.565 101.363C108.245 99.975 82.265 88.019 79.4517 84.891C76.637 81.763 66.3197 53.9764 58.9917 47.631C51.6637 41.2857 42.565 48.8137 45.0717 62.7017" fill="#479FD2"/>
</svg>
