<svg xmlns="http://www.w3.org/2000/svg" width="48" height="55" viewBox="0 0 48 55" fill="none">
<path d="M36.8654 20.5422C36.8654 31.6569 28.6811 40.5843 18.6827 40.5843C8.68426 40.5843 0.5 31.6569 0.5 20.5422C0.5 9.42748 8.68426 0.5 18.6827 0.5C28.6811 0.5 36.8654 9.42748 36.8654 20.5422Z" fill="#B0D0E3" stroke="black"/>
<path d="M16.3119 1.3252C8.69913 8.47842 1.76389 26.411 16.3119 41.0842H18.5038C19.3597 25.5574 17.6479 16.8521 18.5038 1.3252C26.1745 7.06157 39.1051 23.0443 20.6954 41.0842" stroke="black"/>
<path d="M23.4321 12.5983C25.5956 10.5045 28.4504 13.7039 29.6074 15.5653L36.641 10.6218C37.1575 10.3305 38.4508 10.1666 39.492 11.8419C39.939 12.483 40.4937 14.0945 39.1365 15.4112L33.7278 20.6454C33.9886 21.2694 35.1624 23.2453 35.9248 23.9812C37.3147 25.2459 40.2797 25.7234 41.7463 25.8035L35.2545 30.8438L28.8573 22.8745L24.7502 30.2029C24.2447 31.1049 23.1911 30.8101 22.7276 30.5499C21.7272 29.8745 22.0694 28.5118 22.3656 27.9149L26.0388 19.8884L25.6047 19.1904C22.2225 15.607 22.747 13.3026 23.4321 12.5983Z" fill="#FFD2AA"/>
<ellipse cx="24.26" cy="53.6749" rx="1.39423" ry="1.3253" fill="#D8D2CB"/>
<ellipse cx="27.3263" cy="48.0423" rx="1.11538" ry="0.993976" fill="#D8D2CB"/>
<ellipse cx="29.8371" cy="41.7472" rx="1.39423" ry="1.3253" fill="#D8D2CB"/>
</svg>